<svg width="12" height="11" viewBox="0 0 12 11" fill="none" xmlns="http://www.w3.org/2000/svg">
<g clip-path="url(#clip0)">
<path d="M7.92436 8.68555C7.77875 8.83116 7.54952 8.83116 7.40392 8.68555C7.26323 8.54486 7.26323 8.31071 7.40392 8.17035L10.0429 5.5314L1.33469 5.5314C1.13169 5.5314 0.965098 5.37005 0.965098 5.16706C0.965098 4.96406 1.13169 4.79747 1.33469 4.79747L10.0429 4.79747L7.40392 2.16343C7.26323 2.01783 7.26323 1.78335 7.40392 1.64299C7.54952 1.49738 7.77875 1.49738 7.92436 1.64299L11.188 4.90667C11.3287 5.04736 11.3287 5.28151 11.188 5.42187L7.92436 8.68555Z" fill="#8E8E8E"/>
</g>
<defs>
<clipPath id="clip0">
<rect width="10.3282" height="10.3282" fill="white" transform="translate(11.2933 10.3282) rotate(-180)"/>
</clipPath>
</defs>
</svg>
