<svg width="41" height="41" viewBox="0 0 41 41" fill="none" xmlns="http://www.w3.org/2000/svg">
<g filter="url(#filter0_d)">
<circle cx="18.5" cy="18.5" r="15.5" fill="url(#paint0_linear)"/>
</g>
<g clip-path="url(#clip0)">
<path d="M15.9026 20.5595H23.0657C23.8779 20.5595 24.5405 19.8969 24.5405 19.0847V16.071C24.5405 16.0683 24.5405 16.0629 24.5405 16.0603C24.5405 16.0523 24.5405 16.0469 24.5405 16.0389C24.5405 16.0336 24.5405 16.0282 24.5378 16.0229C24.5378 16.0175 24.5351 16.0095 24.5351 16.0042C24.5351 15.9988 24.5325 15.9935 24.5325 15.9881C24.5298 15.9828 24.5298 15.9774 24.5271 15.9694C24.5244 15.9641 24.5244 15.9587 24.5218 15.9534C24.5191 15.9481 24.5191 15.9427 24.5164 15.9374C24.5138 15.932 24.5111 15.9267 24.5084 15.9187C24.5057 15.9133 24.5031 15.908 24.5004 15.9053C24.4977 15.9 24.4951 15.8946 24.4924 15.8893C24.4897 15.8839 24.487 15.8813 24.4844 15.8759C24.4817 15.8706 24.4763 15.8652 24.4737 15.8599C24.471 15.8545 24.4683 15.8519 24.463 15.8465C24.4603 15.8412 24.455 15.8385 24.4523 15.8332C24.4496 15.8278 24.4443 15.8252 24.4416 15.8198C24.4389 15.8145 24.4336 15.8118 24.4309 15.8091C24.4256 15.8038 24.4229 15.8011 24.4176 15.7958C24.4122 15.7931 24.4096 15.7878 24.4042 15.7851C24.3989 15.7824 24.3935 15.7771 24.3882 15.7744C24.3828 15.7717 24.3802 15.7691 24.3748 15.7664C24.3695 15.7637 24.3641 15.761 24.3588 15.7557C24.3534 15.753 24.3481 15.7503 24.3428 15.7477C24.3374 15.745 24.3321 15.7423 24.3267 15.7397C24.3214 15.737 24.316 15.7343 24.3107 15.7316C24.3054 15.729 24.3 15.729 24.2947 15.7263C24.2893 15.7236 24.2813 15.721 24.276 15.721C24.2706 15.721 24.2653 15.7183 24.2626 15.7183C24.2546 15.7156 24.2492 15.7156 24.2412 15.7156C24.2386 15.7156 24.2359 15.7129 24.2305 15.7129L15.1519 14.4599V13.1935C15.1519 13.1801 15.1519 13.1667 15.1492 13.1561C15.1492 13.1534 15.1492 13.1507 15.1465 13.1454C15.1465 13.1374 15.1439 13.1293 15.1439 13.1213C15.1412 13.1133 15.1412 13.108 15.1385 13.1C15.1385 13.0946 15.1358 13.0919 15.1358 13.0866C15.1332 13.0786 15.1305 13.0706 15.1278 13.0625C15.1278 13.0599 15.1252 13.0545 15.1252 13.0519C15.1225 13.0438 15.1198 13.0385 15.1145 13.0305C15.1118 13.0278 15.1118 13.0225 15.1091 13.0198C15.1065 13.0145 15.1038 13.0091 15.0984 13.0038C15.0958 12.9984 15.0931 12.9958 15.0904 12.9904C15.0878 12.9851 15.0851 12.9824 15.0824 12.9771C15.0797 12.9717 15.0744 12.9664 15.0717 12.961C15.069 12.9583 15.0664 12.9557 15.0637 12.953C15.0584 12.9477 15.053 12.9423 15.0477 12.937C15.045 12.9343 15.0423 12.9316 15.0397 12.929C15.0343 12.9236 15.029 12.9183 15.021 12.9129C15.0183 12.9103 15.0129 12.9076 15.0103 12.9049C15.0049 12.8996 14.9996 12.8969 14.9942 12.8916C14.9862 12.8862 14.9782 12.8809 14.9729 12.8782C14.9702 12.8755 14.9675 12.8755 14.9648 12.8729C14.9542 12.8675 14.9408 12.8622 14.9301 12.8568L12.961 12.0286C12.7767 11.9511 12.5656 12.0366 12.4881 12.2209C12.4106 12.4053 12.4961 12.6164 12.6805 12.6938L14.4278 13.4313V15.0664V15.3255V17.3133V19.0901V21.3343C14.4278 22.0824 14.9889 22.7023 15.7129 22.7958C15.582 23.0149 15.5045 23.2714 15.5045 23.5439C15.5045 24.3481 16.1591 25 16.9607 25C17.7622 25 18.4168 24.3454 18.4168 23.5439C18.4168 23.2767 18.3446 23.0229 18.2164 22.8092H21.4599C21.3317 23.0256 21.2595 23.2767 21.2595 23.5439C21.2595 24.3481 21.9141 25 22.7157 25C23.5172 25 24.1718 24.3454 24.1718 23.5439C24.1718 22.7424 23.5172 22.0878 22.7157 22.0878H15.9026C15.4858 22.0878 15.1492 21.7485 15.1492 21.3343V20.3565C15.3683 20.4847 15.6274 20.5595 15.9026 20.5595ZM17.6981 23.5412C17.6981 23.9473 17.3668 24.276 16.9633 24.276C16.5599 24.276 16.2286 23.9447 16.2286 23.5412C16.2286 23.1378 16.5599 22.8065 16.9633 22.8065C17.3668 22.8065 17.6981 23.1351 17.6981 23.5412ZM23.4531 23.5412C23.4531 23.9473 23.1218 24.276 22.7183 24.276C22.3149 24.276 21.9836 23.9447 21.9836 23.5412C21.9836 23.1378 22.3149 22.8065 22.7183 22.8065C23.1218 22.8065 23.4531 23.1351 23.4531 23.5412ZM23.0657 19.8382H15.9026C15.4858 19.8382 15.1492 19.4988 15.1492 19.0847V17.308V15.3202V15.1866L23.8191 16.3809V19.082C23.8191 19.5015 23.4798 19.8382 23.0657 19.8382Z" fill="white"/>
</g>
<defs>
<filter id="filter0_d" x="0" y="0" width="41" height="41" filterUnits="userSpaceOnUse" color-interpolation-filters="sRGB">
<feFlood flood-opacity="0" result="BackgroundImageFix"/>
<feColorMatrix in="SourceAlpha" type="matrix" values="0 0 0 0 0 0 0 0 0 0 0 0 0 0 0 0 0 0 127 0"/>
<feOffset dx="2" dy="2"/>
<feGaussianBlur stdDeviation="2.5"/>
<feColorMatrix type="matrix" values="0 0 0 0 0.921569 0 0 0 0 0.129412 0 0 0 0 0.180392 0 0 0 0.15 0"/>
<feBlend mode="normal" in2="BackgroundImageFix" result="effect1_dropShadow"/>
<feBlend mode="normal" in="SourceGraphic" in2="effect1_dropShadow" result="shape"/>
</filter>
<linearGradient id="paint0_linear" x1="3" y1="4.03332" x2="35.554" y2="5.08484" gradientUnits="userSpaceOnUse">
<stop stop-color="#FF5863"/>
<stop offset="1" stop-color="#EB212E"/>
<stop offset="1" stop-color="#EB212E"/>
</linearGradient>
<clipPath id="clip0">
<rect width="13" height="13" fill="white" transform="translate(12 12)"/>
</clipPath>
</defs>
</svg>
