<svg width="20" height="20" viewBox="0 0 20 20" fill="none" xmlns="http://www.w3.org/2000/svg">
<path d="M16.6632 2.94617H14.0335C11.9865 2.94617 10.3212 4.61151 10.3212 6.65848V8.87787H8.2402C8.0246 8.87787 7.84958 9.05273 7.84958 9.26849V12.2739C7.84958 12.4896 8.0246 12.6645 8.2402 12.6645H10.3212V19.2188H1.17188C0.956421 19.2188 0.78125 19.0436 0.78125 18.8281V1.17188C0.78125 0.956421 0.956421 0.78125 1.17188 0.78125H1.95312C2.16888 0.78125 2.34375 0.606384 2.34375 0.390625C2.34375 0.174866 2.16888 0 1.95312 0H1.17188C0.525665 0 0 0.525665 0 1.17188V18.8281C0 19.4743 0.525665 20 1.17188 20H10.7118C10.9276 20 11.1024 19.8251 11.1024 19.6094V12.2739C11.1024 12.0581 10.9276 11.8832 10.7118 11.8832H8.63098V9.65897H10.7118C10.9276 9.65897 11.1024 9.4841 11.1024 9.26834V6.65848C11.1024 5.04227 12.4173 3.72726 14.0337 3.72726H16.2727V5.95139H14.0337C13.6504 5.95139 13.3266 6.27518 13.3266 6.65848V9.26834C13.3266 9.4841 13.5014 9.65897 13.7172 9.65897H16.218L15.9253 11.8832H13.7172C13.5016 11.8832 13.3266 12.0581 13.3266 12.2739V19.6094C13.3266 19.8251 13.5016 20 13.7172 20H14.9219C15.1376 20 15.3125 19.8251 15.3125 19.6094C15.3125 19.3936 15.1376 19.2188 14.9219 19.2188H14.1078V12.6645H16.2679C16.4639 12.6645 16.6296 12.5191 16.6551 12.3248L17.0506 9.31931C17.0653 9.20792 17.0312 9.09546 16.9571 9.01093C16.8829 8.92624 16.7758 8.87787 16.6634 8.87787H14.108V6.73279H16.6634C16.8791 6.73279 17.054 6.55792 17.054 6.34216V3.33679C17.0538 3.12103 16.879 2.94617 16.6632 2.94617Z" fill="#6B6B6B"/>
<path d="M18.8281 0H5.07812C4.86237 0 4.6875 0.174866 4.6875 0.390625C4.6875 0.606384 4.86237 0.78125 5.07812 0.78125H18.8281C19.0436 0.78125 19.2188 0.956421 19.2188 1.17188V18.8281C19.2188 19.0436 19.0436 19.2188 18.8281 19.2188H18.0469C17.8311 19.2188 17.6562 19.3936 17.6562 19.6094C17.6562 19.8251 17.8311 20 18.0469 20H18.8281C19.4743 20 20 19.4743 20 18.8281V1.17188C20 0.525665 19.4743 0 18.8281 0Z" fill="#6B6B6B"/>
<path d="M16.4845 19.2188H16.4842C16.2685 19.2188 16.0938 19.3936 16.0938 19.6094C16.0938 19.8251 16.2688 20 16.4845 20C16.7003 20 16.8752 19.8251 16.8752 19.6094C16.8752 19.3936 16.7003 19.2188 16.4845 19.2188Z" fill="#6B6B6B"/>
<path d="M3.51578 0.78125C3.73154 0.78125 3.9064 0.606384 3.9064 0.390625C3.9064 0.174866 3.73154 0 3.51578 0H3.51547C3.29971 0 3.125 0.174866 3.125 0.390625C3.125 0.606384 3.30002 0.78125 3.51578 0.78125Z" fill="#6B6B6B"/>
</svg>
