<svg width="25" height="25" viewBox="0 0 25 25" fill="none" xmlns="http://www.w3.org/2000/svg">
<path d="M5.85938 9.91211H3.92974C4.25571 5.46875 7.9749 1.95312 12.5 1.95312C16.0808 1.95312 19.3209 4.2085 20.5627 7.56538C20.7499 8.07119 21.3116 8.32954 21.8175 8.14248C22.3233 7.95532 22.5817 7.3936 22.3946 6.88774C21.6544 4.88696 20.3396 3.17485 18.5921 1.93647C16.8045 0.669629 14.6979 0 12.5 0C9.68286 0 7.03428 1.09707 5.04224 3.08911C3.07617 5.05518 1.98267 7.66084 1.95444 10.4369C0.787354 11.1131 0 12.3751 0 13.8184V17.1387C0 19.2926 1.75234 21.0449 3.90625 21.0449H5.85938C6.39873 21.0449 6.83594 20.6077 6.83594 20.0684V10.8887C6.83594 10.3493 6.39873 9.91211 5.85938 9.91211ZM4.88281 19.0918H3.90625C2.8293 19.0918 1.95312 18.2156 1.95312 17.1387V13.8184C1.95312 12.7414 2.8293 11.8652 3.90625 11.8652H4.88281V19.0918Z" fill="white"/>
<path d="M21.0938 9.91211H19.1406C18.6013 9.91211 18.1641 10.3493 18.1641 10.8887V17.5781V20.0684V21.0938C18.1641 21.6322 17.726 22.0703 17.1875 22.0703H14.209V22.1013C13.8759 21.5005 13.2355 21.0938 12.5 21.0938C11.4213 21.0938 10.5469 21.9682 10.5469 23.0469C10.5469 24.1255 11.4213 25 12.5 25C13.2355 25 13.8759 24.5932 14.209 23.9925V24.0234H17.1875C18.8029 24.0234 20.1172 22.7092 20.1172 21.0938V21.0449H21.0938C23.2477 21.0449 25 19.2926 25 17.1387V13.8184C25 11.6645 23.2477 9.91211 21.0938 9.91211ZM23.0469 17.1387C23.0469 18.2156 22.1707 19.0918 21.0938 19.0918H20.1172V17.5781V11.8652H21.0938C22.1707 11.8652 23.0469 12.7414 23.0469 13.8184V17.1387Z" fill="white"/>
</svg>
