<svg width="24" height="24" viewBox="0 0 24 24" fill="none" xmlns="http://www.w3.org/2000/svg">
<g clip-path="url(#clip0)">
<path d="M23.4973 9.6514L12.2395 1.40862C12.0224 1.2497 11.7274 1.2497 11.5104 1.40862L0.25248 9.6514C-0.0225 9.85277 -0.0822461 10.2389 0.119119 10.5139C0.320483 10.7888 0.706653 10.8485 0.981587 10.6472L11.8749 2.67131L22.7682 10.6472C22.8781 10.7277 23.0057 10.7664 23.1323 10.7664C23.3223 10.7664 23.5098 10.679 23.6306 10.5138C23.8321 10.2389 23.7723 9.85277 23.4973 9.6514Z" fill="#393939"/>
<path d="M20.5144 10.7869C20.1736 10.7869 19.8973 11.0632 19.8973 11.404V21.2264H14.9607V15.8647C14.9607 14.1632 13.5764 12.7791 11.8751 12.7791C10.1737 12.7791 8.78943 14.1633 8.78943 15.8647V21.2264H3.85282V11.4041C3.85282 11.0633 3.57649 10.787 3.23573 10.787C2.89498 10.787 2.61865 11.0633 2.61865 11.4041V21.8435C2.61865 22.1843 2.89498 22.4606 3.23573 22.4606H9.40651C9.73104 22.4606 9.9966 22.2099 10.0212 21.8916C10.0227 21.8772 10.0236 21.8614 10.0236 21.8435V15.8648C10.0236 14.8438 10.8542 14.0133 11.8751 14.0133C12.896 14.0133 13.7266 14.8439 13.7266 15.8648V21.8435C13.7266 21.8613 13.7275 21.8768 13.729 21.891C13.7533 22.2096 14.0189 22.4606 14.3436 22.4606H20.5144C20.8552 22.4606 21.1315 22.1843 21.1315 21.8435V11.4041C21.1315 11.0632 20.8552 10.7869 20.5144 10.7869Z" fill="#393939"/>
</g>
<defs>
<clipPath id="clip0">
<rect width="23.75" height="23.75" fill="white"/>
</clipPath>
</defs>
</svg>
