<svg width="24" height="24" viewBox="0 0 24 24" fill="none" xmlns="http://www.w3.org/2000/svg">
<g clip-path="url(#clip0)">
<path d="M23.2882 13.9687C22.9948 13.8068 22.6224 13.8423 22.2665 14.0664L15.6924 18.2061C15.5095 18.3213 15.4546 18.563 15.5698 18.746C15.685 18.9289 15.9267 18.9838 16.1096 18.8686L22.6837 14.7289C22.8226 14.6415 22.8986 14.6479 22.9098 14.6542C22.9212 14.6604 22.967 14.7212 22.967 14.8853C22.967 15.3263 22.6397 15.9193 22.2665 16.1543L15.8933 20.1675C15.5544 20.3808 15.2446 20.4395 15.0433 20.3284C14.842 20.2173 14.7266 19.9239 14.7266 19.5234C14.7266 18.5088 15.4519 17.1949 16.3105 16.6543L23.5672 12.0848C23.681 12.0131 23.75 11.888 23.75 11.7535C23.75 11.619 23.6809 11.4939 23.5672 11.4222L9.6235 2.64192C9.49603 2.56164 9.33375 2.56164 9.20629 2.64192L1.86135 7.26701C0.817617 7.92428 0 9.40527 0 10.6387V10.8475C0 12.0809 0.817617 13.5619 1.86135 14.2192L12.7858 21.0983C12.9688 21.2135 13.2105 21.1585 13.3257 20.9756C13.4409 20.7927 13.386 20.5509 13.203 20.4357L2.27857 13.5566C1.46784 13.0462 0.782958 11.8055 0.782958 10.8475V10.6387C0.782958 9.68066 1.46784 8.44004 2.27857 7.92955L9.41487 3.43584L22.6238 11.7535L15.8933 15.9917C14.8001 16.6801 13.9437 18.2314 13.9437 19.5234C13.9437 20.2278 14.1998 20.7571 14.6649 21.0139C14.8517 21.117 15.0578 21.1682 15.2761 21.1682C15.6013 21.1682 15.9539 21.0546 16.3105 20.83L22.6837 16.8168C23.2816 16.4403 23.7499 15.5919 23.7499 14.8853C23.7499 14.4648 23.5817 14.1307 23.2882 13.9687Z" fill="#393939"/>
<path d="M18.4604 12.145C18.5904 12.145 18.7176 12.0802 18.792 11.9621C18.9072 11.7792 18.8523 11.5374 18.6693 11.4222L9.62357 5.72615C9.44057 5.61095 9.19889 5.66592 9.08369 5.84881C8.96849 6.03177 9.02341 6.27349 9.20636 6.38869L18.2521 12.0848C18.3169 12.1255 18.389 12.145 18.4604 12.145Z" fill="#393939"/>
<path d="M16.8952 13.184C17.0255 13.184 17.153 13.1189 17.2272 13.0004C17.3421 12.8172 17.2867 12.5756 17.1035 12.4608L13.2821 10.0647C13.0988 9.94973 12.8573 10.0052 12.7425 10.1884C12.6276 10.3716 12.683 10.6132 12.8662 10.728L16.6876 13.1241C16.7522 13.1647 16.8241 13.184 16.8952 13.184Z" fill="#393939"/>
<path d="M11.687 11.0949C11.5036 10.9804 11.2621 11.0363 11.1476 11.2197C11.0331 11.4031 11.0889 11.6446 11.2724 11.7591L15.1231 14.1634C15.1876 14.2037 15.2592 14.2229 15.3301 14.2229C15.4606 14.2229 15.5883 14.1576 15.6625 14.0387C15.777 13.8552 15.7212 13.6138 15.5378 13.4992L11.687 11.0949Z" fill="#393939"/>
<path d="M7.57949 6.75066L4.32604 8.7996C4.21188 8.87148 4.14277 8.99706 4.14319 9.13199C4.14361 9.26692 4.2134 9.39209 4.32797 9.46334L8.20805 11.8758C8.27137 11.9152 8.34303 11.9349 8.41475 11.9349C8.48871 11.9349 8.56263 11.9139 8.62725 11.8722L9.49142 11.3137C9.67302 11.1963 9.72506 10.954 9.60772 10.7724C9.49038 10.5908 9.24803 10.5388 9.06643 10.6561L8.41073 11.0799L5.27269 9.12876L7.78859 7.54431L10.881 9.48328L10.5204 9.71629C10.3388 9.83368 10.2868 10.076 10.4041 10.2576C10.5215 10.4392 10.764 10.4912 10.9454 10.3739L11.8223 9.80706C11.9347 9.7344 12.0022 9.60939 12.0013 9.47556C12.0004 9.34177 11.9312 9.2177 11.8178 9.14661L7.99602 6.75029C7.86866 6.67038 7.70675 6.67053 7.57949 6.75066Z" fill="#393939"/>
<path d="M14.0979 15.0769C14.2121 14.8933 14.1558 14.6519 13.9722 14.5377L10.092 12.1251C9.90837 12.0109 9.66696 12.0672 9.55285 12.2509C9.4387 12.4345 9.49497 12.6759 9.6786 12.79L13.5588 15.2026C13.6231 15.2427 13.6945 15.2617 13.7651 15.2617C13.8959 15.2617 14.0238 15.1962 14.0979 15.0769Z" fill="#393939"/>
<path d="M2.79394 10.067C2.67979 10.2506 2.73606 10.492 2.91969 10.6061L12.4967 16.5608C12.561 16.6009 12.6325 16.6199 12.7031 16.6199C12.8339 16.6199 12.9618 16.5543 13.0359 16.4351C13.15 16.2514 13.0938 16.0101 12.9101 15.8959L3.33309 9.94123C3.14946 9.82697 2.9081 9.88334 2.79394 10.067Z" fill="#393939"/>
</g>
<defs>
<clipPath id="clip0">
<rect width="23.75" height="23.75" fill="white"/>
</clipPath>
</defs>
</svg>
