<svg width="24" height="24" viewBox="0 0 24 24" fill="none" xmlns="http://www.w3.org/2000/svg">
<g clip-path="url(#clip0)">
<path d="M23.7344 19.5473C23.6589 18.9766 23.3295 18.4845 22.8306 18.1973L16.9714 14.8238C16.2538 14.4106 15.3434 14.5309 14.7577 15.1166L13.6036 16.2707C13.2965 16.5778 12.8106 16.605 12.4737 16.3338C11.5638 15.6017 10.668 14.796 9.81115 13.9391C8.95427 13.0822 8.14858 12.1865 7.41645 11.2766C7.14525 10.9396 7.17239 10.4538 7.47959 10.1466L8.63363 8.99253C9.21931 8.4069 9.33975 7.49662 8.92647 6.77885L5.55296 0.919642C5.2657 0.420748 4.77368 0.0913323 4.20298 0.0158263C3.63222 -0.0598337 3.07141 0.130522 2.66433 0.537598L0.925386 2.2766C-0.288303 3.49034 -0.307795 5.71048 0.8705 8.52816C2.0035 11.2375 4.11788 14.2199 6.82404 16.9262C9.53031 19.6324 12.5128 21.7468 15.2221 22.8798C16.6091 23.4598 17.8512 23.7496 18.8998 23.7496C19.9815 23.7496 20.8574 23.4411 21.4737 22.8249L23.2127 21.0859C23.6197 20.6788 23.8099 20.118 23.7344 19.5473ZM16.5875 15.4906L22.4467 18.8641C22.7365 19.0309 22.9278 19.3167 22.9716 19.6482C23.0085 19.9263 22.9362 20.2003 22.7723 20.421L14.9855 15.9769L15.3018 15.6607C15.6419 15.3205 16.1707 15.2506 16.5875 15.4906ZM4.10203 0.778633C4.43355 0.82249 4.71931 1.01382 4.88612 1.30358L8.25963 7.16279C8.49969 7.57967 8.42973 8.10842 8.08959 8.4485L7.79911 8.73899L3.3306 0.977913C3.51327 0.842649 3.73173 0.769194 3.95948 0.769194C4.00672 0.769194 4.05438 0.772323 4.10203 0.778633ZM20.9296 22.2808C19.9653 23.245 17.9933 23.2046 15.519 22.1699C12.8999 21.0746 10.0053 19.0191 7.36818 16.3821C4.73111 13.7451 2.67562 10.8504 1.58037 8.23132C0.545598 5.75701 0.505229 3.78492 1.46947 2.82063L2.76041 1.52964L7.23563 9.30246L6.93551 9.60259C6.34998 10.1882 6.29899 11.1152 6.81696 11.759C7.56633 12.6903 8.39069 13.6069 9.26701 14.4832C10.1434 15.3596 11.06 16.1839 11.9912 16.9333C12.635 17.4513 13.562 17.4003 14.1477 16.8147L14.4215 16.5409L22.2191 20.9912L20.9296 22.2808Z" fill="#F57C00"/>
</g>
<defs>
<clipPath id="clip0">
<rect width="23.75" height="23.75" fill="white"/>
</clipPath>
</defs>
</svg>
