<svg width="24" height="24" viewBox="0 0 24 24" fill="none" xmlns="http://www.w3.org/2000/svg">
<g clip-path="url(#clip0)">
<path d="M21.2793 19.5853L20.2187 6.22055C20.1526 5.35952 19.4244 4.68501 18.5609 4.68501H16.4659V4.59085C16.4659 2.05943 14.4065 0 11.8751 0C9.34368 0 7.28424 2.05943 7.28424 4.59085V4.68501H5.18933C4.32575 4.68501 3.59752 5.35948 3.53165 6.21874L2.47069 19.5871C2.38859 20.6575 2.75992 21.7231 3.48939 22.5107C4.21887 23.2982 5.25297 23.75 6.3265 23.75H17.4236C18.4971 23.75 19.5313 23.2983 20.2608 22.5107C20.9903 21.7231 21.3615 20.6575 21.2793 19.5853ZM8.67538 4.59085C8.67538 2.82653 10.1108 1.39114 11.8751 1.39114C13.6394 1.39114 15.0748 2.82657 15.0748 4.59085V4.68501H8.67538V4.59085ZM19.2401 21.5654C18.7662 22.0771 18.1211 22.3589 17.4236 22.3589H6.32654C5.62907 22.3589 4.98402 22.0771 4.51004 21.5654C4.03611 21.0537 3.80445 20.3889 3.8577 19.6953L4.91857 6.32692C4.92933 6.18627 5.04827 6.07615 5.18933 6.07615H7.28424V7.78944C7.28424 8.17357 7.59568 8.48501 7.97981 8.48501C8.36394 8.48501 8.67538 8.17357 8.67538 7.78944V6.07615H15.0748V7.78944C15.0748 8.17357 15.3862 8.48501 15.7704 8.48501C16.1545 8.48501 16.4659 8.17357 16.4659 7.78944V6.07615H18.5609C18.7019 6.07615 18.8209 6.18632 18.8318 6.32877L19.8924 19.6935C19.9458 20.3889 19.7141 21.0537 19.2401 21.5654Z" fill="#2E8EFF"/>
<path d="M15.0087 11.7954C14.7372 11.5237 14.2967 11.5237 14.0251 11.7954L10.9193 14.9013L9.725 13.707C9.45341 13.4353 9.01297 13.4353 8.74133 13.707C8.46969 13.9786 8.46969 14.419 8.74133 14.6907L10.4274 16.3768C10.5633 16.5126 10.7413 16.5806 10.9192 16.5806C11.0972 16.5806 11.2752 16.5126 11.411 16.3768L15.0087 12.7791C15.2804 12.5074 15.2804 12.067 15.0087 11.7954Z" fill="#2E8EFF"/>
</g>
<defs>
<clipPath id="clip0">
<rect width="23.75" height="23.75" fill="white"/>
</clipPath>
</defs>
</svg>
