<svg width="34" height="34" viewBox="0 0 34 34" fill="none" xmlns="http://www.w3.org/2000/svg">
<g clip-path="url(#clip0)">
<path d="M24.0609 12.6109C24.0604 12.8188 24.1445 13.0063 24.2802 13.142C24.416 13.2778 24.6035 13.3619 24.8108 13.3619C25.2258 13.3616 25.5623 13.0251 25.5623 12.6104L25.5649 8.90602C25.5649 8.80738 25.5456 8.71007 25.5074 8.61779C25.4318 8.43615 25.2884 8.28952 25.107 8.21315C25.1049 8.21209 25.1033 8.21262 25.1017 8.21209C25.0224 8.17947 24.9381 8.16621 24.8543 8.16197C24.8405 8.16144 24.8291 8.15428 24.8148 8.15375L24.8132 8.15428L21.1884 8.15587C20.7739 8.15561 20.4375 8.4921 20.4375 8.90682C20.4372 9.11444 20.521 9.30218 20.6567 9.43794C20.7928 9.57397 20.9802 9.6575 21.1879 9.65724L23.0008 9.65644L9.6569 22.9993L9.6577 21.1874C9.65796 20.773 9.322 20.437 8.90728 20.437C8.4923 20.4373 8.1558 20.7738 8.15607 21.1882L8.15474 24.8138C8.15474 25.0217 8.2388 25.2092 8.37456 25.3449C8.51033 25.4807 8.6978 25.5648 8.90543 25.5645L12.6106 25.5621C13.0253 25.5621 13.3621 25.2253 13.3618 24.8109C13.3621 24.3964 13.0261 24.0605 12.6114 24.0605L10.7186 24.0615L24.0623 10.719L24.0609 12.6109Z" fill="#393939"/>
</g>
<defs>
<clipPath id="clip0">
<rect width="24" height="24" fill="white" transform="translate(16.9706) rotate(45)"/>
</clipPath>
</defs>
</svg>
