<svg width="20" height="19" viewBox="0 0 20 19" fill="none" xmlns="http://www.w3.org/2000/svg">
<g clip-path="url(#clip0)">
<path d="M14.572 4.52436L6.60765 9.33707C6.15695 9.61005 5.94367 10.1492 6.08887 10.6479L6.95003 13.6166C7.02359 13.8698 7.25318 14.038 7.51733 14.038C7.53205 14.038 7.54691 14.0375 7.56181 14.0364C7.8442 14.0163 8.06766 13.8099 8.10522 13.5349L8.32913 11.907C8.35931 11.688 8.46688 11.4843 8.63175 11.3337L15.2041 5.33965C15.4027 5.15897 15.4289 4.86309 15.2653 4.65146C15.1013 4.43964 14.8035 4.38487 14.572 4.52436ZM8.10624 10.7795C7.81092 11.0492 7.61851 11.4136 7.5645 11.8057L7.45591 12.5954L6.83081 10.4403C6.78001 10.2658 6.85483 10.077 7.01255 9.98148L12.8471 6.45583L8.10624 10.7795Z" fill="#6B6B6B"/>
<path d="M19.0503 1.38724C18.8015 1.18032 18.4581 1.12336 18.154 1.23862L0.570382 7.89389C0.222145 8.02566 -0.00176717 8.34736 1.05078e-05 8.71345C0.00182601 9.07986 0.229029 9.39979 0.579308 9.52855L4.68651 11.0326L6.28865 16.0878C6.37663 16.3657 6.59869 16.5816 6.88259 16.6654C7.16634 16.7491 7.47278 16.6893 7.70184 16.5055L10.09 14.5954C10.2047 14.5036 10.3684 14.4991 10.4882 14.5844L14.7956 17.6526C14.9505 17.7632 15.1334 17.82 15.3184 17.82C15.4268 17.82 15.5359 17.8005 15.6405 17.7608C15.9237 17.6534 16.1296 17.4153 16.1912 17.1239L19.3468 2.23159C19.4131 1.91802 19.2995 1.5945 19.0503 1.38724ZM18.5914 2.07777L15.4359 16.9701C15.4245 17.0239 15.385 17.0462 15.3624 17.0548C15.3397 17.0634 15.2949 17.073 15.2491 17.0402L10.9415 13.9718C10.749 13.8347 10.5226 13.7666 10.2966 13.7666C10.05 13.7666 9.80385 13.8477 9.60263 14.0085L7.21396 15.9191C7.17144 15.9532 7.1273 15.9471 7.10484 15.9405C7.08222 15.9338 7.04186 15.9149 7.02545 15.8631L5.3671 10.6304C5.33166 10.5186 5.24542 10.4292 5.13362 10.3882L0.849591 8.81951C0.785443 8.79594 0.771789 8.74685 0.7716 8.70977C0.771411 8.67304 0.784573 8.62416 0.848116 8.60012L18.4318 1.94488C18.4318 1.94485 18.432 1.94481 18.4321 1.94477C18.4892 1.92314 18.5314 1.948 18.5516 1.9647C18.5718 1.98158 18.6039 2.01869 18.5914 2.07777Z" fill="#6B6B6B"/>
<path d="M16.1687 9.35679C15.9604 9.31241 15.755 9.4421 15.7098 9.64639L15.6512 9.91135C15.606 10.1156 15.7382 10.3172 15.9464 10.3615C15.9739 10.3674 16.0014 10.3702 16.0286 10.3702C16.2062 10.3702 16.366 10.2492 16.4052 10.072L16.4639 9.807C16.509 9.60271 16.3768 9.40117 16.1687 9.35679Z" fill="#6B6B6B"/>
<path d="M15.7829 11.1003C15.5744 11.0559 15.3692 11.1856 15.324 11.3899L14.4367 15.3996C14.3915 15.6039 14.5237 15.8054 14.7319 15.8498C14.7595 15.8556 14.787 15.8584 14.8141 15.8584C14.9917 15.8584 15.1515 15.7374 15.1907 15.5602L16.078 11.5505C16.1232 11.3462 15.9911 11.1446 15.7829 11.1003Z" fill="#6B6B6B"/>
</g>
<defs>
<clipPath id="clip0">
<rect width="19.3654" height="19" fill="white"/>
</clipPath>
</defs>
</svg>
