<svg width="27" height="26" viewBox="0 0 27 26" fill="none" xmlns="http://www.w3.org/2000/svg">
<g clip-path="url(#clip0)">
<path d="M6.37374 16.9756C4.95165 16.9756 3.79517 18.1321 3.79517 19.5542C3.79517 20.9763 4.95165 22.1328 6.37374 22.1328C7.79583 22.1328 8.95231 20.9763 8.95231 19.5542C8.95231 18.1321 7.79578 16.9756 6.37374 16.9756ZM6.37374 21.2732C5.42566 21.2732 4.65471 20.5022 4.65471 19.5542C4.65471 18.6061 5.42571 17.8352 6.37374 17.8352C7.32177 17.8352 8.09277 18.6062 8.09277 19.5542C8.09277 20.5022 7.32177 21.2732 6.37374 21.2732Z" fill="#1ACB56"/>
<path d="M20.9858 16.9756C19.5637 16.9756 18.4072 18.1321 18.4072 19.5542C18.4072 20.9763 19.5637 22.1328 20.9858 22.1328C22.4079 22.1328 23.5644 20.9763 23.5644 19.5542C23.5644 18.1321 22.4079 16.9756 20.9858 16.9756ZM20.9858 21.2732C20.0377 21.2732 19.2668 20.5022 19.2668 19.5542C19.2668 18.6061 20.0378 17.8352 20.9858 17.8352C21.9339 17.8352 22.7048 18.6062 22.7048 19.5542C22.7048 20.5022 21.9339 21.2732 20.9858 21.2732Z" fill="#1ACB56"/>
<path d="M26.0745 14.5943L22.2067 8.57761C22.1276 8.45467 21.9914 8.38034 21.8452 8.38034H17.1179C16.8802 8.38034 16.6881 8.57287 16.6881 8.81008V19.5541C16.6881 19.7918 16.8802 19.9839 17.1179 19.9839H18.8369V19.1243H17.5476V9.23988H21.6106L25.2833 14.9531V19.1244H23.1345V19.9839H25.7131C25.9507 19.9839 26.1428 19.7918 26.1428 19.5542V14.8268C26.1429 14.7447 26.1192 14.6634 26.0745 14.5943Z" fill="#1ACB56"/>
<path d="M19.2668 13.9673V10.959H22.705V10.0994H18.8371C18.5994 10.0994 18.4073 10.292 18.4073 10.5292V14.3971C18.4073 14.6347 18.5994 14.8268 18.8371 14.8268H25.2835V13.9673H19.2668V13.9673Z" fill="#1ACB56"/>
<path d="M17.1179 5.37203H0.786923C0.549714 5.37203 0.357178 5.56457 0.357178 5.80178V19.5542C0.357178 19.7918 0.549714 19.9839 0.786923 19.9839H4.22504V19.1244H1.21672V6.23152H16.6881V19.1244H8.52264V19.9839H17.1179C17.3556 19.9839 17.5476 19.7918 17.5476 19.5542V5.80178C17.5476 5.56457 17.3556 5.37203 17.1179 5.37203Z" fill="#1ACB56"/>
<path d="M3.36556 17.4054H0.786987V18.2649H3.36556V17.4054Z" fill="#1ACB56"/>
<path d="M16.6882 17.4054H9.3822V18.2649H16.6882V17.4054Z" fill="#1ACB56"/>
<path d="M25.7132 17.4054H23.9941V18.2649H25.7132V17.4054Z" fill="#1ACB56"/>
<path d="M17.1179 7.09105H2.07617V7.95059H17.1179V7.09105Z" fill="#1ACB56"/>
<path d="M6.80351 19.1244H5.94397V19.9839H6.80351V19.1244Z" fill="#1ACB56"/>
<path d="M21.4156 19.1244H20.556V19.9839H21.4156V19.1244Z" fill="#1ACB56"/>
<path d="M8.09286 3.653H2.07617V4.51254H8.09286V3.653Z" fill="#1ACB56"/>
<path d="M1.21672 3.653H0.357178V4.51254H1.21672V3.653Z" fill="#1ACB56"/>
</g>
<defs>
<clipPath id="clip0">
<rect width="25.7857" height="25.7857" fill="white" transform="translate(0.357178)"/>
</clipPath>
</defs>
</svg>
