<svg width="20" height="20" viewBox="0 0 20 20" fill="none" xmlns="http://www.w3.org/2000/svg">
<path d="M10.4099 16.6542C7.62559 17.7803 4.59244 17.6585 1.89316 16.3507C4.66767 16.1461 6.34202 14.725 6.4235 14.6545C6.54481 14.5493 6.58952 14.3805 6.53596 14.229C6.4824 14.0774 6.34141 13.9743 6.18088 13.969C5.08042 13.9316 4.19297 13.5174 3.54325 12.738C3.34473 12.4998 3.1984 12.2612 3.09433 12.0602C3.79425 12.0558 4.32267 11.9331 4.35089 11.9266C4.52652 11.8849 4.65088 11.7284 4.65149 11.5478C4.65226 11.3673 4.52912 11.2099 4.35379 11.167C2.21512 10.6433 1.68655 9.15236 1.56189 8.30534C2.24213 8.55406 2.83371 8.54567 2.86575 8.54506C3.03101 8.54155 3.17627 8.43443 3.2283 8.27757C3.28034 8.12056 3.228 7.94783 3.09754 7.84636C1.12365 6.30918 1.46484 4.50071 1.78818 3.64362C2.0578 3.9285 2.3555 4.21201 2.67792 4.49049C2.84119 4.63163 3.08777 4.61362 3.22891 4.45036C3.3699 4.28709 3.35205 4.0405 3.18878 3.89951C2.72888 3.50202 2.32437 3.09614 1.98639 2.693C1.90567 2.59671 1.7836 2.54499 1.65848 2.55429C1.5332 2.56345 1.41998 2.63242 1.35422 2.73938C1.33392 2.77234 0.856931 3.55939 0.773618 4.65589C0.714871 5.42906 0.847928 6.47062 1.63833 7.49342C1.54037 7.44932 1.4418 7.39775 1.34537 7.33793C1.2297 7.26622 1.0849 7.25981 0.963437 7.3213C0.841824 7.38264 0.761105 7.50288 0.750119 7.63869C0.747372 7.67363 0.685727 8.50645 1.07696 9.44884C1.31637 10.0259 1.76025 10.7188 2.58118 11.2566C2.5676 11.2553 2.55417 11.254 2.54059 11.2524C2.41226 11.2389 2.28561 11.2891 2.202 11.387C2.11822 11.485 2.08816 11.6179 2.12158 11.7424C2.12967 11.7725 2.32651 12.4863 2.91962 13.2098C3.3429 13.7263 4.03733 14.3262 5.09934 14.6011C4.19052 15.1059 2.56149 15.7562 0.42709 15.5562C0.248562 15.5399 0.0814777 15.6465 0.0221209 15.8159C-0.0373885 15.9851 0.0262408 16.1731 0.176082 16.2715C2.1257 17.5526 4.30542 18.2047 6.49583 18.2047C7.91352 18.2047 9.33595 17.9314 10.7027 17.3785C10.9027 17.2977 10.9993 17.07 10.9184 16.87C10.8376 16.6699 10.6099 16.5735 10.4099 16.6542Z" fill="#6B6B6B"/>
<path d="M19.897 3.8122C19.7837 3.68906 19.6049 3.65167 19.4519 3.71897C19.225 3.81891 19.004 3.90116 18.7964 3.96891C19.4387 3.19498 19.4917 2.59287 19.496 2.50314C19.5033 2.35422 19.425 2.21414 19.2942 2.14212C19.1636 2.07025 19.0034 2.07895 18.8813 2.1647C18.108 2.70807 17.1235 2.96747 16.6969 3.03919C15.8895 2.2616 14.8352 1.83588 13.7065 1.83588C11.3258 1.83588 9.38899 3.77268 9.38899 6.15336C9.38899 6.31846 9.39845 6.48371 9.41722 6.64759C8.0453 6.67414 6.6569 6.11262 5.69636 5.60969C5.50517 5.50959 5.26911 5.58359 5.16901 5.77463C5.06892 5.96583 5.14292 6.20188 5.33396 6.30198C6.48768 6.90577 8.21925 7.58601 9.91664 7.39756C10.0268 7.38535 10.1268 7.32676 10.1913 7.23643C10.2557 7.14625 10.2789 7.03287 10.2548 6.92454C10.1986 6.67231 10.1702 6.41276 10.1702 6.15336C10.1702 4.20343 11.7565 2.61713 13.7065 2.61713C14.6856 2.61713 15.5964 3.00836 16.2712 3.71897C16.3539 3.80609 16.4703 3.84882 16.5861 3.83921C16.8444 3.82288 17.5264 3.68952 18.2597 3.38373C18.0384 3.66968 17.7105 4.00019 17.2255 4.34259C17.082 4.44391 17.0237 4.62854 17.0831 4.7938C17.1426 4.9592 17.305 5.06449 17.4801 5.05121C17.5077 5.04908 17.9365 5.01474 18.5543 4.85407C18.2133 5.2244 17.8154 5.5691 17.4205 5.82575C17.3095 5.89792 17.2427 6.02106 17.2427 6.15336C17.2427 9.75611 15.7029 13.0322 13.018 15.1414C12.8485 15.2746 12.8189 15.5201 12.9522 15.6898C13.0293 15.7879 13.1439 15.8392 13.2597 15.8392C13.3441 15.8392 13.4292 15.8119 13.5008 15.7557C14.8718 14.6786 16.004 13.2765 16.7749 11.7007C17.5747 10.0657 17.994 8.27052 18.0224 6.36149C18.8037 5.81125 19.5472 5.0062 19.9522 4.26355C20.0323 4.11676 20.01 3.93534 19.897 3.8122Z" fill="#6B6B6B"/>
<path d="M11.7784 15.9847L11.7781 15.9848C11.5881 16.0872 11.5172 16.3239 11.6194 16.5138C11.69 16.6449 11.8246 16.7194 11.9638 16.7194C12.0263 16.7194 12.0898 16.7043 12.1487 16.6725C12.3387 16.5703 12.4096 16.3333 12.3074 16.1435C12.2052 15.9535 11.9682 15.8824 11.7784 15.9847Z" fill="#6B6B6B"/>
<path d="M3.95108 5.46962C4.01883 5.51646 4.09635 5.53904 4.17295 5.53904C4.29685 5.53904 4.41861 5.4803 4.49445 5.37074C4.61728 5.19328 4.57303 4.95005 4.39573 4.82722L4.39542 4.82707C4.21811 4.70423 3.97489 4.74864 3.85205 4.92595C3.72922 5.1034 3.77362 5.34678 3.95108 5.46962Z" fill="#6B6B6B"/>
</svg>
