<svg width="24" height="24" viewBox="0 0 24 24" fill="none" xmlns="http://www.w3.org/2000/svg">
<g clip-path="url(#clip0)">
<path d="M11.7058 11.4405C13.2775 11.4405 14.6383 10.8768 15.7505 9.76457C16.8623 8.65256 17.4262 7.29194 17.4262 5.72005C17.4262 4.1487 16.8625 2.78791 15.7503 1.67554C14.6381 0.563706 13.2773 0 11.7058 0C10.1339 0 8.77327 0.563706 7.66125 1.67572C6.54924 2.78773 5.98535 4.14852 5.98535 5.72005C5.98535 7.29194 6.54924 8.65274 7.66125 9.76475C8.77363 10.8766 10.1344 11.4405 11.7058 11.4405ZM8.64552 2.6598C9.49878 1.80654 10.4997 1.39178 11.7058 1.39178C12.9116 1.39178 13.9128 1.80654 14.7662 2.6598C15.6195 3.51324 16.0344 4.51436 16.0344 5.72005C16.0344 6.9261 15.6195 7.92704 14.7662 8.78048C13.9128 9.63392 12.9116 10.0487 11.7058 10.0487C10.5001 10.0487 9.49915 9.63374 8.64552 8.78048C7.79208 7.92722 7.37713 6.9261 7.37713 5.72005C7.37713 4.51436 7.79208 3.51324 8.64552 2.6598Z" fill="#D32F2F"/>
<path d="M21.715 18.2626C21.6829 17.7998 21.618 17.295 21.5225 16.7619C21.4261 16.2248 21.302 15.7171 21.1534 15.253C20.9998 14.7734 20.7912 14.2998 20.533 13.8459C20.2654 13.3747 19.9508 12.9645 19.5978 12.6269C19.2287 12.2738 18.7768 11.9898 18.2543 11.7827C17.7335 11.5767 17.1564 11.4723 16.539 11.4723C16.2966 11.4723 16.0621 11.5718 15.6093 11.8666C15.3306 12.0484 15.0047 12.2586 14.6408 12.491C14.3297 12.6893 13.9082 12.875 13.3876 13.0432C12.8797 13.2075 12.3641 13.2908 11.8549 13.2908C11.3461 13.2908 10.8304 13.2075 10.3221 13.0432C9.80209 12.8752 9.38045 12.6895 9.06987 12.4912C8.70947 12.2609 8.38331 12.0507 8.10046 11.8665C7.64801 11.5716 7.41354 11.4722 7.1711 11.4722C6.55357 11.4722 5.97664 11.5767 5.45606 11.7829C4.93384 11.9897 4.48175 12.2736 4.11229 12.6271C3.75932 12.9649 3.44476 13.3749 3.17731 13.8459C2.91946 14.2998 2.71072 14.7732 2.55707 15.2532C2.40867 15.7173 2.28455 16.2248 2.18815 16.7619C2.09248 17.2942 2.02779 17.7992 1.99572 18.2631C1.96419 18.7166 1.94824 19.1887 1.94824 19.6656C1.94824 20.9053 2.34235 21.909 3.11951 22.6492C3.88706 23.3796 4.9025 23.7499 6.13772 23.7499H17.5735C18.8084 23.7499 19.8238 23.3796 20.5915 22.6492C21.3689 21.9095 21.763 20.9055 21.763 19.6654C21.7628 19.1868 21.7467 18.7148 21.715 18.2626ZM19.6319 21.6408C19.1247 22.1235 18.4514 22.3582 17.5733 22.3582H6.13772C5.25946 22.3582 4.58612 22.1235 4.07913 21.641C3.58174 21.1675 3.34002 20.5212 3.34002 19.6656C3.34002 19.2205 3.3547 18.7811 3.38406 18.3593C3.41269 17.9455 3.47121 17.4908 3.55801 17.0078C3.64371 16.5307 3.75279 16.0829 3.88253 15.6776C4.00702 15.2889 4.1768 14.9041 4.38735 14.5333C4.5883 14.18 4.81951 13.8768 5.07463 13.6326C5.31327 13.4041 5.61406 13.2171 5.96848 13.0769C6.29627 12.9471 6.66465 12.8761 7.06455 12.8654C7.11329 12.8913 7.20009 12.9408 7.3407 13.0325C7.62681 13.2189 7.95659 13.4316 8.32116 13.6645C8.73212 13.9265 9.26158 14.1631 9.89414 14.3673C10.5408 14.5764 11.2004 14.6826 11.8551 14.6826C12.5097 14.6826 13.1695 14.5764 13.8158 14.3675C14.4489 14.163 14.9782 13.9265 15.3897 13.6641C15.7628 13.4257 16.0833 13.2191 16.3694 13.0325C16.51 12.941 16.5968 12.8913 16.6456 12.8654C17.0457 12.8761 17.414 12.9471 17.742 13.0769C18.0963 13.2171 18.397 13.4043 18.6357 13.6326C18.8908 13.8767 19.122 14.1798 19.323 14.5335C19.5337 14.9041 19.7037 15.2891 19.828 15.6774C19.9579 16.0833 20.0671 16.5308 20.1527 17.0076C20.2393 17.4916 20.298 17.9464 20.3266 18.3595V18.3599C20.3562 18.7801 20.371 19.2193 20.3712 19.6656C20.371 20.5214 20.1293 21.1675 19.6319 21.6408Z" fill="#D32F2F"/>
</g>
<defs>
<clipPath id="clip0">
<rect width="23.75" height="23.75" fill="white"/>
</clipPath>
</defs>
</svg>
