<svg width="26" height="26" viewBox="0 0 26 26" fill="none" xmlns="http://www.w3.org/2000/svg">
<g clip-path="url(#clip0)">
<path d="M25.2799 9.7804C25.5593 9.7804 25.7857 9.55396 25.7857 9.27461V5.84424C25.7857 5.56488 25.5593 5.33845 25.2799 5.33845H0.505791C0.226436 5.33845 0 5.56488 0 5.84424V9.27461C0 9.55396 0.226436 9.7804 0.505791 9.7804C2.23229 9.7804 3.63694 11.185 3.63694 12.9115C3.63694 14.638 2.23229 16.0427 0.505791 16.0427C0.226436 16.0427 0 16.2691 0 16.5485V19.9789C0 20.2582 0.226436 20.4846 0.505791 20.4846H5.00283C5.28218 20.4846 5.50862 20.2582 5.50862 19.9789C5.50862 19.6995 5.28218 19.4731 5.00283 19.4731H1.01158V17.0236C3.05816 16.7733 4.64852 15.0246 4.64852 12.9115C4.64852 10.7985 3.05816 9.04975 1.01158 8.79951V6.35003H18.3834V7.36142C18.3834 7.64077 18.6098 7.86721 18.8892 7.86721C19.1685 7.86721 19.395 7.64077 19.395 7.36142V6.35003H24.7741V8.79951C22.7276 9.04975 21.1372 10.7985 21.1372 12.9115C21.1372 15.0246 22.7276 16.7733 24.7741 17.0236V19.4731H19.395V18.4615C19.395 18.1821 19.1685 17.9559 18.8892 17.9559C18.6098 17.9559 18.3834 18.1821 18.3834 18.4615V19.4731H9.15598C8.87663 19.4731 8.65019 19.6995 8.65019 19.9789C8.65019 20.2582 8.87663 20.4846 9.15598 20.4846H25.2799C25.5593 20.4846 25.7857 20.2582 25.7857 19.9789V16.5485C25.7857 16.2691 25.5593 16.0427 25.2799 16.0427C23.5534 16.0427 22.1488 14.638 22.1488 12.9115C22.1488 11.185 23.5534 9.7804 25.2799 9.7804Z" fill="#FF9FA6"/>
<path d="M18.8892 15.2674C19.1686 15.2674 19.395 15.0409 19.395 14.7616V11.0615C19.395 10.7821 19.1686 10.5557 18.8892 10.5557C18.6099 10.5557 18.3834 10.7821 18.3834 11.0615V14.7616C18.3834 15.0409 18.6099 15.2674 18.8892 15.2674Z" fill="#FF9FA6"/>
<path d="M10.7706 12.1945C11.1455 11.8195 11.3521 11.3208 11.3521 10.7906C11.3521 10.2602 11.1455 9.76154 10.7706 9.38657C9.99642 8.61244 8.73677 8.61244 7.96264 9.38657C7.58767 9.76154 7.3811 10.2602 7.3811 10.7906C7.3811 11.3208 7.58767 11.8195 7.96264 12.1945C8.3498 12.5817 8.85815 12.775 9.36669 12.775C9.87504 12.775 10.3836 12.5817 10.7706 12.1945ZM8.39269 10.7906C8.39269 10.5304 8.494 10.2858 8.67794 10.1019C8.86779 9.91203 9.11724 9.81701 9.36669 9.81701C9.61615 9.81701 9.8654 9.91203 10.0552 10.1019C10.2394 10.2858 10.3407 10.5304 10.3407 10.7906C10.3407 11.0507 10.2394 11.2952 10.0552 11.4792C9.67556 11.8591 9.05763 11.8591 8.67794 11.4792C8.494 11.2952 8.39269 11.0507 8.39269 10.7906Z" fill="#FF9FA6"/>
<path d="M12.5015 13.8714C11.7272 14.6455 11.7272 15.9052 12.5015 16.6793C12.8885 17.0665 13.397 17.2601 13.9054 17.2601C14.4139 17.2601 14.9223 17.0665 15.3094 16.6793C16.0836 15.9052 16.0836 14.6455 15.3094 13.8714C14.5351 13.0973 13.2755 13.0975 12.5015 13.8714ZM14.5941 14.5867C14.9738 14.9664 14.9738 15.5843 14.5941 15.964C14.2144 16.3437 13.5965 16.3439 13.2168 15.964C12.8369 15.5843 12.8369 14.9664 13.2168 14.5867C13.4067 14.3969 13.6559 14.3018 13.9054 14.3018C14.1548 14.3018 14.4043 14.3969 14.5941 14.5867Z" fill="#FF9FA6"/>
<path d="M9.35316 16.0451L14.6212 10.777C14.8185 10.5795 14.8185 10.2592 14.6212 10.0617C14.4235 9.86421 14.1034 9.86421 13.9059 10.0617L8.63785 15.3297C8.45509 15.5125 8.44131 15.8141 8.60775 16.0122C8.79602 16.2363 9.146 16.252 9.35316 16.0451Z" fill="#FF9FA6"/>
<path d="M7.07022 19.468C6.85933 19.468 6.66634 19.6041 6.59473 19.8024C6.52312 20.0003 6.58529 20.2293 6.74798 20.3635C6.91107 20.4978 7.14557 20.5159 7.32735 20.4089C7.50893 20.3021 7.6069 20.0855 7.56677 19.8787C7.52132 19.6436 7.31004 19.468 7.07022 19.468Z" fill="#FF9FA6"/>
</g>
<defs>
<clipPath id="clip0">
<rect width="25.7857" height="25.7857" fill="white"/>
</clipPath>
</defs>
</svg>
