<svg width="10" height="10" viewBox="0 0 10 10" fill="none" xmlns="http://www.w3.org/2000/svg">
<g clip-path="url(#clip0)">
<g clip-path="url(#clip1)">
<path d="M9.12109 0.000457764H0.878906C0.394287 0.000457764 0 0.394745 0 0.879364V9.12155C0 9.60617 0.394287 10.0005 0.878906 10.0005H9.12109C9.60571 10.0005 10 9.60617 10 9.12155V0.879364C10 0.394745 9.60571 0.000457764 9.12109 0.000457764ZM9.41406 9.12155C9.41406 9.28307 9.28261 9.41452 9.12109 9.41452H0.878906C0.717392 9.41452 0.585938 9.28307 0.585938 9.12155V0.879364C0.585938 0.71785 0.717392 0.586395 0.878906 0.586395H9.12109C9.28261 0.586395 9.41406 0.71785 9.41406 0.879364V9.12155Z" fill="#393939"/>
<path d="M8.37891 2.33742C7.39671 1.6008 6.22826 1.2114 5.00001 1.2114C3.77175 1.2114 2.60331 1.6008 1.6211 2.33742C1.55892 2.38411 1.5178 2.45354 1.50681 2.53052C1.4959 2.6075 1.51597 2.6857 1.56266 2.74788L3.10921 4.80537C3.16682 4.88197 3.25471 4.92233 3.34367 4.92233C3.40478 4.92233 3.4665 4.90326 3.51922 4.86374C3.94967 4.54094 4.46168 4.37027 5.00001 4.37027C5.53826 4.37027 6.05035 4.54094 6.4808 4.86374C6.61012 4.96078 6.7936 4.93462 6.89072 4.80537L8.43728 2.74788C8.48405 2.6857 8.50411 2.6075 8.49313 2.53052C8.48222 2.45361 8.44109 2.38411 8.37891 2.33742ZM6.58997 4.23035C6.19477 3.98849 5.7544 3.84201 5.29298 3.79837V2.90543C5.29298 2.74361 5.16183 2.61246 5.00001 2.61246C4.83819 2.61246 4.70704 2.74361 4.70704 2.90543V3.79837C4.24561 3.84201 3.80524 3.98849 3.41004 4.23035L2.2123 2.63687C3.04002 2.08672 3.99781 1.79733 5.00001 1.79733C6.0022 1.79733 6.96 2.08672 7.78771 2.63687L6.58997 4.23035Z" fill="#393939"/>
</g>
</g>
<defs>
<clipPath id="clip0">
<rect width="10" height="10" fill="white" transform="translate(0 0.000457764)"/>
</clipPath>
<clipPath id="clip1">
<rect width="10" height="10" fill="white" transform="translate(0 0.000457764)"/>
</clipPath>
</defs>
</svg>
