<svg width="40" height="40" viewBox="0 0 40 40" fill="none" xmlns="http://www.w3.org/2000/svg">
<g clip-path="url(#clip0)">
<path d="M34.2857 0C28.5714 0 20.0001 3.63647 10.9091 12.7272L9.09102 14.5456C9.09102 20.0001 5.45455 20.0001 5.45455 20.0001C2.30313 24.7978 0 29.7909 0 34.5453C0 34.5453 0 39.9999 5.71422 39.9999C11.4284 39.9999 17.8355 36.3637 25.4547 29.0908C30.2164 24.5455 39.9999 12.7272 39.9999 5.45455C39.9999 5.45455 39.9999 0 34.2857 0V0Z" fill="#AD6143"/>
<path d="M30.2553 4.2896C27.8812 1.91555 19.7374 6.21087 12.0653 13.883C10.7576 15.1904 9.55738 16.5104 8.46241 17.8144C8.18343 18.428 7.7523 18.9603 7.2093 19.3598C2.73254 25.106 0.663451 30.2646 2.47187 32.073C4.84591 34.4471 12.9898 30.1521 20.6619 22.48C28.3343 14.8075 32.6293 6.66364 30.2553 4.2896Z" fill="#A34E2D"/>
<path d="M5.71396 40V36.3639C10.3285 36.3639 15.9642 33.1253 22.9439 26.4595C28.5475 21.1115 36.3638 10.5327 36.3638 5.45469H40C40 12.7523 30.0107 24.741 25.4547 29.0909C17.7663 36.4311 11.3087 40 5.71396 40Z" fill="#C28A73"/>
<path d="M25.3728 15.0034L23.608 14.5736C23.6949 14.2131 23.5957 13.9061 23.3027 13.6308C22.9438 13.2935 21.9354 12.7269 19.2205 12.7269C17.2303 12.7269 14.8243 13.0395 12.4449 13.6095L12.0224 11.841C14.5349 11.2391 17.0918 10.9088 19.2205 10.9088C21.8039 10.9088 23.5478 11.3653 24.5472 12.3061C25.3162 13.0272 25.6162 14.0106 25.3728 15.0034Z" fill="#993B17"/>
<path d="M8.11626 21.8052C7.38484 21.8095 6.65375 21.7639 5.92865 21.6683L6.18067 19.8679C8.63628 20.2052 12.603 19.7774 16.1895 18.7616L16.6833 20.5124C13.7732 21.3344 10.6498 21.8052 8.11626 21.8052Z" fill="#AD6143"/>
<path d="M11.083 13.9644C10.3778 14.1638 9.71301 14.3775 9.08879 14.6003C9.07014 18.4508 7.23343 19.5524 6.17874 19.8684C8.60372 20.2016 12.415 19.8294 16.1899 18.7624C21.5283 17.253 24.7127 14.9555 23.3024 13.6308C21.8922 12.3058 16.4217 12.4553 11.083 13.9644Z" fill="#FDCF6D"/>
<path d="M10.263 16.1191L9.69101 14.3932C10.1368 14.2457 10.6019 14.1003 11.0849 13.9654C13.8655 13.1787 16.8308 12.7276 19.2205 12.7276C20.387 12.7276 22.4681 12.8448 23.3027 13.6315L22.0563 14.9562C22.0526 14.9562 21.4384 14.546 19.2205 14.546C16.9906 14.546 14.2047 14.9722 11.5767 15.7159C11.1206 15.8438 10.6838 15.9789 10.263 16.1191Z" fill="#FDAB00"/>
<path d="M3.46927 28.0523L2.54608 26.4862C4.49033 25.343 7.26021 24.51 9.20446 24.1105C10.7316 23.7999 12.1927 23.6364 13.4339 23.6364C15.5113 23.6364 16.8839 24.0806 17.626 24.9948L16.2127 26.142C16.0456 25.9343 15.4404 25.4548 13.4339 25.4548C12.3116 25.4548 10.9766 25.6057 9.56834 25.8933C7.85148 26.2449 5.22175 27.0209 3.46927 28.0523Z" fill="#993B17"/>
<path d="M4.74769 32.7274C2.67027 32.7274 1.29798 32.2836 0.555573 31.369L1.96915 30.2221C2.13594 30.4299 2.74152 30.9093 4.74769 30.9093C5.86996 30.9093 7.2053 30.7581 8.61321 30.4705C12.1022 29.7567 16.051 28.1108 16.3476 26.6992L18.1267 27.0721C17.4236 30.4279 9.84002 32.0758 8.97709 32.2533C7.45033 32.5639 5.98881 32.7274 4.74769 32.7274Z" fill="#B7745A"/>
<path d="M16.3456 26.403C16.0657 25.2617 12.5907 25.1332 8.58397 26.1157C4.57729 27.0984 1.55638 28.8203 1.83604 29.9616C2.11602 31.1028 5.59103 31.2316 9.59771 30.2489C13.6044 29.2661 16.6256 27.5446 16.3456 26.403Z" fill="#FDCF6D"/>
<path d="M3.53525 30.2392L2.04178 29.2041C2.73259 28.2044 5.60734 26.7039 9.57041 25.8926C10.9747 25.6066 12.31 25.4541 13.4339 25.4541C14.7406 25.4541 15.4331 25.6545 15.7847 25.8217L15 27.4623C14.984 27.455 14.5898 27.2722 13.4339 27.2722C12.4309 27.2722 11.2217 27.4107 9.93595 27.6754C5.90897 28.4973 3.78028 29.9126 3.53525 30.2392Z" fill="#FDAB00"/>
<path d="M36.3086 3.43561L34.5294 3.06274C34.5754 2.86698 34.5261 2.6609 34.3963 2.50709C34.1459 2.19815 33.5493 1.97442 32.7184 1.87488L32.9314 0.0707932C34.2934 0.230594 35.2326 0.651404 35.8062 1.35819C36.2843 1.93647 36.4697 2.70285 36.3086 3.43561Z" fill="#A34E2D"/>
<path d="M22.9298 9.09065C20.8523 9.09065 19.4797 8.64653 18.7376 7.73234L20.1509 6.5851C20.3177 6.79284 20.9233 7.27224 22.9298 7.27224C24.0517 7.27224 25.387 7.12143 26.7949 6.83379L27.1572 8.61657C25.6321 8.92718 24.1709 9.09065 22.9298 9.09065Z" fill="#AD6143"/>
<path d="M34.5274 2.76663C34.2478 1.62538 30.7728 1.49654 26.7661 2.47932C22.7594 3.4621 19.7382 5.18362 20.0181 6.3252C20.2978 7.46645 23.7728 7.59495 27.7795 6.61251C31.7862 5.62973 34.8074 3.90788 34.5274 2.76663Z" fill="#FDCF6D"/>
<path d="M21.717 6.60303L20.2238 5.56766C20.9143 4.56823 23.7891 3.06777 27.7521 2.25644C29.1567 1.97047 30.4917 1.81766 31.6156 1.81766C32.9227 1.81766 33.6151 2.01841 33.9667 2.1852L33.1817 3.82582C33.1657 3.81883 32.7715 3.63606 31.6156 3.63606C30.6126 3.63606 29.4034 3.77456 28.118 4.03889C24.091 4.8612 21.962 6.27611 21.717 6.60303Z" fill="#FDAB00"/>
<path d="M32.7272 10C32.7272 9.49799 31.506 9.09116 29.9999 9.09116C28.4938 9.09116 27.2726 9.49799 27.2726 10C27.2726 10.5021 28.4938 10.9092 29.9999 10.9092C31.506 10.9092 32.7272 10.5021 32.7272 10Z" fill="#A34E2D"/>
<path d="M27.2726 19.9996C27.2726 18.9952 26.0515 18.1812 24.5454 18.1812C23.0392 18.1812 21.8181 18.9952 21.8181 19.9996C21.8181 21.0037 23.0392 21.8176 24.5454 21.8176C26.0515 21.8176 27.2726 21.0037 27.2726 19.9996Z" fill="#A34E2D"/>
<path d="M7.27263 36.3631C7.27263 35.3587 6.05182 34.5447 4.54536 34.5447C3.03923 34.5447 1.81808 35.3587 1.81808 36.3631C1.81808 37.3672 3.03923 38.1812 4.54536 38.1812C6.05182 38.1812 7.27263 37.3672 7.27263 36.3631Z" fill="#C28A73"/>
<path d="M38.1818 5.45455C38.1818 6.45864 37.3678 7.27262 36.3637 7.27262C35.3593 7.27262 34.5453 6.45864 34.5453 5.45455C34.5453 4.45046 35.3593 3.63647 36.3637 3.63647C37.3678 3.63647 38.1818 4.45046 38.1818 5.45455Z" fill="#C28A73"/>
<path d="M36.3638 12.7269C36.3638 11.7228 35.1427 10.9088 33.6365 10.9088C32.1301 10.9088 30.9093 11.7228 30.9093 12.7269C30.9093 13.7313 32.1301 14.5453 33.6365 14.5453C35.1427 14.5453 36.3638 13.7313 36.3638 12.7269Z" fill="#A34E2D"/>
<path d="M23.6363 26.363C23.6363 25.8609 22.8223 25.4541 21.8182 25.4541C20.8141 25.4541 20.0002 25.8609 20.0002 26.363C20.0002 26.865 20.8141 27.2722 21.8182 27.2722C22.8223 27.2722 23.6363 26.865 23.6363 26.363Z" fill="#A34E2D"/>
<path d="M10.9091 32.7275C10.9091 31.7234 9.28112 30.9094 7.27262 30.9094C5.26445 30.9094 3.63647 31.7234 3.63647 32.7275C3.63647 33.7316 5.26445 34.5456 7.27262 34.5456C9.28112 34.5456 10.9091 33.7316 10.9091 32.7275Z" fill="#B7745A"/>
<path d="M21.8179 20.9083C21.8179 20.4062 21.0039 19.9994 19.9999 19.9994C18.9954 19.9994 18.1815 20.4062 18.1815 20.9083C18.1815 21.4103 18.9954 21.8175 19.9999 21.8175C21.0039 21.8175 21.8179 21.4103 21.8179 20.9083Z" fill="#993B17"/>
<path d="M18.1816 23.6357C18.1816 22.6316 16.9608 21.8177 15.4543 21.8177C13.9482 21.8177 12.7271 22.6316 12.7271 23.6357C12.7271 24.6401 13.9482 25.4541 15.4543 25.4541C16.9608 25.4541 18.1816 24.6401 18.1816 23.6357Z" fill="#993B17"/>
<path d="M27.2725 11.818C27.2725 11.316 26.4585 10.9088 25.4544 10.9088C24.45 10.9088 23.636 11.316 23.636 11.818C23.636 12.3201 24.45 12.7269 25.4544 12.7269C26.4585 12.7269 27.2725 12.3201 27.2725 11.818Z" fill="#993B17"/>
<path d="M29.0909 15.4542C29.0909 14.9521 28.2769 14.5453 27.2728 14.5453C26.2687 14.5453 25.4547 14.9521 25.4547 15.4542C25.4547 15.9562 26.2687 16.3634 27.2728 16.3634C28.2769 16.3634 29.0909 15.9562 29.0909 15.4542Z" fill="#A34E2D"/>
</g>
<defs>
<clipPath id="clip0">
<rect width="40" height="40" fill="white"/>
</clipPath>
</defs>
</svg>
