<svg width="38" height="38" viewBox="0 0 38 38" fill="none" xmlns="http://www.w3.org/2000/svg">
<path d="M18.8001 1.06562L18.79 1.10042C10.7733 1.85545 4.63051 6.1476 4.63051 11.3294C4.63051 13.2283 5.45589 15.0077 6.89603 16.5374C7.02903 16.6786 7.10221 16.866 7.10221 17.06V37.0172H2.8552C2.64337 37.0172 2.47163 36.8454 2.47163 36.6336V17.06C2.47163 16.866 2.39845 16.6786 2.26545 16.5374C0.825387 15.0078 0 13.2283 0 11.3294C0 5.61485 7.46997 0.982788 16.6846 0.982788C17.4008 0.982788 18.107 1.01062 18.8001 1.06562Z" fill="#BF5732"/>
<path d="M38 11.3294C38 5.6152 30.53 0.98291 21.3152 0.98291C12.1004 0.98291 4.63043 5.6152 4.63043 11.3294C4.63043 13.2283 5.45612 15.0076 6.89611 16.5372C7.02903 16.6785 7.10229 16.8658 7.10229 17.0597V37.0169H35.1447C35.3565 37.0169 35.5282 36.8452 35.5282 36.6334V17.0598C35.5282 16.8658 35.6014 16.6785 35.7344 16.5373C37.1743 15.0076 38 13.2284 38 11.3294Z" fill="#E59770"/>
<path d="M37.9996 11.3297C37.9996 13.2283 37.1742 15.0072 35.7344 16.5376C35.6017 16.6787 35.5281 16.8659 35.5281 17.06V36.6334C35.5281 36.8452 35.3563 37.017 35.1445 37.017H33.5681V17.06C33.5681 16.8659 33.641 16.6787 33.7744 16.5376C35.2143 15.0072 36.0397 13.2283 36.0397 11.3297C36.0397 5.81881 29.0935 1.31515 20.3355 1.00068C20.6592 0.989177 20.986 0.983017 21.3151 0.983017C30.5303 0.983017 37.9996 5.61479 37.9996 11.3297Z" fill="#DB7E56"/>
<path d="M24.4095 4.65703C22.6367 3.95084 20.6399 3.74941 18.7567 4.05244C16.5474 4.40802 14.4333 5.44493 12.8911 7.08042C10.031 10.1137 9.36121 15.032 11.3894 18.6745C13.4128 22.3085 17.5369 24.2552 21.5775 25.2422C23.0684 25.6064 24.6025 25.8733 26.133 25.7607C27.6636 25.648 29.2023 25.1269 30.326 24.0816C31.7845 22.7251 32.3851 20.5163 31.8142 18.6081C31.4688 17.4537 30.6484 16.6893 30.1992 15.6757C29.7984 14.7712 30.0319 13.5986 29.9036 12.6382C29.7173 11.2456 29.5586 9.82406 28.8694 8.57177C27.8891 6.79096 26.2957 5.40842 24.4095 4.65703Z" fill="#F9E8D4"/>
<path d="M30.3263 24.082C29.2025 25.1268 27.6637 25.6477 26.1333 25.7605C25.5266 25.805 24.9189 25.7904 24.3145 25.7329C25.7428 25.5764 27.1543 25.0579 28.2037 24.0821C29.662 22.7251 30.2626 20.5166 29.6919 18.608C29.3467 17.4536 28.5259 16.6895 28.0764 15.6762C27.6759 14.771 27.9091 13.5989 27.781 12.6385C27.5946 11.2462 27.4359 9.82395 26.747 8.57202C25.7666 6.79085 24.1733 5.40852 22.287 4.65676C21.3734 4.29242 20.3999 4.06301 19.4127 3.96712C21.098 3.80221 22.8416 4.03236 24.4096 4.65676C26.2959 5.40852 27.8892 6.79085 28.8695 8.57202C29.5584 9.82395 29.7172 11.2461 29.9036 12.6385C30.0317 13.5989 29.7985 14.771 30.1989 15.6762C30.6485 16.6895 31.4685 17.4536 31.8145 18.608C32.3852 20.5166 31.7845 22.725 30.3263 24.082Z" fill="#E8D0BA"/>
<path d="M21.1227 14.6163C23.1269 14.6163 24.7517 12.9916 24.7517 10.9873C24.7517 8.98309 23.1269 7.35833 21.1227 7.35833C19.1184 7.35833 17.4937 8.98309 17.4937 10.9873C17.4937 12.9916 19.1184 14.6163 21.1227 14.6163Z" fill="#FEC007"/>
<path d="M24.224 12.8716C23.1838 14.5845 20.9515 15.1299 19.2385 14.089C18.4967 13.6387 17.9744 12.966 17.7051 12.2081C17.7987 12.2786 17.8969 12.3454 17.9997 12.4075C19.7127 13.4477 21.9449 12.9023 22.9851 11.1893C23.575 10.2174 23.6555 9.07901 23.3011 8.08485C24.7793 9.191 25.2028 11.2607 24.224 12.8716Z" fill="#EFAD0A"/>
<path d="M15.5092 31.0864L19.3318 17.4829C19.389 17.279 19.6009 17.1602 19.8047 17.2175L23.0408 18.1268C23.2038 18.1726 23.3194 18.3199 23.3202 18.4893C23.3229 19.0502 23.4625 19.6192 23.7534 20.1466C24.6405 21.7551 26.6662 22.3952 28.3159 21.5875C28.9298 21.2869 29.4136 20.8314 29.7457 20.293C29.8342 20.1494 30.0098 20.085 30.1722 20.1306L33.4083 21.04C33.6123 21.0973 33.7311 21.3091 33.6738 21.513L29.8512 35.1165C29.7939 35.3204 29.5822 35.4393 29.3782 35.382L15.7747 31.5594C15.5707 31.5021 15.4518 31.2903 15.5092 31.0864Z" fill="#FEC007"/>
<path d="M33.6739 21.513L29.8514 35.1161C29.7939 35.3201 29.5822 35.439 29.3781 35.3822L28.4086 35.1099C28.4393 35.0708 28.463 35.0248 28.4776 34.9742L32.4043 20.9975C32.4273 20.9147 32.4227 20.8303 32.3944 20.7551L33.4085 21.0398C33.6118 21.0973 33.7307 21.3089 33.6739 21.513Z" fill="#EFAD0A"/>
<path d="M26.5087 31.3157C26.8898 31.3157 27.1988 31.0068 27.1988 30.6256C27.1988 30.2445 26.8898 29.9355 26.5087 29.9355C26.1276 29.9355 25.8186 30.2445 25.8186 30.6256C25.8186 31.0068 26.1276 31.3157 26.5087 31.3157Z" fill="#EFAD0A"/>
<path d="M21.9331 24.138C22.3142 24.138 22.6232 23.8291 22.6232 23.4479C22.6232 23.0668 22.3142 22.7578 21.9331 22.7578C21.552 22.7578 21.243 23.0668 21.243 23.4479C21.243 23.8291 21.552 24.138 21.9331 24.138Z" fill="#EFAD0A"/>
<path d="M26.5607 28.3959C26.9418 28.3959 27.2507 28.087 27.2507 27.7059C27.2507 27.3247 26.9418 27.0158 26.5607 27.0158C26.1795 27.0158 25.8706 27.3247 25.8706 27.7059C25.8706 28.087 26.1795 28.3959 26.5607 28.3959Z" fill="#EFAD0A"/>
<path d="M18.2964 32.5475C18.4933 32.495 18.6183 32.3028 18.5888 32.1011C18.414 30.9027 19.1962 30.5718 18.8303 29.2003C18.4312 27.7044 17.4643 27.9623 17.0653 26.4664C16.6662 24.9704 17.633 24.7124 17.2339 23.2165C16.8349 21.7206 15.868 21.9785 15.4689 20.4826C15.0698 18.9867 16.0367 18.7287 15.6376 17.2327C15.2384 15.7367 14.2716 15.9947 13.8724 14.4987C13.4733 13.0026 14.4402 12.7446 14.0411 11.2485C13.6752 9.87691 12.832 9.97963 12.3866 8.85321C12.3117 8.66365 12.1077 8.55923 11.9107 8.6117L3.71567 10.798C3.47669 10.8617 3.35341 11.1245 3.45427 11.3504C3.90901 12.369 4.71109 12.3145 5.06556 13.643C5.46471 15.1391 4.49779 15.397 4.89694 16.8931C5.29609 18.3891 6.26293 18.1311 6.66208 19.6272C7.06116 21.1231 6.09431 21.3811 6.49338 22.8771C6.89246 24.3729 7.85938 24.115 8.25845 25.6109C8.65753 27.1069 7.69068 27.3648 8.08975 28.8608C8.48883 30.3567 9.45575 30.0988 9.85483 31.5948C10.2092 32.9232 9.48648 33.2753 9.59959 34.385C9.62467 34.6311 9.8624 34.7976 10.1015 34.7338L18.2964 32.5475Z" fill="#F75267"/>
<path d="M9.5161 18.4752C9.96378 20.1533 8.87893 20.4427 9.32669 22.1212C9.77438 23.7993 10.8592 23.5098 11.3071 25.1884C11.7548 26.8665 10.6699 27.1558 11.1177 28.8344C11.5655 30.5129 12.6504 30.2235 13.098 31.9015C13.3605 32.8854 13.0963 33.3919 12.9231 33.9808L11.3601 34.3977C11.5334 33.8088 11.7976 33.3023 11.5351 32.3185C11.0874 30.6404 10.0025 30.9299 9.55469 29.2513C9.10685 27.5728 10.1917 27.2834 9.7441 25.6053C9.29626 23.9268 8.2114 24.2162 7.76372 22.5382C7.31588 20.8596 8.40074 20.5702 7.95312 18.8922C7.50529 17.2136 6.42043 17.503 5.97267 15.8245C5.52483 14.146 6.60969 13.8565 6.16208 12.1785C5.89964 11.1947 5.41811 10.8866 4.9745 10.4622L6.53747 10.0452C6.98108 10.4696 7.46254 10.7777 7.72505 11.7615C8.17274 13.4396 7.08788 13.729 7.53564 15.4075C7.98348 17.0861 9.06833 16.7967 9.5161 18.4752Z" fill="#ED2E4E"/>
<path d="M15.6377 17.2326C16.0367 18.7284 15.0698 18.9863 15.469 20.4826C15.868 21.9784 16.8349 21.7204 17.234 23.2162C17.6331 24.7125 16.6663 24.9705 17.0653 26.4663C17.4643 27.9621 18.4312 27.7041 18.8304 29.2004C19.1963 30.572 18.414 30.9028 18.5887 32.1012C18.6181 32.3025 18.4934 32.4948 18.2961 32.5474L16.7331 32.9644C16.9304 32.9118 17.0552 32.7195 17.0258 32.5181C16.8511 31.3198 17.6333 30.9889 17.2674 29.6174C16.8683 28.1211 15.9014 28.379 15.5023 26.8832C15.1032 25.3874 16.0701 25.1295 15.671 23.6332C15.2719 22.1374 14.3051 22.3954 13.906 20.8996C13.5068 19.4033 14.4737 19.1453 14.0747 17.6495C13.6757 16.1537 12.7088 16.4117 12.3095 14.9154C11.9105 13.4196 12.8774 13.1617 12.4782 11.6653C12.1123 10.2938 11.2692 10.3965 10.8237 9.26993C10.7489 9.08067 10.5449 8.9761 10.3476 9.02872L11.9106 8.61176C12.1079 8.55913 12.3118 8.66371 12.3867 8.85297C12.8322 9.97953 13.6753 9.87681 14.0412 11.2484C14.4404 12.7446 13.4735 13.0026 13.8725 14.4984C14.2717 15.9947 15.2386 15.7368 15.6377 17.2326Z" fill="#ED2E4E"/>
<path d="M6.56992 10.0366L9.69593 9.2026C10.1395 9.62698 10.621 9.93506 10.8835 10.9189C11.3312 12.597 10.2463 12.8864 10.6941 14.5649C11.1419 16.2434 12.2268 15.9541 12.6746 17.6326C13.1222 19.3107 12.0374 19.6 12.4851 21.2786C12.9328 22.9567 14.0177 22.6672 14.4655 24.3457C14.9132 26.0238 13.8284 26.3132 14.2761 27.9917C14.724 29.6703 15.8088 29.3809 16.2565 31.0589C16.5189 32.0427 16.2548 32.5492 16.0816 33.1381L12.9555 33.9721C13.1288 33.3832 13.393 32.8767 13.1305 31.8929C12.6828 30.2148 11.5979 30.5043 11.1501 28.8257C10.7023 27.1472 11.7872 26.8578 11.3395 25.1797C10.8917 23.5012 9.80682 23.7906 9.35913 22.1126C8.91129 20.434 9.99622 20.1446 9.54854 18.4666C9.1007 16.7881 8.01584 17.0774 7.56808 15.3989C7.12025 13.7204 8.20518 13.4309 7.75749 11.7529C7.49498 10.7691 7.01352 10.4609 6.56992 10.0366Z" fill="#F9E8D4"/>
<path d="M12.6746 17.6326C13.1222 19.3107 12.0374 19.6 12.4851 21.2786C12.9328 22.9567 14.0177 22.6672 14.4655 24.3457C14.9132 26.0238 13.8284 26.3132 14.2761 27.9917C14.724 29.6703 15.8088 29.3809 16.2565 31.0589C16.5189 32.0427 16.2548 32.5492 16.0816 33.1381L14.5186 33.5551C14.6919 32.9662 14.956 32.4596 14.6935 31.4759C14.2458 29.7978 13.161 30.0872 12.7131 28.4087C12.2653 26.7302 13.3502 26.4407 12.9026 24.7627C12.4547 23.0842 11.3699 23.3736 10.9222 21.6955C10.4743 20.017 11.5592 19.7276 11.1116 18.0495C10.6637 16.371 9.57889 16.6604 9.13113 14.9819C8.6833 13.3033 9.76815 13.0139 9.32054 11.3359C9.0581 10.352 8.57657 10.0439 8.13297 9.61956L9.69594 9.2026C10.1395 9.62698 10.621 9.93506 10.8835 10.9189C11.3312 12.597 10.2463 12.8864 10.6941 14.5649C11.1419 16.2434 12.2267 15.9541 12.6746 17.6326Z" fill="#E8D0BA"/>
</svg>
