<svg width="40" height="40" viewBox="0 0 40 40" fill="none" xmlns="http://www.w3.org/2000/svg">
<g clip-path="url(#clip0)">
<path d="M15.4301 27.1236C17.3546 23.7902 14.9489 19.6236 11.1 19.6236H1.97852C1.11108 19.6236 0.124684 20.0122 0.17904 20.8779C0.566206 27.0079 3.81205 32.5717 8.88414 35.9555C9.25112 36.2004 9.71865 36.3031 10.1856 36.2054C10.1858 36.2053 10.1861 36.2055 10.1861 36.2057C10.1862 36.206 10.1865 36.206 10.1866 36.2057L15.4301 27.1236Z" fill="#FFA000"/>
<path d="M10.1864 3.04156C10.1863 3.04142 10.186 3.04141 10.1859 3.04153C10.1858 3.04157 10.1857 3.04162 10.1857 3.04161C9.73716 2.94762 9.26499 3.03745 8.88414 3.29165C3.81655 6.67285 0.566505 12.2342 0.17904 18.3693C0.124684 19.235 1.11108 19.6236 1.97852 19.6236H13.6904C16.3881 19.6236 18.0741 16.7033 16.7252 14.3671L10.1864 3.04156Z" fill="#FFA000"/>
<path d="M28.6551 4.2172C29.0873 3.46866 29.2452 2.4228 28.4709 2.03852C22.9967 -0.67853 16.5284 -0.680626 11.0497 2.03852C10.2753 2.42258 10.4333 3.46868 10.8655 4.21725L15.4301 12.1235C17.3546 15.4569 22.1658 15.4569 24.0903 12.1236L28.6551 4.2172Z" fill="#FFA000"/>
<path d="M10.8655 35.0299C10.4333 35.7785 10.2753 36.8246 11.0497 37.2087C16.5236 39.9254 22.9922 39.9278 28.4709 37.2087C29.3582 36.7685 29.6845 35.6636 29.1896 34.8057L20.8772 20.4089C20.7977 20.2711 20.6832 20.1566 20.5454 20.077C20.1117 19.8266 19.5572 19.9752 19.3068 20.4089L10.8655 35.0299Z" fill="#FFA000"/>
<path d="M39.3413 18.3693C38.9544 12.239 35.7083 6.67554 30.6365 3.29165C30.2557 3.0375 29.7836 2.94765 29.3349 3.04156C29.3347 3.04159 29.3345 3.04137 29.3344 3.04123C29.3343 3.04108 29.3342 3.04118 29.3341 3.04133L20.2135 18.8384C19.9632 19.2721 20.1117 19.8266 20.5454 20.077C20.6832 20.1566 20.8396 20.1985 20.9988 20.1985H37.6195C38.6128 20.1985 39.4039 19.3589 39.3413 18.3693Z" fill="#FFA000"/>
<path d="M16.7971 19.6236C16.186 19.6236 15.6212 19.9497 15.3156 20.479L8.23095 32.7501C7.59864 33.8453 7.83217 35.2537 8.88417 35.9555C9.25125 36.2005 9.71891 36.3032 10.1857 36.2053C10.1858 36.2053 10.1859 36.2053 10.1859 36.2054C10.1861 36.2056 10.1864 36.2056 10.1865 36.2054L18.2786 22.1897C18.9371 21.0492 18.114 19.6236 16.7971 19.6236Z" fill="#F57C00"/>
<path d="M10.1864 3.04156C10.1863 3.04142 10.186 3.04141 10.1859 3.04153C10.1858 3.04157 10.1857 3.04162 10.1857 3.04161C9.73716 2.94762 9.26499 3.03745 8.88414 3.29165C8.58296 3.49244 8.49803 3.89402 8.67902 4.2075L12.3644 10.5908C14.2889 13.9241 11.8833 18.0908 8.03429 18.0908H0.480232C0.322591 18.0908 0.189189 18.212 0.17904 18.3693C0.124684 19.235 1.11108 19.6236 1.97852 19.6236H13.6904C16.3881 19.6236 18.0741 16.7033 16.7252 14.3671L10.1864 3.04156Z" fill="#F57C00"/>
<path d="M28.471 2.03852C27.8162 1.7137 27.1492 1.4283 26.4715 1.18117C26.3318 1.13022 26.194 1.30412 26.2461 1.44343C26.2612 1.48387 26.2563 1.52928 26.2348 1.56668L18.2787 15.3469C17.9731 15.8762 17.9731 16.5283 18.2787 17.0576C18.9372 18.1981 20.5832 18.1981 21.2417 17.0576L28.6552 4.2172C29.0874 3.46866 29.2452 2.42279 28.471 2.03852Z" fill="#F57C00"/>
<path d="M39.3413 18.3693C38.9544 12.239 35.7083 6.67554 30.6365 3.29165C30.2557 3.0375 29.7836 2.94765 29.3349 3.04156C29.3347 3.04159 29.3345 3.04137 29.3344 3.04123C29.3343 3.04108 29.3342 3.04118 29.3341 3.04133L29.3235 3.05961C29.3195 3.06653 29.3211 3.07534 29.3272 3.08049C33.4706 6.57679 35.9412 11.5392 36.2757 16.8365C36.338 17.8258 35.5472 18.6654 34.5536 18.6654H20.7185C20.4679 18.6654 20.2363 18.7991 20.111 19.0161C19.9173 19.3516 20.0322 19.7807 20.3677 19.9744L20.5454 20.077C20.6832 20.1566 20.8396 20.1985 20.9988 20.1985H37.6195C38.6128 20.1985 39.4039 19.3589 39.3413 18.3693Z" fill="#F57C00"/>
<path d="M6.69305 19.6236C5.13568 19.6236 3.54128 20.9022 3.8103 22.4362C3.9732 23.3665 4.51127 24.1908 4.82718 25.0586C5.14877 25.9422 5.26914 26.9184 5.73386 27.7214C6.20307 28.5323 6.99087 29.1228 7.58974 29.8357C8.1904 30.5505 8.63626 31.4284 9.351 32.0288C10.5429 33.03 12.4466 32.2909 13.225 30.9428L15.43 27.1236C17.3545 23.7903 14.9489 19.6236 11.0999 19.6236H6.69305Z" fill="#FFE082"/>
<path d="M16.7971 19.6236C16.1859 19.6236 15.6212 19.9497 15.3156 20.479L9.21929 31.0385C9.03068 31.3652 9.06216 31.7861 9.35098 32.0288C10.5429 33.03 12.4466 32.2909 13.225 30.9428L18.2786 22.1896C18.9371 21.0492 18.114 19.6236 16.7971 19.6236Z" fill="#FFCA28"/>
<path d="M13.2257 30.9416C12.4467 32.2908 12.7565 34.3119 14.2204 34.8446C15.0885 35.1605 16.07 35.1087 17.0006 35.2716C17.9055 35.4303 18.8101 35.8172 19.7602 35.8172C20.7106 35.8172 21.6152 35.4303 22.5201 35.2716C23.4504 35.1087 24.4323 35.1605 25.3003 34.8446C25.7366 34.6856 26.1327 34.441 26.5184 34.1778C27.1831 33.7248 27.3894 32.8387 26.9873 32.142C26.3046 30.9595 25.2169 29.0753 24.0904 27.124C22.1659 23.7906 17.3545 23.7904 15.43 27.1237L13.2257 30.9416Z" fill="#FFE082"/>
<path d="M13.225 8.30442C12.4466 6.95633 10.5429 6.2172 9.351 7.21841C8.63596 7.81877 8.1901 8.69671 7.58974 9.41175C6.99087 10.1247 6.20277 10.7152 5.73386 11.5257C5.26914 12.3288 5.14877 13.3053 4.82718 14.1886C4.51127 15.0567 3.9732 15.8807 3.8103 16.811C3.54128 18.345 5.13568 19.6236 6.69305 19.6236H11.0999C14.9489 19.6236 17.3545 15.4569 15.43 12.1236L13.225 8.30442Z" fill="#FFE082"/>
<path d="M12.2821 6.67133C12.0243 6.22492 11.4505 6.06596 10.984 6.28535C10.5087 6.50888 10.3394 7.083 10.602 7.53784L15.3672 15.7915C15.9571 16.8134 15.2196 18.0908 14.0395 18.0908H4.56916C4.13944 18.0908 3.80557 18.453 3.83901 18.8815C3.87089 19.29 4.20533 19.6236 4.61507 19.6236H11.0999C14.9489 19.6236 17.3545 15.4569 15.43 12.1236L12.2821 6.67133Z" fill="#FFCA28"/>
<path d="M27.7048 5.86264C27.7048 5.86261 27.7047 5.86258 27.7047 5.86256C26.9016 5.39784 26.1836 4.72414 25.3003 4.40256C24.9458 4.27347 24.5655 4.45784 24.3769 4.78454L18.2787 15.3469C17.9731 15.8762 17.9731 16.5284 18.2787 17.0576C18.9372 18.1981 20.5832 18.1981 21.2417 17.0576L27.7049 5.86321C27.705 5.86302 27.7049 5.86279 27.7048 5.86264Z" fill="#FFCA28"/>
<path d="M34.4866 21.4539C34.4866 20.4431 35.6279 19.5034 35.714 18.4962C35.7631 17.9243 35.8062 17.3581 35.7104 16.811C35.5475 15.8807 35.0091 15.0564 34.6932 14.1886C34.3716 13.305 34.2515 12.3288 33.7868 11.5254C33.3176 10.7149 32.5298 10.1244 31.9309 9.41145C31.3303 8.69641 30.8844 7.81877 30.1694 7.21841C28.9776 6.2169 27.0738 6.95627 26.2954 8.30443L22.214 15.3735C21.1234 17.2624 22.4866 19.6236 24.6678 19.6236C26.2326 19.6236 27.5011 20.8921 27.5011 22.457V23.4605C27.5008 24.245 28.1368 24.8807 28.9213 24.8807C29.8286 24.8807 30.429 24.1837 30.429 23.4168V22.8895C30.429 22.3859 30.8374 21.9777 31.341 21.9777C31.8447 21.9777 32.2531 22.3859 32.2531 22.8895V26.9866C32.2531 27.6035 32.7532 28.1035 33.3697 28.1035C33.9865 28.1035 34.4866 27.6035 34.4866 26.9866V21.4539Z" fill="#FFE082"/>
<path d="M13.2248 27.0567C13.2248 28.3152 12.2049 29.3354 10.9464 29.3354C9.6879 29.3354 8.66803 28.3152 8.66803 27.0567C8.66803 25.7985 9.6879 24.7783 10.9464 24.7783C12.2049 24.7783 13.2248 25.7985 13.2248 27.0567Z" fill="#EF5350"/>
<path d="M15.0998 15.3205C15.0998 16.579 14.0796 17.5991 12.8211 17.5991C11.5629 17.5991 10.5427 16.579 10.5427 15.3205C10.5427 14.0622 11.5629 13.0421 12.8211 13.0421C14.0796 13.0421 15.0998 14.0622 15.0998 15.3205Z" fill="#EF5350"/>
<path d="M19.8838 7.5996C19.8838 8.85812 18.8637 9.87828 17.6052 9.87828C16.3466 9.87828 15.3268 8.85812 15.3268 7.5996C15.3268 6.34139 16.3466 5.32122 17.6052 5.32122C18.8637 5.32122 19.8838 6.34139 19.8838 7.5996Z" fill="#EF5350"/>
<path d="M29.8926 10.42C29.8926 11.0491 29.3824 11.5593 28.7533 11.5593C28.1242 11.5593 27.614 11.0491 27.614 10.42C27.614 9.79055 28.1242 9.28062 28.7533 9.28062C29.3824 9.28062 29.8926 9.79055 29.8926 10.42Z" fill="#FF6F00"/>
<path d="M26.2261 16.3367C26.2261 16.9659 25.7161 17.4761 25.0867 17.4761C24.4576 17.4761 23.9477 16.9659 23.9477 16.3367C23.9477 15.7076 24.4576 15.1974 25.0867 15.1974C25.7161 15.1974 26.2261 15.7076 26.2261 16.3367Z" fill="#FF6F00"/>
<path d="M24.8894 7.00192C24.8894 7.63133 24.3795 8.14126 23.7501 8.14126C23.121 8.14126 22.611 7.63133 22.611 7.00192C22.611 6.37281 23.121 5.86288 23.7501 5.86288C24.3795 5.86288 24.8894 6.37281 24.8894 7.00192Z" fill="#FF6F00"/>
<path d="M20.8995 13.3056C20.8995 13.9347 20.3896 14.4446 19.7602 14.4446C19.1311 14.4446 18.6212 13.9347 18.6212 13.3056C18.6212 12.6762 19.1311 12.1662 19.7602 12.1662C20.3896 12.1662 20.8995 12.6762 20.8995 13.3056Z" fill="#FF6F00"/>
<path d="M8.13318 16.7967C8.13318 17.4258 7.62325 17.9357 6.99384 17.9357C6.36473 17.9357 5.8548 17.4258 5.8548 16.7967C5.8548 16.1673 6.36473 15.6573 6.99384 15.6573C7.62325 15.6573 8.13318 16.1673 8.13318 16.7967Z" fill="#FF6F00"/>
<path d="M12.0389 9.55848C11.8626 8.95453 11.2299 8.60808 10.6259 8.78475C10.022 8.96111 9.67553 9.59382 9.85189 10.1978C10.0286 10.8017 10.6613 11.1482 11.2652 10.9715C11.8692 10.7951 12.2156 10.1624 12.0389 9.55848Z" fill="#FF6F00"/>
<path d="M20.8995 25.32C20.8995 25.9491 20.3896 26.4593 19.7602 26.4593C19.1311 26.4593 18.6212 25.9491 18.6212 25.32C18.6212 24.6906 19.1311 24.1807 19.7602 24.1807C20.3896 24.1807 20.8995 24.6906 20.8995 25.32Z" fill="#FF6F00"/>
<path d="M32.9681 15.4738C32.9681 16.7323 31.948 17.7525 30.6898 17.7525C29.4312 17.7525 28.4111 16.7323 28.4111 15.4738C28.4111 14.2156 29.4312 13.1954 30.6898 13.1954C31.948 13.1954 32.9681 14.2156 32.9681 15.4738Z" fill="#EF5350"/>
<path d="M19.5235 28.932C19.1852 28.6451 18.796 29.0769 18.796 29.5205C18.796 30.0878 18.591 30.5994 18.2559 30.9935C17.6283 31.7316 17.0816 32.9484 18.0504 32.9484C19.3089 32.9484 20.3288 31.9285 20.3288 30.67C20.3288 29.9734 20.0162 29.3499 19.5235 28.932Z" fill="#D32F2F"/>
<path d="M14.2943 13.5825C13.9559 13.2955 13.567 13.7272 13.567 14.1709C13.567 15.4294 12.5468 16.4493 11.2883 16.4493C11.0997 16.4493 10.9609 16.6496 11.0829 16.7935C11.5009 17.2863 12.1245 17.5991 12.8211 17.5991C14.0796 17.5991 15.0998 16.579 15.0998 15.3204C15.0998 14.6238 14.787 14.0003 14.2943 13.5825Z" fill="#D32F2F"/>
<path d="M19.0783 5.86163C18.7399 5.57463 18.3511 6.00633 18.3511 6.45006C18.3511 7.70827 17.3309 8.72844 16.0724 8.72844C15.8838 8.72844 15.7449 8.92879 15.8669 9.07264C16.2849 9.56547 16.9086 9.87826 17.6052 9.87826C18.8637 9.87826 19.8839 8.85809 19.8839 7.59958C19.8839 6.90297 19.5711 6.27948 19.0783 5.86163Z" fill="#D32F2F"/>
</g>
<defs>
<clipPath id="clip0">
<rect width="39.2472" height="39.2472" fill="white" transform="translate(0.0991211)"/>
</clipPath>
</defs>
</svg>
