<svg width="42" height="42" viewBox="0 0 42 42" fill="none" xmlns="http://www.w3.org/2000/svg">
<g clip-path="url(#clip0)">
<path d="M11.5764 21.233C9.58842 19.2553 9.58842 16.037 11.5764 14.0594C12.0289 13.609 12.7625 13.609 13.215 14.0594L18.787 19.6025C19.2396 20.053 19.2395 20.7829 18.787 21.2331C16.7991 23.2107 13.5642 23.2108 11.5764 21.233Z" fill="#F9EBCF"/>
<path d="M14.1167 15.3634C13.1888 16.2866 13.189 17.7828 14.1167 18.7058C15.0443 19.6287 16.5485 19.6287 17.4761 18.7058C17.5456 18.6367 17.6082 18.5634 17.6672 18.4882L14.3352 15.1733C14.2597 15.2323 14.1861 15.2943 14.1167 15.3634Z" fill="#FFCC60"/>
<path d="M12.6382 21.2278C12.0138 20.6002 10.9816 20.5104 9.84834 20.8746C10.2109 19.7353 10.1216 18.6979 9.49691 18.0699C8.79464 17.3641 7.57664 17.3385 6.27907 17.8744C5.08421 17.0401 3.43095 17.1573 2.36594 18.2279C1.30084 19.2985 1.1842 20.9605 2.01419 22.1618C1.48107 23.4662 1.5065 24.6906 2.20885 25.3966C2.83335 26.0243 3.86555 26.1141 4.99881 25.7497C4.6364 26.889 4.72565 27.9267 5.35023 28.5544C5.97474 29.1822 7.00694 29.272 8.14028 28.9077C7.77779 30.0469 7.86712 31.0844 8.49179 31.7125C9.65417 32.8809 12.2279 32.1883 14.2404 30.1649C16.2529 28.1417 16.9422 25.5544 15.7798 24.386C15.1553 23.7581 14.1231 23.6683 12.9897 24.0326C13.3522 22.8934 13.2628 21.8558 12.6382 21.2278Z" fill="#78B591"/>
<path d="M10.3236 26.891C10.1533 26.891 9.98313 26.8259 9.85352 26.6956L4.25532 21.0679C3.99708 20.8083 3.99815 20.3884 4.25778 20.1301C4.51749 19.8719 4.9374 19.8731 5.19556 20.1326L10.7938 25.7603C11.0521 26.0199 11.051 26.4397 10.7914 26.6981C10.6619 26.8267 10.4928 26.891 10.3236 26.891Z" fill="#619376"/>
<path d="M15.421 24.3353C14.2796 26.5557 11.5494 27.4242 9.33499 26.2714C8.83098 26.0088 8.63288 25.3864 8.89275 24.881L12.0916 18.6574C12.3514 18.1519 12.9708 17.955 13.4749 18.2173C15.6892 19.3703 16.5624 22.115 15.421 24.3353Z" fill="#EF645E"/>
<path d="M10.8054 26.5404C10.7022 26.5404 10.5974 26.5162 10.4996 26.4653L10.4083 26.4176C10.0834 26.2483 9.95733 25.8479 10.1266 25.523C10.2959 25.1982 10.6963 25.0721 11.0212 25.2413L11.1125 25.2889C11.4373 25.4582 11.5634 25.8586 11.3942 26.1836C11.2759 26.4105 11.0448 26.5404 10.8054 26.5404Z" fill="#C14616"/>
<path d="M13.9118 20.3844C13.8099 20.3844 13.7065 20.3609 13.6096 20.3112C13.2838 20.1439 13.1552 19.7443 13.3224 19.4183L13.3694 19.3268C13.5367 19.0011 13.9362 18.8724 14.2623 19.0396C14.5881 19.2069 14.7167 19.6065 14.5494 19.9325L14.5024 20.024C14.3849 20.2529 14.1526 20.3844 13.9118 20.3844Z" fill="#C14616"/>
<path d="M12.432 24.9509C12.3291 24.9509 12.2246 24.9267 12.1268 24.8761L12.0356 24.8286C11.7106 24.6596 11.584 24.2593 11.753 23.9343C11.9218 23.6093 12.322 23.4827 12.6472 23.6517L12.7384 23.6991C13.0634 23.868 13.19 24.2684 13.0211 24.5933C12.9029 24.8205 12.6716 24.9509 12.432 24.9509Z" fill="#C14616"/>
<path d="M13.6526 22.8018C13.5497 22.8018 13.4451 22.7777 13.3474 22.727L13.2562 22.6795C12.9312 22.5107 12.8046 22.1102 12.9735 21.7853C13.1424 21.4604 13.5426 21.3337 13.8677 21.5026L13.9589 21.55C14.284 21.7189 14.4105 22.1193 14.2416 22.4442C14.1235 22.6715 13.8922 22.8018 13.6526 22.8018Z" fill="#C14616"/>
<path d="M30.7167 22.7213C32.4202 22.7213 33.8012 21.3473 33.8012 19.6525C33.8012 17.9577 32.4202 16.5838 30.7167 16.5838C29.0131 16.5838 27.6321 17.9577 27.6321 19.6525C27.6321 21.3473 29.0131 22.7213 30.7167 22.7213Z" fill="#EF645E"/>
<path d="M37.2034 30.6731C37.8515 30.0284 37.9442 28.9628 37.5681 27.7928C38.7441 28.1672 39.815 28.0749 40.4629 27.4303C41.1917 26.7053 41.2181 25.4481 40.665 24.1085C41.526 22.875 41.4051 21.1682 40.3 20.0689C39.195 18.9695 37.4795 18.849 36.2396 19.7058C34.8931 19.1554 33.6295 19.1817 32.9008 19.9067C32.2528 20.5514 32.16 21.6169 32.5363 22.787C31.3601 22.4128 30.2892 22.5049 29.6412 23.1496C28.9931 23.7944 28.9005 24.8599 29.2766 26.0298C28.1006 25.6558 27.0297 25.7479 26.3817 26.3926C25.1755 27.5927 25.8906 30.2496 27.9789 32.3269C30.0672 34.4044 32.7379 35.1161 33.9438 33.9161C34.5919 33.2713 34.6846 32.206 34.3084 31.0359C35.4844 31.4101 36.5553 31.3177 37.2034 30.6731Z" fill="#78B591"/>
<path d="M32.0427 28.9836C31.8631 28.9836 31.6835 28.9148 31.5468 28.7774C31.2744 28.5037 31.2755 28.0608 31.5493 27.7884L37.3582 22.0093C37.6318 21.7367 38.0746 21.738 38.3472 22.0117C38.6196 22.2855 38.6185 22.7283 38.3447 23.0008L32.5359 28.7799C32.3995 28.9156 32.221 28.9836 32.0427 28.9836Z" fill="#5B8C6F"/>
<path d="M9.05127 30.2136C10.7549 30.2136 12.1359 28.8397 12.1359 27.1449C12.1359 25.4501 10.7549 24.0762 9.05127 24.0762C7.34768 24.0762 5.96664 25.4501 5.96664 27.1449C5.96664 28.8397 7.34768 30.2136 9.05127 30.2136Z" fill="#FFAB5F"/>
<path d="M29.1346 18.6199C28.4742 17.9627 27.3825 17.8688 26.184 18.2501C26.5675 17.0576 26.473 15.9717 25.8124 15.3146C25.0697 14.5758 23.7819 14.5489 22.4095 15.1098C21.1459 14.2366 19.3974 14.3594 18.2712 15.4799C17.1449 16.6003 17.0215 18.3399 17.8991 19.5971C17.3354 20.9624 17.3623 22.2437 18.105 22.9826C18.7656 23.6396 19.8571 23.7336 21.0556 23.3522C20.6722 24.5447 20.7668 25.6307 21.4272 26.2878C22.0877 26.9448 23.1793 27.0388 24.3779 26.6575C23.9945 27.8501 24.089 28.9361 24.7496 29.5931C25.9787 30.8162 28.7007 30.091 30.8288 27.9736C32.9571 25.856 33.6861 23.1479 32.4568 21.9252C31.7963 21.2681 30.7048 21.1741 29.5062 21.5554C29.8897 20.3628 29.795 19.2768 29.1346 18.6199Z" fill="#A5BC79"/>
<path d="M18.7309 9.913C16.961 11.6738 14.0811 11.6738 12.3112 9.91292C11.9084 9.51211 11.9084 8.86226 12.3112 8.46162L17.2717 3.52629C17.6748 3.12532 18.328 3.1254 18.7307 3.52629C20.5006 5.28709 20.5008 8.15212 18.7309 9.913Z" fill="#EF645E"/>
<path d="M26.0745 12.1492C27.277 12.1492 28.2518 11.1794 28.2518 9.98312C28.2518 8.78685 27.277 7.81709 26.0745 7.81709C24.8719 7.81709 23.8971 8.78685 23.8971 9.98312C23.8971 11.1794 24.8719 12.1492 26.0745 12.1492Z" fill="#FFAB5F"/>
<path d="M30.9956 1.52795C31.297 1.82802 31.297 2.3143 30.9956 2.61429L29.6854 3.91785C29.3838 4.21775 28.8951 4.21767 28.5934 3.91785L27.2833 2.61429C26.9818 2.3143 26.9818 1.82802 27.2833 1.52795L28.5934 0.224471C28.8951 -0.0754355 29.3838 -0.0753535 29.6854 0.224471L30.9956 1.52795Z" fill="#C14616"/>
<path d="M8.23882 11.37C8.48262 11.6125 8.48262 12.0057 8.23882 12.248L7.17987 13.3016C6.93624 13.544 6.54118 13.5439 6.29754 13.3016L5.23868 12.248C4.99496 12.0057 4.99496 11.6125 5.23868 11.37L6.29762 10.3167C6.54134 10.0743 6.9364 10.0743 7.17996 10.3167L8.23882 11.37Z" fill="#A5BC79"/>
<path d="M35.8036 13.3573C36.0473 13.5998 36.0473 13.9928 35.8036 14.2352L34.7447 15.2888C34.5011 15.5312 34.106 15.5311 33.8624 15.2888L32.8034 14.2352C32.5597 13.9928 32.5597 13.5998 32.8034 13.3573L33.8624 12.304C34.1062 12.0615 34.5012 12.0616 34.7447 12.304L35.8036 13.3573Z" fill="#C14616"/>
<path d="M26.6874 24.516C26.5182 24.516 26.3491 24.4516 26.2197 24.3229L20.2994 18.4328C20.0397 18.1746 20.0386 17.7547 20.297 17.495C20.5553 17.2355 20.9751 17.2343 21.2348 17.4927L27.1551 23.3828C27.4147 23.6411 27.4159 24.061 27.1575 24.3206C27.028 24.4508 26.8578 24.516 26.6874 24.516Z" fill="#899B62"/>
<path d="M6.55322 27.1388C6.93147 27.5152 6.93147 28.1253 6.55322 28.5015L4.90964 30.1367C4.53139 30.513 3.91821 30.5129 3.54004 30.1367L1.89646 28.5016C1.5183 28.1253 1.5183 27.5152 1.89646 27.1389L3.54004 25.5037C3.91837 25.1272 4.53148 25.1275 4.90964 25.5037L6.55322 27.1388Z" fill="#EF645E"/>
<path d="M17.6994 28.0508C15.9295 29.8116 13.0496 29.8116 11.2797 28.0508C10.8769 27.65 10.8769 27.0002 11.2797 26.5995L16.2403 21.6641C16.6432 21.2632 17.2965 21.2633 17.6993 21.6641C19.4692 23.4249 19.4695 26.2902 17.6994 28.0508Z" fill="#C14616"/>
<path d="M25.927 27.2837C27.3896 27.2837 28.5753 26.104 28.5753 24.6488C28.5753 23.1937 27.3896 22.014 25.927 22.014C24.4643 22.014 23.2786 23.1937 23.2786 24.6488C23.2786 26.104 24.4643 27.2837 25.927 27.2837Z" fill="#FFAB5F"/>
<path d="M37.1738 30.2615C38.3762 30.2615 39.3509 29.2917 39.3509 28.0955C39.3509 26.8992 38.3762 25.9294 37.1738 25.9294C35.9713 25.9294 34.9966 26.8992 34.9966 28.0955C34.9966 29.2917 35.9713 30.2615 37.1738 30.2615Z" fill="#FFAB5F"/>
<path d="M31.7073 26.5054C32.16 26.9558 32.16 27.686 31.7073 28.1366L29.7398 30.0938C29.2871 30.5443 28.553 30.5442 28.1002 30.0938L26.1328 28.1366C25.6801 27.686 25.6801 26.9557 26.1328 26.5054L28.1002 24.5479C28.5531 24.0976 29.2871 24.0978 29.7398 24.5479L31.7073 26.5054Z" fill="#EF645E"/>
<path d="M13.8399 10.6458C13.6707 10.6458 13.5017 10.5815 13.3723 10.453L13.2994 10.3804C13.0396 10.1222 13.0383 9.70232 13.2967 9.44261C13.5548 9.1829 13.9747 9.18166 14.2345 9.43982L14.3074 9.51241C14.5671 9.77065 14.5684 10.1905 14.3101 10.4502C14.1806 10.5805 14.0103 10.6458 13.8399 10.6458Z" fill="#C14616"/>
<path d="M18.6912 5.74685C18.521 5.74685 18.3508 5.68172 18.2213 5.55154C17.963 5.29191 17.9639 4.87207 18.2235 4.61376L18.2965 4.54116C18.556 4.2826 18.9759 4.28366 19.2343 4.54329C19.4926 4.80292 19.4917 5.22276 19.2321 5.48107L19.1591 5.55367C19.0297 5.68246 18.8605 5.74685 18.6912 5.74685Z" fill="#C14616"/>
<path d="M15.8823 9.6297C15.7132 9.6297 15.5442 9.56539 15.4147 9.43685L15.3418 9.36433C15.0821 9.10601 15.0808 8.68626 15.3391 8.42655C15.5972 8.16684 16.0172 8.16553 16.2769 8.42376L16.3498 8.49628C16.6095 8.75459 16.6108 9.17435 16.3525 9.43406C16.223 9.5644 16.0527 9.6297 15.8823 9.6297Z" fill="#C14616"/>
<path d="M17.7063 7.96047C17.5369 7.96047 17.3677 7.89608 17.2383 7.76713L17.1653 7.69436C16.9058 7.43588 16.9051 7.01605 17.1636 6.75658C17.422 6.49712 17.8419 6.49638 18.1014 6.75486L18.1743 6.82762C18.4338 7.08619 18.4345 7.50594 18.1761 7.7654C18.0465 7.89542 17.8764 7.96047 17.7063 7.96047Z" fill="#C14616"/>
<path d="M12.8087 28.7835C12.6395 28.7835 12.4706 28.7193 12.3411 28.5908L12.2681 28.5182C12.0084 28.2599 12.0072 27.8402 12.2654 27.5804C12.5236 27.3207 12.9435 27.3194 13.2032 27.5776L13.2761 27.6502C13.5358 27.9084 13.5371 28.3283 13.2788 28.588C13.1494 28.7184 12.979 28.7835 12.8087 28.7835Z" fill="#A03615"/>
<path d="M17.6598 23.8846C17.4896 23.8846 17.3193 23.8195 17.1897 23.6893C16.9314 23.4297 16.9324 23.0099 17.1919 22.7515L17.2649 22.6789C17.5243 22.4204 17.9443 22.4214 18.2027 22.6811C18.461 22.9407 18.46 23.3605 18.2004 23.6189L18.1274 23.6915C17.9982 23.8202 17.8289 23.8846 17.6598 23.8846Z" fill="#A03615"/>
<path d="M14.8514 27.7676C14.6822 27.7676 14.513 27.7032 14.3836 27.5744L14.3106 27.5018C14.0509 27.2434 14.05 26.8237 14.3084 26.564C14.5668 26.3047 14.9866 26.3035 15.2461 26.5619L15.3191 26.6345C15.5787 26.8929 15.5798 27.3127 15.3213 27.5723C15.1918 27.7024 15.0216 27.7676 14.8514 27.7676Z" fill="#A03615"/>
<path d="M16.675 26.0981C16.5058 26.0981 16.3367 26.0339 16.2074 25.9051L16.1345 25.8326C15.8747 25.5743 15.8737 25.1544 16.132 24.8948C16.3902 24.635 16.8101 24.6338 17.0698 24.8923L17.1427 24.9649C17.4024 25.2231 17.4035 25.6431 17.1451 25.9027C17.0155 26.033 16.8452 26.0981 16.675 26.0981Z" fill="#A03615"/>
<path d="M19.4342 29.2628C17.4462 27.2849 17.4462 24.0669 19.4342 22.089C19.8866 21.6388 20.6203 21.6388 21.0728 22.089L26.6448 27.6323C27.0973 28.0827 27.0973 28.8127 26.6448 29.2628C24.6568 31.2405 21.422 31.2406 19.4342 29.2628Z" fill="white"/>
<path d="M21.9741 23.3932C21.0463 24.3165 21.0464 25.8127 21.9741 26.7357C22.9016 27.6586 24.4059 27.6586 25.3335 26.7357C25.4029 26.6665 25.4654 26.5933 25.5246 26.518L22.1926 23.2032C22.1171 23.262 22.0434 23.3242 21.9741 23.3932Z" fill="#FFCC60"/>
<path d="M12.5086 39.5539C9.65963 39.5539 6.90527 38.5361 4.7531 36.6878C2.61504 34.8519 1.20435 32.316 0.780819 29.547C0.735455 29.2514 0.822326 28.9506 1.0183 28.7237C1.21435 28.4968 1.49999 28.3663 1.80071 28.3663H39.7234C40.0242 28.3663 40.3098 28.4967 40.5058 28.7237C40.7018 28.9506 40.7885 29.2514 40.7433 29.547C40.3198 32.316 38.9091 34.852 36.771 36.6878C34.6188 38.5361 31.8643 39.5539 29.0155 39.5539H12.5086Z" fill="#F9EBCF"/>
<path d="M10.8651 30.5782H0.986572C1.09764 31.0283 1.23587 31.4701 1.3987 31.9018H10.8651C11.2306 31.9018 11.5269 31.6054 11.5269 31.24C11.5269 30.8745 11.2306 30.5782 10.8651 30.5782Z" fill="#DDB690"/>
<path d="M8.59884 33.6574H2.23239C2.49957 34.1174 2.79783 34.5597 3.12588 34.981H8.59884C8.96429 34.981 9.26066 34.6848 9.26066 34.3192C9.26066 33.9537 8.96437 33.6574 8.59884 33.6574Z" fill="#DDB690"/>
<path opacity="0.1" d="M4.48343 29.547C4.43807 29.2514 4.52494 28.9506 4.72091 28.7237C4.91697 28.4968 5.2026 28.3663 5.50333 28.3663H1.80101C1.5002 28.3663 1.21457 28.4967 1.0186 28.7237C0.822542 28.9506 0.735835 29.2514 0.781116 29.547C1.20464 32.316 2.61533 34.852 4.7534 36.6878C6.90565 38.5361 9.66001 39.5539 12.5089 39.5539H16.2112C13.3622 39.5539 10.608 38.5361 8.45571 36.6878C6.31757 34.8519 4.90688 32.3159 4.48343 29.547Z" fill="black"/>
<path d="M32.0144 41.1241C32.0144 41.6077 31.6224 42 31.1387 42H10.3851C9.90148 42 9.50937 41.6078 9.50937 41.1241V40.3358C9.50937 39.852 9.9014 39.4598 10.3851 39.4598H31.1387C31.6223 39.4598 32.0144 39.8519 32.0144 40.3358V41.1241Z" fill="#A5BC79"/>
<path opacity="0.1" d="M13.1989 41.1241V40.3358C13.1989 39.852 13.5909 39.4598 14.0746 39.4598H10.3855C9.90191 39.4598 9.5098 39.8519 9.5098 40.3358V41.1241C9.5098 41.6077 9.90182 42 10.3855 42H14.0746C13.5909 42 13.1989 41.6077 13.1989 41.1241Z" fill="black"/>
</g>
<defs>
<clipPath id="clip0">
<rect width="42" height="42" fill="white"/>
</clipPath>
</defs>
</svg>
