<svg width="42" height="42" viewBox="0 0 42 42" fill="none" xmlns="http://www.w3.org/2000/svg">
<path d="M15.0938 5.25004V3.28129C15.0938 2.19388 15.9751 1.31254 17.0625 1.31254C18.1499 1.31254 19.0312 2.19388 19.0312 3.28129V5.25004H15.0938Z" fill="#AAA9AA"/>
<path d="M16.0781 1.58547C15.4921 1.92672 15.0938 2.5541 15.0938 3.28122V5.24997H17.0625V3.28122C17.0625 2.5541 16.6642 1.92672 16.0781 1.58547Z" fill="#E3E1E3"/>
<path d="M33.4687 5.25004C34.5561 5.25004 35.4375 4.3686 35.4375 3.28129C35.4375 2.19398 34.5561 1.31254 33.4687 1.31254C32.3814 1.31254 31.5 2.19398 31.5 3.28129C31.5 4.3686 32.3814 5.25004 33.4687 5.25004Z" fill="#AA8058"/>
<path d="M32.8125 5.12923C33.5374 5.12923 34.125 4.30186 34.125 3.28123C34.125 2.26061 33.5374 1.43324 32.8125 1.43324C32.0876 1.43324 31.5 2.26061 31.5 3.28123C31.5 4.30186 32.0876 5.12923 32.8125 5.12923Z" fill="#E3AA75"/>
<path d="M28.2188 13.125C29.3061 13.125 30.1875 12.2436 30.1875 11.1562C30.1875 10.0689 29.3061 9.1875 28.2188 9.1875C27.1315 9.1875 26.25 10.0689 26.25 11.1562C26.25 12.2436 27.1315 13.125 28.2188 13.125Z" fill="#AA8058"/>
<path d="M27.5625 13.0043C28.2874 13.0043 28.875 12.1769 28.875 11.1563C28.875 10.1357 28.2874 9.30828 27.5625 9.30828C26.8376 9.30828 26.25 10.1357 26.25 11.1563C26.25 12.1769 26.8376 13.0043 27.5625 13.0043Z" fill="#E3AA75"/>
<path d="M36.75 9.1875H39.375V15.75H36.75V9.1875Z" fill="#AAA9AA"/>
<path d="M26.25 15.75H40.6875V40.6875H26.25V15.75Z" fill="#E3E1E3"/>
<path d="M40.6875 38.0625H26.25V23.625L27.0985 22.7765C27.3958 22.4792 27.7988 22.3125 28.2188 22.3125C28.6388 22.3125 29.0417 22.4792 29.339 22.7765L29.7235 23.1611C30.0208 23.4583 30.4238 23.625 30.8438 23.625C31.2638 23.625 31.6667 23.4583 31.964 23.1611L32.3485 22.7765C32.6458 22.4792 33.0488 22.3125 33.4688 22.3125C33.8888 22.3125 34.2917 22.4792 34.589 22.7765L34.9735 23.1611C35.2708 23.4583 35.6738 23.625 36.0938 23.625C36.5138 23.625 36.9167 23.4583 37.214 23.1611L37.5985 22.7765C37.8958 22.4792 38.2988 22.3125 38.7188 22.3125C39.1388 22.3125 39.5417 22.4792 39.839 22.7765L40.6875 23.625V38.0625Z" fill="#E3AA75"/>
<path d="M19.6875 40.6875H3.93752L2.62502 38.0625H21L19.6875 40.6875Z" fill="#727172"/>
<path d="M2.62502 38.0625L3.93752 40.6875H17.7188L19.0313 38.0625H2.62502Z" fill="#AAA9AA"/>
<path d="M2.62502 5.24998H21V9.18748H2.62502V5.24998Z" fill="#8F484C"/>
<path d="M2.62502 5.24998H19.0313V9.18748H2.62502V5.24998Z" fill="#BF6065"/>
<path d="M21 38.0625H2.625C1.89984 38.0625 1.3125 37.4752 1.3125 36.75V10.5C1.3125 9.77484 1.89984 9.1875 2.625 9.1875H21C21.7252 9.1875 22.3125 9.77484 22.3125 10.5V36.75C22.3125 37.4752 21.7252 38.0625 21 38.0625Z" fill="#BF6065"/>
<path d="M20.3438 36.75V10.5C20.3438 9.77484 19.7564 9.1875 19.0313 9.1875H2.625C1.89984 9.1875 1.3125 9.77484 1.3125 10.5V36.75C1.3125 37.4752 1.89984 38.0625 2.625 38.0625H19.0313C19.7564 38.0625 20.3438 37.4752 20.3438 36.75Z" fill="#FF8087"/>
<path d="M10.5 38.0625C12.1807 36.3818 13.125 34.102 13.125 31.7251V29.9624C13.125 27.5855 12.1807 25.3057 10.5 23.625L9.73088 22.8559C8.54241 21.6674 7.875 20.0557 7.875 18.375C7.875 16.6943 8.54241 15.0826 9.73088 13.8941L14.4375 9.1875H10.5L8.03447 11.653C6.25144 13.4361 5.25 15.8537 5.25 18.375C5.25 20.8963 6.25144 23.3139 8.03447 25.097L8.18016 25.2427C9.66525 26.7277 10.5 28.7431 10.5 30.8437C10.5 32.9444 9.66525 34.9597 8.1795 36.4455L6.5625 38.0625H10.5Z" fill="#E3E1E3"/>
<path d="M20.3438 16.4063H17.0625C16.7002 16.4063 16.4062 16.1123 16.4062 15.75V11.8125C16.4062 11.4503 16.7002 11.1563 17.0625 11.1563H20.3438V12.4688H17.7188V15.0938H20.3438V16.4063Z" fill="#E3E1E3"/>
<path d="M19.6875 22.9688H17.0625C16.7002 22.9688 16.4062 22.6748 16.4062 22.3125V18.375C16.4062 18.0128 16.7002 17.7188 17.0625 17.7188H19.6875C20.0498 17.7188 20.3438 18.0128 20.3438 18.375V22.3125C20.3438 22.6748 20.0498 22.9688 19.6875 22.9688ZM17.7188 21.6563H19.0312V19.0313H17.7188V21.6563Z" fill="#E3E1E3"/>
<path d="M20.3438 29.5313H17.0625C16.7002 29.5313 16.4062 29.2373 16.4062 28.875V24.2813H17.7188V28.2188H20.3438V29.5313Z" fill="#E3E1E3"/>
<path d="M20.3438 36.0937H19.0312V32.1562H17.7188V36.0937H16.4062V31.5C16.4062 31.1377 16.7002 30.8437 17.0625 30.8437H19.6875C20.0498 30.8437 20.3438 31.1377 20.3438 31.5V36.0937Z" fill="#E3E1E3"/>
<path d="M17.0625 33.4688H19.6875V34.7813H17.0625V33.4688Z" fill="#E3E1E3"/>
<path d="M25.5937 2.62498H26.9062V3.93748H25.5937V2.62498Z" fill="#E3AA75"/>
<path d="M26.9062 3.93752H28.2188V5.25002H26.9062V3.93752Z" fill="#E3AA75"/>
<path d="M25.5937 5.24998H26.9062V6.56248H25.5937V5.24998Z" fill="#E3AA75"/>
<path d="M24.2812 3.93752H25.5938V5.25002H24.2812V3.93752Z" fill="#E3AA75"/>
</svg>
