<svg width="42" height="42" viewBox="0 0 42 42" fill="none" xmlns="http://www.w3.org/2000/svg">
<path d="M33.4633 14.4401L36.7441 11.1594L37.672 12.0873L34.3913 15.3681L33.4633 14.4401Z" fill="#E1462B"/>
<path d="M34.5039 16.7928L37.7846 13.512L38.7126 14.44L35.4318 17.7207L34.5039 16.7928Z" fill="#E1462B"/>
<path d="M1.96875 34.125H40.0312V35.4375C40.0312 36.1337 39.7547 36.8014 39.2624 37.2937C38.7701 37.786 38.1024 38.0625 37.4062 38.0625H4.59375C3.89756 38.0625 3.22988 37.786 2.73759 37.2937C2.24531 36.8014 1.96875 36.1337 1.96875 35.4375V34.125Z" fill="#CFDFE8"/>
<path d="M37.4062 21H4.59375C4.59375 27.5625 11.8125 31.5 11.8125 31.5V34.125H30.1875V31.5C30.1875 31.5 37.4062 27.5625 37.4062 21Z" fill="#CFDFE8"/>
<path d="M21 13.125H19.6875C19.6986 12.3746 19.978 11.6529 20.475 11.0906C20.7988 10.7546 20.9859 10.3101 21 9.84372C20.9859 9.37732 20.7988 8.93285 20.475 8.59684C19.978 8.03452 19.6986 7.31288 19.6875 6.56247C19.6987 5.81208 19.9781 5.09047 20.475 4.52809C20.7985 4.19194 20.9857 3.74756 21 3.28121H22.3125C22.3013 4.0316 22.0219 4.75321 21.525 5.31559C21.2015 5.65174 21.0143 6.09612 21 6.56247C21.0141 7.02886 21.2012 7.47333 21.525 7.80934C22.0323 8.36545 22.3135 9.09101 22.3135 9.84372C22.3135 10.5964 22.0323 11.322 21.525 11.8781C21.2012 12.2141 21.0141 12.6586 21 13.125Z" fill="#7FCAC9"/>
<path d="M17.0625 15.0937H15.75C15.7611 14.3433 16.0405 13.6217 16.5375 13.0594C16.7037 12.897 16.8358 12.7031 16.9259 12.4889C17.0161 12.2748 17.0626 12.0448 17.0626 11.8125C17.0626 11.5801 17.0161 11.3501 16.9259 11.136C16.8358 10.9219 16.7037 10.7279 16.5375 10.5656C16.0405 10.0033 15.7611 9.28164 15.75 8.53123C15.7612 7.78084 16.0406 7.05923 16.5375 6.49685C16.861 6.1607 17.0482 5.71632 17.0625 5.24998H18.375C18.3638 6.00036 18.0844 6.72197 17.5875 7.28435C17.264 7.62051 17.0768 8.06488 17.0625 8.53123C17.0766 8.99762 17.2637 9.44209 17.5875 9.7781C18.0948 10.3342 18.376 11.0598 18.376 11.8125C18.376 12.5652 18.0948 13.2907 17.5875 13.8469C17.2637 14.1829 17.0766 14.6273 17.0625 15.0937Z" fill="#7FCAC9"/>
<path d="M24.9375 15.0937H23.625C23.6361 14.3433 23.9155 13.6217 24.4125 13.0594C24.5787 12.897 24.7108 12.7031 24.801 12.4889C24.8911 12.2748 24.9376 12.0448 24.9376 11.8125C24.9376 11.5801 24.8911 11.3501 24.801 11.136C24.7108 10.9219 24.5787 10.7279 24.4125 10.5656C23.9155 10.0033 23.6361 9.28164 23.625 8.53123C23.6362 7.78084 23.9156 7.05923 24.4125 6.49685C24.736 6.1607 24.9232 5.71632 24.9375 5.24998H26.25C26.2388 6.00036 25.9594 6.72197 25.4625 7.28435C25.139 7.62051 24.9518 8.06488 24.9375 8.53123C24.9516 8.99762 25.1387 9.44209 25.4625 9.7781C25.9698 10.3342 26.251 11.0598 26.251 11.8125C26.251 12.5652 25.9698 13.2907 25.4625 13.8469C25.1387 14.1829 24.9516 14.6273 24.9375 15.0937Z" fill="#7FCAC9"/>
<path d="M11.8125 31.5H30.1875V34.125H11.8125V31.5Z" fill="#7D8D9C"/>
<path d="M20.3438 29.5312H13.125C13.0545 29.5313 12.9845 29.52 12.9176 29.4977C8.69992 28.0921 7.30145 23.35 7.24435 23.1492L8.50567 22.7876C8.51748 22.8296 9.75714 26.9876 13.2346 28.2187H20.3438V29.5312Z" fill="#F4F4E6"/>
<path d="M21.6562 28.2187H22.9688V29.5312H21.6562V28.2187Z" fill="#F4F4E6"/>
<path d="M15.0938 17.0625H15.75C16.4462 17.0625 17.1139 17.339 17.6062 17.8313C18.0984 18.3236 18.375 18.9913 18.375 19.6875V21H17.7187C17.0226 21 16.3549 20.7234 15.8626 20.2311C15.3703 19.7388 15.0938 19.0712 15.0938 18.375V17.0625Z" fill="#8EC13F"/>
<path d="M21 18.375C20.3038 18.375 19.6361 18.6516 19.1438 19.1438C18.6516 19.6361 18.375 20.3038 18.375 21H23.625C23.625 20.3038 23.3484 19.6361 22.8562 19.1438C22.3639 18.6516 21.6962 18.375 21 18.375Z" fill="#55B56A"/>
<path d="M36.75 16.4062L33.3834 19.7728L32.1628 21H26.9062L35.4572 12.449L36.75 16.4062Z" fill="#E1462B"/>
<path d="M36.75 16.4062L33.3834 19.7728L29.6888 18.2175L35.4572 12.449L36.75 16.4062Z" fill="#E97424"/>
<path d="M32.3435 15.5599L33.2714 14.632L34.5835 15.9441L33.6556 16.872L32.3435 15.5599Z" fill="#394D5C"/>
</svg>
