<svg width="42" height="42" viewBox="0 0 42 42" fill="none" xmlns="http://www.w3.org/2000/svg">
<path d="M16.4062 9.84377C17.1281 9.84377 17.7187 10.4337 17.7187 11.1563C17.7187 11.884 17.1281 12.4688 16.4062 12.4688C15.6844 12.4688 15.0938 11.884 15.0938 11.1563C15.0938 10.4337 15.6844 9.84377 16.4062 9.84377Z" fill="#FC6E51"/>
<path d="M41.3438 9.84375V27.5691C41.3438 28.6519 40.4578 29.5378 39.375 29.5378H2.62503C1.54222 29.5378 0.656281 28.6519 0.656281 27.5691V9.84375V6.5625C0.656281 5.47969 1.54222 4.59375 2.62503 4.59375H39.375C40.4578 4.59375 41.3438 5.47969 41.3438 6.5625V9.84375ZM38.0625 24.2812V21.6562V19.0378C38.0625 17.9484 37.1766 17.0691 36.0938 17.0691C37.1766 17.0691 38.0625 16.1831 38.0625 15.1003V12.4753V12.4688V9.85031C38.0625 8.76094 37.1766 7.88156 36.0938 7.88156H33.4688C32.386 7.88156 31.5 8.76094 31.5 9.85031V12.4688V12.4753V15.1003C31.5 16.1831 32.386 17.0691 33.4688 17.0691C32.386 17.0691 31.5 17.9484 31.5 19.0378V21.6562V24.2812C31.5 25.3634 32.386 26.25 33.4688 26.25H36.0938C37.1766 26.25 38.0625 25.3634 38.0625 24.2812ZM28.875 24.2812V21.6562V19.0378C28.875 17.9484 27.9891 17.0691 26.9063 17.0691C27.9891 17.0691 28.875 16.1831 28.875 15.1003V12.4753V12.4688V9.85031C28.875 8.76094 27.9891 7.88156 26.9063 7.88156H24.2813C23.1985 7.88156 22.3125 8.76094 22.3125 9.85031V12.4688V12.4753V15.1003C22.3125 16.1831 23.1985 17.0691 24.2813 17.0691C23.1985 17.0691 22.3125 17.9484 22.3125 19.0378V21.6562V24.2812C22.3125 25.3634 23.1985 26.25 24.2813 26.25H26.9063C27.9891 26.25 28.875 25.3634 28.875 24.2812ZM19.6875 24.2812V21.6562V19.0378C19.6875 17.9484 18.8016 17.0691 17.7188 17.0691C18.8016 17.0691 19.6875 16.1831 19.6875 15.1003V12.4753V12.4688V9.85031C19.6875 8.76094 18.8016 7.88156 17.7188 7.88156H15.0938C14.011 7.88156 13.125 8.76094 13.125 9.85031V12.4688V12.4753V15.1003C13.125 16.1831 14.011 17.0691 15.0938 17.0691C14.011 17.0691 13.125 17.9484 13.125 19.0378V21.6562V24.2812C13.125 25.3634 14.011 26.25 15.0938 26.25H17.7188C18.8016 26.25 19.6875 25.3634 19.6875 24.2812ZM10.5 24.2812V21.6562V19.0378C10.5 17.9484 9.61409 17.0691 8.53128 17.0691C9.61409 17.0691 10.5 16.1831 10.5 15.1003V12.4753V12.4688V9.85031C10.5 8.76094 9.61409 7.88156 8.53128 7.88156H5.90628C4.82347 7.88156 3.93753 8.76094 3.93753 9.85031V12.4688V12.4753V15.1003C3.93753 16.1831 4.82347 17.0691 5.90628 17.0691C4.82347 17.0691 3.93753 17.9484 3.93753 19.0378V21.6562V24.2812C3.93753 25.3634 4.82347 26.25 5.90628 26.25H8.53128C9.61409 26.25 10.5 25.3634 10.5 24.2812Z" fill="#545C66"/>
<path d="M34.7812 9.84377C35.5031 9.84377 36.0938 10.4337 36.0938 11.1563C36.0938 11.884 35.5031 12.4688 34.7812 12.4688C34.0528 12.4688 33.4688 11.884 33.4688 11.1563C33.4688 10.4337 34.0528 9.84377 34.7812 9.84377Z" fill="#FC6E51"/>
<path d="M34.7812 19.0313C35.5031 19.0313 36.0938 19.6212 36.0938 20.3438C36.0938 21.0715 35.5031 21.6563 34.7812 21.6563C34.0528 21.6563 33.4688 21.0715 33.4688 20.3438C33.4688 19.6212 34.0528 19.0313 34.7812 19.0313Z" fill="#FC6E51"/>
<path d="M36.0937 20.3437C36.0937 19.6212 35.5031 19.0312 34.7812 19.0312C34.0528 19.0312 33.4687 19.6212 33.4687 20.3437C33.4687 21.0715 34.0528 21.6562 34.7812 21.6562C35.5031 21.6562 36.0937 21.0715 36.0937 20.3437ZM31.5 21.6562V19.0378C31.5 17.9484 32.3859 17.0691 33.4687 17.0691H36.0937C37.1766 17.0691 38.0625 17.9484 38.0625 19.0378V21.6562C38.0625 22.7384 37.1766 23.625 36.0937 23.625H33.4687C32.3859 23.625 31.5 22.7384 31.5 21.6562Z" fill="#E6E9ED"/>
<path d="M36.0937 11.1562C36.0937 10.4337 35.5031 9.84373 34.7812 9.84373C34.0528 9.84373 33.4687 10.4337 33.4687 11.1562C33.4687 11.884 34.0528 12.4687 34.7812 12.4687C35.5031 12.4687 36.0937 11.884 36.0937 11.1562ZM31.5 12.4687V9.8503C31.5 8.76092 32.3859 7.88155 33.4687 7.88155H36.0937C37.1766 7.88155 38.0625 8.76092 38.0625 9.8503V12.4687V12.4753C38.0559 13.5581 37.1766 14.4375 36.0937 14.4375H33.4687C32.3859 14.4375 31.5066 13.5581 31.5 12.4753V12.4687Z" fill="#E6E9ED"/>
<path d="M31.5 15.1003V12.4753C31.5066 13.5581 32.3859 14.4375 33.4687 14.4375H36.0937C37.1766 14.4375 38.0559 13.5581 38.0625 12.4753V15.1003C38.0625 16.1831 37.1766 17.0691 36.0937 17.0691H33.4687C32.3859 17.0691 31.5 16.1831 31.5 15.1003Z" fill="#656D78"/>
<path d="M31.5 24.2813V21.6562C31.5 22.7384 32.3859 23.625 33.4687 23.625H36.0937C37.1766 23.625 38.0625 22.7384 38.0625 21.6562V24.2813C38.0625 25.3634 37.1766 26.25 36.0937 26.25H33.4687C32.3859 26.25 31.5 25.3634 31.5 24.2813Z" fill="#656D78"/>
<path d="M25.5938 9.84377C26.3156 9.84377 26.9062 10.4337 26.9062 11.1563C26.9062 11.884 26.3156 12.4688 25.5938 12.4688C24.8653 12.4688 24.2812 11.884 24.2812 11.1563C24.2812 10.4337 24.8653 9.84377 25.5938 9.84377Z" fill="#FC6E51"/>
<path d="M26.9062 11.1562C26.9062 10.4337 26.3156 9.84373 25.5937 9.84373C24.8653 9.84373 24.2812 10.4337 24.2812 11.1562C24.2812 11.884 24.8653 12.4687 25.5937 12.4687C26.3156 12.4687 26.9062 11.884 26.9062 11.1562ZM28.875 12.4687V12.4753C28.8684 13.5581 27.9891 14.4375 26.9062 14.4375H24.2812C23.1984 14.4375 22.3191 13.5581 22.3125 12.4753V12.4687V9.8503C22.3125 8.76092 23.1984 7.88155 24.2812 7.88155H26.9062C27.9891 7.88155 28.875 8.76092 28.875 9.8503V12.4687Z" fill="#E6E9ED"/>
<path d="M26.9062 20.3437C26.9062 19.6212 26.3156 19.0312 25.5937 19.0312C24.8653 19.0312 24.2812 19.6212 24.2812 20.3437C24.2812 21.0715 24.8653 21.6562 25.5937 21.6562C26.3156 21.6562 26.9062 21.0715 26.9062 20.3437ZM28.875 19.0378V21.6562C28.875 22.7384 27.9891 23.625 26.9062 23.625H24.2812C23.1984 23.625 22.3125 22.7384 22.3125 21.6562V19.0378C22.3125 17.9484 23.1984 17.0691 24.2812 17.0691H26.9062C27.9891 17.0691 28.875 17.9484 28.875 19.0378Z" fill="#E6E9ED"/>
<path d="M17.7187 11.1562C17.7187 10.4337 17.1281 9.84373 16.4062 9.84373C15.6844 9.84373 15.0937 10.4337 15.0937 11.1562C15.0937 11.884 15.6844 12.4687 16.4062 12.4687C17.1281 12.4687 17.7187 11.884 17.7187 11.1562ZM19.6875 12.4753C19.6809 13.5581 18.8016 14.4375 17.7187 14.4375H15.0937C14.0109 14.4375 13.1316 13.5581 13.125 12.4753V12.4687V9.8503C13.125 8.76092 14.0109 7.88155 15.0937 7.88155H17.7187C18.8016 7.88155 19.6875 8.76092 19.6875 9.8503V12.4687V12.4753Z" fill="#E6E9ED"/>
<path d="M25.5938 19.0313C26.3156 19.0313 26.9062 19.6212 26.9062 20.3438C26.9062 21.0715 26.3156 21.6563 25.5938 21.6563C24.8653 21.6563 24.2812 21.0715 24.2812 20.3438C24.2812 19.6212 24.8653 19.0313 25.5938 19.0313Z" fill="#FC6E51"/>
<path d="M24.2812 23.625H26.9062C27.9891 23.625 28.875 22.7384 28.875 21.6562V24.2813C28.875 25.3634 27.9891 26.25 26.9062 26.25H24.2812C23.1984 26.25 22.3125 25.3634 22.3125 24.2813V21.6562C22.3125 22.7384 23.1984 23.625 24.2812 23.625Z" fill="#656D78"/>
<path d="M24.2812 14.4375H26.9062C27.9891 14.4375 28.8684 13.5581 28.875 12.4753V15.1003C28.875 16.1831 27.9891 17.0691 26.9062 17.0691H24.2812C23.1984 17.0691 22.3125 16.1831 22.3125 15.1003V12.4753C22.3191 13.5581 23.1984 14.4375 24.2812 14.4375Z" fill="#656D78"/>
<path d="M15.0937 14.4375H17.7187C18.8016 14.4375 19.6809 13.5581 19.6875 12.4753V15.1003C19.6875 16.1831 18.8016 17.0691 17.7187 17.0691H15.0937C14.0109 17.0691 13.125 16.1831 13.125 15.1003V12.4753C13.1316 13.5581 14.0109 14.4375 15.0937 14.4375Z" fill="#656D78"/>
<path d="M15.0937 23.625H17.7187C18.8016 23.625 19.6875 22.7384 19.6875 21.6562V24.2813C19.6875 25.3634 18.8016 26.25 17.7187 26.25H15.0937C14.0109 26.25 13.125 25.3634 13.125 24.2813V21.6562C13.125 22.7384 14.0109 23.625 15.0937 23.625Z" fill="#656D78"/>
<path d="M7.21875 19.0313C7.94063 19.0313 8.53125 19.6212 8.53125 20.3438C8.53125 21.0715 7.94063 21.6563 7.21875 21.6563C6.49688 21.6563 5.90625 21.0715 5.90625 20.3438C5.90625 19.6212 6.49688 19.0313 7.21875 19.0313Z" fill="#FC6E51"/>
<path d="M5.90622 23.625H8.53122C9.61403 23.625 10.5 22.7384 10.5 21.6562V24.2813C10.5 25.3634 9.61403 26.25 8.53122 26.25H5.90622C4.82341 26.25 3.93747 25.3634 3.93747 24.2813V21.6562C3.93747 22.7384 4.82341 23.625 5.90622 23.625Z" fill="#656D78"/>
<path d="M5.90622 7.88155H8.53122C9.61403 7.88155 10.5 8.76092 10.5 9.8503V12.4687V12.4753C10.4934 13.5581 9.61403 14.4375 8.53122 14.4375H5.90622C4.82341 14.4375 3.94403 13.5581 3.93747 12.4753V12.4687V9.8503C3.93747 8.76092 4.82341 7.88155 5.90622 7.88155ZM7.21872 12.4687C7.94059 12.4687 8.53122 11.884 8.53122 11.1562C8.53122 10.4337 7.94059 9.84373 7.21872 9.84373C6.49684 9.84373 5.90622 10.4337 5.90622 11.1562C5.90622 11.884 6.49684 12.4687 7.21872 12.4687Z" fill="#E6E9ED"/>
<path d="M16.4062 19.0313C17.1281 19.0313 17.7187 19.6212 17.7187 20.3438C17.7187 21.0715 17.1281 21.6563 16.4062 21.6563C15.6844 21.6563 15.0938 21.0715 15.0938 20.3438C15.0938 19.6212 15.6844 19.0313 16.4062 19.0313Z" fill="#FC6E51"/>
<path d="M5.90622 14.4375H8.53122C9.61403 14.4375 10.4934 13.5581 10.5 12.4753V15.1003C10.5 16.1831 9.61403 17.0691 8.53122 17.0691H5.90622C4.82341 17.0691 3.93747 16.1831 3.93747 15.1003V12.4753C3.94403 13.5581 4.82341 14.4375 5.90622 14.4375Z" fill="#656D78"/>
<path d="M5.90622 17.0691H8.53122C9.61403 17.0691 10.5 17.9484 10.5 19.0378V21.6562C10.5 22.7384 9.61403 23.625 8.53122 23.625H5.90622C4.82341 23.625 3.93747 22.7384 3.93747 21.6562V19.0378C3.93747 17.9484 4.82341 17.0691 5.90622 17.0691ZM7.21872 21.6562C7.94059 21.6562 8.53122 21.0715 8.53122 20.3437C8.53122 19.6212 7.94059 19.0312 7.21872 19.0312C6.49684 19.0312 5.90622 19.6212 5.90622 20.3437C5.90622 21.0715 6.49684 21.6562 7.21872 21.6562Z" fill="#E6E9ED"/>
<path d="M15.0937 17.0691H17.7187C18.8016 17.0691 19.6875 17.9484 19.6875 19.0378V21.6562C19.6875 22.7384 18.8016 23.625 17.7187 23.625H15.0937C14.0109 23.625 13.125 22.7384 13.125 21.6562V19.0378C13.125 17.9484 14.0109 17.0691 15.0937 17.0691ZM17.7187 20.3437C17.7187 19.6212 17.1281 19.0312 16.4062 19.0312C15.6844 19.0312 15.0937 19.6212 15.0937 20.3437C15.0937 21.0715 15.6844 21.6562 16.4062 21.6562C17.1281 21.6562 17.7187 21.0715 17.7187 20.3437Z" fill="#E6E9ED"/>
<path d="M2.62503 29.5378H39.375C40.4578 29.5378 41.3438 28.6519 41.3438 27.5691V30.8503C41.3438 31.9331 40.4578 32.8191 39.375 32.8191H2.62503C1.54222 32.8191 0.656281 31.9331 0.656281 30.8503V27.5691C0.656281 28.6519 1.54222 29.5378 2.62503 29.5378Z" fill="#434A54"/>
<path d="M7.21875 9.84377C7.94063 9.84377 8.53125 10.4337 8.53125 11.1563C8.53125 11.884 7.94063 12.4688 7.21875 12.4688C6.49688 12.4688 5.90625 11.884 5.90625 11.1563C5.90625 10.4337 6.49688 9.84377 7.21875 9.84377Z" fill="#FC6E51"/>
<path d="M39.375 35.4375H2.625C2.26209 35.4375 1.96875 35.1442 1.96875 34.7813C1.96875 34.4184 2.26209 34.125 2.625 34.125H39.375C39.7379 34.125 40.0313 34.4184 40.0313 34.7813C40.0313 35.1442 39.7379 35.4375 39.375 35.4375Z" fill="#FFD2A6"/>
<path d="M39.375 37.4062H2.625C2.26209 37.4062 1.96875 37.1129 1.96875 36.75C1.96875 36.3871 2.26209 36.0937 2.625 36.0937H39.375C39.7379 36.0937 40.0313 36.3871 40.0313 36.75C40.0313 37.1129 39.7379 37.4062 39.375 37.4062Z" fill="#FFD2A6"/>
</svg>
