<svg width="40" height="40" viewBox="0 0 40 40" fill="none" xmlns="http://www.w3.org/2000/svg">
<g clip-path="url(#clip0)">
<path d="M17.7733 22.8942H2.66801C0.847923 22.8942 -0.436606 21.0733 0.13902 19.3096C1.19297 16.0791 2.38919 13.9001 5.72357 13.9001H14.7177C18.0521 13.9001 19.2483 16.0791 20.3023 19.3096C20.8779 21.0733 19.5926 22.8942 17.7733 22.8942Z" fill="#E6E6E6"/>
<path d="M20.4077 20.5631C20.2246 21.8419 19.1559 22.8942 17.7733 22.8942H2.66799C1.28535 22.8942 0.216677 21.8419 0.0335237 20.5631C0.0155354 20.5672 0 20.5803 0 20.604V34.1426C0 36.5097 1.91984 38.4296 4.28694 38.4296H16.1535C18.5214 38.4296 20.4413 36.5097 20.4413 34.1426V20.604C20.4413 20.5803 20.4257 20.5672 20.4077 20.5631Z" fill="#455560"/>
<path d="M10.2206 20.4413C12.7043 20.4413 14.7177 19.5261 14.7177 18.3971C14.7177 17.2682 12.7043 16.353 10.2206 16.353C7.73698 16.353 5.72357 17.2682 5.72357 18.3971C5.72357 19.5261 7.73698 20.4413 10.2206 20.4413Z" fill="#D75A4A"/>
<path d="M27.585 9.81181H12.4797C10.6596 9.81181 9.3751 7.9909 9.95073 6.22723C11.0047 2.9967 12.2009 0.817657 15.5353 0.817657H24.5294C27.8638 0.817657 29.06 2.9967 30.114 6.22723C30.6896 7.9909 29.4043 9.81181 27.585 9.81181Z" fill="#E6E6E6"/>
<path d="M20.0324 7.35886C22.5161 7.35886 24.5295 6.44368 24.5295 5.31474C24.5295 4.1858 22.5161 3.27061 20.0324 3.27061C17.5487 3.27061 15.5353 4.1858 15.5353 5.31474C15.5353 6.44368 17.5487 7.35886 20.0324 7.35886Z" fill="#D75A4A"/>
<path d="M39.1083 19.3096C38.0543 16.0791 35.2228 13.9001 31.8884 13.9001H22.0766C19.4209 13.9001 20.5754 15.286 19.6237 17.4822C19.8665 18.0423 20.0881 18.6531 20.3023 19.3096C20.6449 20.3587 20.3187 21.4192 19.6237 22.1133C20.0971 22.5868 20.7373 22.8942 21.474 22.8942H36.5793C38.3985 22.8942 39.6839 21.0733 39.1083 19.3096Z" fill="#E6E6E6"/>
<path d="M39.2137 20.5631C39.0306 21.8419 37.9619 22.8942 36.5793 22.8942H21.474C21.1028 22.8942 20.7561 22.8133 20.4413 22.6776V34.1418C20.4413 35.078 20.1331 35.9374 19.6237 36.643C20.4021 37.7207 21.6621 38.4296 23.0929 38.4296H34.9595C37.3274 38.4296 39.2473 36.5097 39.2473 34.1418V20.604C39.2473 20.5803 39.2317 20.5672 39.2137 20.5631Z" fill="#38454F"/>
<path d="M14.7177 13.9001C17.3734 13.9001 18.6718 15.286 19.6236 17.4822C20.5753 15.286 19.4208 13.9001 22.0765 13.9001H30.253V7.52159C30.253 7.49869 30.2375 7.48561 30.2195 7.48071C30.0363 8.75951 28.9677 9.81183 27.585 9.81183H12.4798C11.0971 9.81183 10.0284 8.75951 9.84529 7.48071C9.8273 7.48479 9.81177 7.49788 9.81177 7.52159V13.9001H14.7177Z" fill="#38454F"/>
<path d="M29.0266 20.4413C31.5102 20.4413 33.5236 19.5261 33.5236 18.3971C33.5236 17.2682 31.5102 16.353 29.0266 16.353C26.5429 16.353 24.5295 17.2682 24.5295 18.3971C24.5295 19.5261 26.5429 20.4413 29.0266 20.4413Z" fill="#D75A4A"/>
<path d="M4.08822 35.9766C3.63688 35.9766 3.27057 35.6111 3.27057 35.159V30.2531C3.27057 29.8009 3.63688 29.4354 4.08822 29.4354C4.53956 29.4354 4.90587 29.8009 4.90587 30.2531V35.159C4.90587 35.6111 4.53956 35.9766 4.08822 35.9766Z" fill="#546A79"/>
<path d="M4.08822 28.6153C3.63688 28.6153 3.27057 28.2498 3.27057 27.7977V25.3472C3.27057 24.895 3.63688 24.5295 4.08822 24.5295C4.53956 24.5295 4.90587 24.895 4.90587 25.3472V27.7977C4.90587 28.2498 4.53956 28.6153 4.08822 28.6153Z" fill="#546A79"/>
<path d="M24.5295 35.9766C24.0782 35.9766 23.7119 35.6111 23.7119 35.159V30.2531C23.7119 29.8009 24.0782 29.4354 24.5295 29.4354C24.9808 29.4354 25.3471 29.8009 25.3471 30.2531V35.159C25.3471 35.6111 24.9808 35.9766 24.5295 35.9766Z" fill="#546A79"/>
<path d="M24.5295 28.6153C24.0782 28.6153 23.7119 28.2498 23.7119 27.7977V25.3472C23.7119 24.895 24.0782 24.5295 24.5295 24.5295C24.9808 24.5295 25.3471 24.895 25.3471 25.3472V27.7977C25.3471 28.2498 24.9808 28.6153 24.5295 28.6153Z" fill="#546A79"/>
</g>
<defs>
<clipPath id="clip0">
<rect width="39.2472" height="39.2472" fill="white"/>
</clipPath>
</defs>
</svg>
