<svg width="40" height="40" viewBox="0 0 40 40" fill="none" xmlns="http://www.w3.org/2000/svg">
<g clip-path="url(#clip0)">
<path d="M27.5804 11.6671C27.0743 8.99943 24.7286 6.97586 21.9232 6.97586H17.3239C14.5185 6.97586 12.1728 8.99943 11.667 11.6671C8.99939 12.1731 6.97583 14.5186 6.97583 17.3239C6.97583 17.968 7.48157 18.4738 8.12565 18.4738H31.1215C31.7655 18.4738 32.2713 17.968 32.2713 17.3239C32.2713 14.5186 30.2477 12.1731 27.5804 11.6671Z" fill="#FDBF00"/>
<path d="M32.2714 17.3239C32.2714 17.968 31.7656 18.4738 31.1216 18.4738H19.6237V6.97586H21.9233C24.7287 6.97586 27.0744 8.99943 27.5805 11.6671C30.2478 12.1731 32.2714 14.5186 32.2714 17.3239Z" fill="#FF9100"/>
<path d="M32.2252 17.853L29.9717 38.2351C29.9259 38.4881 29.8109 38.7178 29.6267 38.9019L26.6372 37.9821H12.61L9.62046 38.9019C9.4363 38.7178 9.32132 38.4878 9.27551 38.2351L7.02198 17.853C7.02198 17.6231 6.81477 17.0712 7.275 16.5652L10.5403 17.853H28.7072L31.9725 16.5652C32.4324 17.0712 32.2252 17.6231 32.2252 17.853Z" fill="#FF641A"/>
<path d="M32.2253 17.853L29.9717 38.2351C29.9259 38.4881 29.8109 38.7178 29.6268 38.9019L26.6373 37.9821H19.6237V17.853H28.7069L31.9722 16.5652C32.4325 17.0712 32.2253 17.6231 32.2253 17.853Z" fill="#F03800"/>
<path d="M19.6248 18.4737C19.5709 18.4737 19.5158 18.4704 19.4607 18.4626C18.8319 18.3728 18.3953 17.7901 18.4852 17.1613L20.7848 0.987443C20.8746 0.358635 21.4585 -0.0782372 22.0861 0.0115925C22.7149 0.101422 23.1518 0.684118 23.062 1.31323L20.7623 17.4868C20.6803 18.0605 20.1883 18.4737 19.6248 18.4737Z" fill="#673416"/>
<path d="M24.2229 18.4738C24.1028 18.4738 23.9803 18.4549 23.859 18.4145C23.2572 18.2145 22.9314 17.5632 23.1326 16.9604L27.7316 3.08593C27.9316 2.48408 28.5772 2.15739 29.1856 2.35951C29.7878 2.55953 30.1133 3.2108 29.9124 3.81356L25.3131 17.6878C25.1526 18.1695 24.7046 18.4738 24.2229 18.4738Z" fill="#673416"/>
<path d="M0.193426 22.561C-0.159006 22.0323 -0.016476 21.3193 0.512322 20.9666L7.4879 16.3673C8.0167 16.0149 8.72965 16.1586 9.08238 16.6862C9.43481 17.215 9.29228 17.9282 8.76348 18.2807L1.7879 22.8799C1.24982 23.2366 0.540169 23.0818 0.193426 22.561Z" fill="#FFF4CA"/>
<path d="M37.4593 22.88L30.484 18.281C29.9549 17.9282 29.8124 17.2153 30.1651 16.6865C30.5164 16.1586 31.2296 16.0149 31.7596 16.3676L38.7349 20.9666C39.2637 21.3193 39.4065 22.0323 39.0538 22.5611C38.707 23.0818 37.9971 23.2366 37.4593 22.88Z" fill="#FFE1BA"/>
<path d="M29.6267 38.902C29.4198 39.1089 29.144 39.2469 28.8221 39.2469H10.4253C10.1034 39.2469 9.82733 39.1089 9.62042 38.902L14.2197 32.6929C14.4266 32.4633 14.7254 32.3483 15.0243 32.3483H24.2228C24.5217 32.3483 24.8208 32.4633 25.0277 32.6929L29.6267 38.902Z" fill="#F03800"/>
<path d="M25.0278 32.6929L29.6268 38.902C29.4199 39.1089 29.1441 39.2469 28.8222 39.2469H19.6237V32.3483H24.2229C24.5218 32.3483 24.8209 32.4633 25.0278 32.6929Z" fill="#CD0000"/>
<path d="M31.9724 16.5652L27.3271 22.7281C27.1201 22.9581 26.8213 23.073 26.5225 23.073H12.7249C12.4258 23.073 12.127 22.9581 11.9201 22.7281L7.27466 16.5652C7.48157 16.3122 7.80346 16.1744 8.12565 16.1744H31.1215C31.4436 16.1744 31.7655 16.3122 31.9724 16.5652Z" fill="#FFF4CA"/>
<path d="M31.9726 16.5652L27.3272 22.7281C27.1202 22.9581 26.8214 23.073 26.5226 23.073H19.6237V16.1744H31.1216C31.4438 16.1744 31.7656 16.3122 31.9726 16.5652Z" fill="#FFE1BA"/>
</g>
<defs>
<clipPath id="clip0">
<rect width="39.2472" height="39.2472" fill="white"/>
</clipPath>
</defs>
</svg>
