<svg width="38" height="38" viewBox="0 0 38 38" fill="none" xmlns="http://www.w3.org/2000/svg">
    <path d="M18.8 1.066l-.01.034c-8.017.755-14.16 5.048-14.16 10.23 0 1.898.826 3.678 2.266 5.207a.762.762 0 0 1 .206.523v19.957H2.855a.384.384 0 0 1-.383-.383V17.06a.762.762 0 0 0-.207-.523C.825 15.007 0 13.228 0 11.33 0 5.615 7.47.983 16.685.983c.716 0 1.422.028 2.115.083z" fill="#BF5732"/>
    <path d="M38 11.33C38 5.614 30.53.982 21.315.982S4.63 5.615 4.63 11.329c0 1.9.826 3.679 2.266 5.208a.763.763 0 0 1 .206.523v19.957h28.043a.384.384 0 0 0 .383-.384V17.06c0-.194.073-.381.206-.523C37.174 15.007 38 13.228 38 11.33z" fill="#E59770"/>
    <path d="M38 11.33c0 1.898-.826 3.677-2.266 5.208a.763.763 0 0 0-.206.522v19.573a.384.384 0 0 1-.383.384h-1.577V17.06a.76.76 0 0 1 .206-.522c1.44-1.53 2.266-3.31 2.266-5.208 0-5.511-6.947-10.015-15.704-10.33.323-.01.65-.017.98-.017C30.53.983 38 5.615 38 11.33z" fill="#DB7E56"/>
    <path d="M24.41 4.657c-1.773-.706-3.77-.908-5.653-.605-2.21.356-4.324 1.393-5.866 3.028-2.86 3.034-3.53 7.952-1.502 11.594 2.024 3.634 6.148 5.581 10.189 6.568 1.49.364 3.024.631 4.555.519 1.53-.113 3.07-.634 4.193-1.68 1.459-1.356 2.06-3.565 1.488-5.473-.345-1.154-1.166-1.919-1.615-2.932-.4-.905-.167-2.077-.295-3.038-.187-1.392-.345-2.814-1.035-4.066a8.818 8.818 0 0 0-4.46-3.915z" fill="#F9E8D4"/>
    <path d="M30.326 24.082c-1.123 1.045-2.662 1.566-4.193 1.678a10.83 10.83 0 0 1-1.819-.027c1.429-.157 2.84-.675 3.89-1.65 1.458-1.358 2.059-3.566 1.488-5.475-.345-1.154-1.166-1.919-1.616-2.932-.4-.905-.167-2.077-.295-3.037-.186-1.393-.345-2.815-1.034-4.067a8.819 8.819 0 0 0-4.46-3.915 10.52 10.52 0 0 0-2.874-.69 10.779 10.779 0 0 1 4.997.69 8.818 8.818 0 0 1 4.46 3.915c.688 1.252.847 2.674 1.034 4.067.128.96-.105 2.132.295 3.037.45 1.013 1.27 1.778 1.615 2.932.571 1.909-.03 4.117-1.488 5.474z" fill="#E8D0BA"/>
    <path d="M21.123 14.616a3.629 3.629 0 1 0 0-7.258 3.629 3.629 0 0 0 0 7.258z" fill="#FEC007"/>
    <path d="M24.224 12.872a3.628 3.628 0 0 1-6.519-.664 3.63 3.63 0 0 0 5.596-4.123 3.629 3.629 0 0 1 .923 4.787z" fill="#EFAD0A"/>
    <path d="M15.51 31.086l3.822-13.603a.383.383 0 0 1 .473-.265l3.236.909a.38.38 0 0 1 .28.362c.002.561.141 1.13.432 1.658a3.487 3.487 0 0 0 4.563 1.44 3.46 3.46 0 0 0 1.43-1.294.38.38 0 0 1 .426-.162l3.236.909c.204.057.323.27.266.473L29.85 35.117a.384.384 0 0 1-.473.265l-13.603-3.823a.383.383 0 0 1-.266-.473z" fill="#FEC007"/>
    <path d="M33.674 21.513L29.85 35.116a.385.385 0 0 1-.473.266l-.97-.272a.398.398 0 0 0 .07-.136l3.926-13.976a.39.39 0 0 0-.01-.243l1.014.285c.204.057.323.269.266.473z" fill="#EFAD0A"/>
    <path d="M26.509 31.316a.69.69 0 1 0 0-1.38.69.69 0 0 0 0 1.38z" fill="#EFAD0A"/>
    <path d="M21.933 24.138a.69.69 0 1 0 0-1.38.69.69 0 0 0 0 1.38z" fill="#EFAD0A"/>
    <path d="M26.56 28.396a.69.69 0 1 0 0-1.38.69.69 0 0 0 0 1.38z" fill="#EFAD0A"/>
    <path d="M18.296 32.547a.4.4 0 0 0 .293-.446c-.175-1.198.607-1.53.241-2.9-.399-1.497-1.366-1.239-1.765-2.735-.399-1.496.568-1.754.169-3.25-.4-1.495-1.366-1.238-1.765-2.733-.4-1.496.568-1.754.169-3.25-.4-1.496-1.366-1.238-1.766-2.734-.399-1.496.568-1.754.17-3.25-.367-1.372-1.21-1.27-1.655-2.396a.401.401 0 0 0-.476-.241l-8.195 2.186a.401.401 0 0 0-.262.552c.455 1.019 1.257.965 1.612 2.293.399 1.496-.568 1.754-.17 3.25.4 1.496 1.367 1.238 1.766 2.734.4 1.496-.568 1.754-.169 3.25.4 1.496 1.366 1.238 1.765 2.734.4 1.496-.567 1.754-.168 3.25.399 1.496 1.366 1.238 1.765 2.734.354 1.328-.369 1.68-.255 2.79a.401.401 0 0 0 .502.349l8.194-2.187z" fill="#F75267"/>
    <path d="M9.516 18.475c.448 1.678-.637 1.968-.19 3.646.448 1.678 1.533 1.389 1.981 3.067.448 1.678-.637 1.968-.19 3.646.448 1.679 1.533 1.39 1.981 3.067.262.984-.002 1.49-.175 2.08l-1.563.417c.173-.59.438-1.096.175-2.08-.448-1.678-1.533-1.388-1.98-3.067-.448-1.678.637-1.968.19-3.646-.449-1.678-1.534-1.389-1.981-3.067-.448-1.678.637-1.968.19-3.646-.449-1.678-1.534-1.389-1.981-3.067-.448-1.679.637-1.968.19-3.646-.263-.984-.745-1.292-1.189-1.717l1.563-.417c.444.425.926.733 1.188 1.716.448 1.679-.637 1.968-.19 3.647.448 1.678 1.533 1.389 1.981 3.067z" fill="#ED2E4E"/>
    <path d="M15.638 17.233c.399 1.495-.568 1.753-.169 3.25.399 1.495 1.366 1.237 1.765 2.733.4 1.496-.568 1.755-.169 3.25.4 1.496 1.366 1.238 1.765 2.734.366 1.372-.416 1.703-.241 2.901a.4.4 0 0 1-.293.446l-1.563.417a.401.401 0 0 0 .293-.446c-.175-1.198.607-1.53.241-2.9-.399-1.497-1.366-1.239-1.765-2.735-.399-1.496.568-1.753.169-3.25-.4-1.496-1.366-1.238-1.765-2.733-.4-1.497.568-1.755.169-3.25-.4-1.496-1.366-1.238-1.765-2.735-.4-1.495.567-1.753.168-3.25-.366-1.371-1.209-1.268-1.654-2.395a.401.401 0 0 0-.476-.241l1.563-.417a.401.401 0 0 1 .476.241c.445 1.127 1.288 1.024 1.654 2.395.4 1.497-.568 1.755-.168 3.25.399 1.497 1.366 1.239 1.765 2.735z" fill="#ED2E4E"/>
    <path d="M6.57 10.037l3.126-.834c.444.424.925.732 1.188 1.716.447 1.678-.638 1.967-.19 3.646.448 1.678 1.533 1.39 1.98 3.068.448 1.678-.637 1.967-.189 3.646.448 1.678 1.533 1.388 1.98 3.067.448 1.678-.637 1.967-.189 3.646.448 1.678 1.533 1.389 1.98 3.067.263.984-.001 1.49-.174 2.08l-3.127.833c.174-.589.438-1.095.175-2.08-.447-1.677-1.532-1.388-1.98-3.066-.448-1.679.637-1.968.19-3.646-.448-1.679-1.533-1.39-1.98-3.067-.449-1.679.636-1.968.189-3.646-.448-1.679-1.533-1.39-1.98-3.068-.449-1.679.636-1.968.188-3.646-.262-.984-.743-1.292-1.187-1.716z" fill="#F9E8D4"/>
    <path d="M12.675 17.633c.447 1.678-.638 1.967-.19 3.646.448 1.678 1.533 1.388 1.98 3.067.448 1.678-.637 1.967-.189 3.646.448 1.678 1.533 1.389 1.98 3.067.263.984-.001 1.49-.174 2.08l-1.563.416c.173-.589.437-1.095.175-2.08-.448-1.677-1.533-1.388-1.98-3.066-.449-1.679.636-1.968.189-3.646-.448-1.679-1.533-1.39-1.98-3.068-.449-1.678.636-1.967.189-3.646-.448-1.678-1.533-1.389-1.98-3.067-.449-1.679.636-1.968.189-3.646-.263-.984-.744-1.292-1.188-1.716l1.563-.417c.444.424.925.732 1.188 1.716.447 1.678-.638 1.967-.19 3.646.448 1.678 1.533 1.39 1.98 3.068z" fill="#E8D0BA"/>
</svg>
