<svg width="40" height="40" viewBox="0 0 40 40" fill="none" xmlns="http://www.w3.org/2000/svg">
    <g clip-path="url(#a)">
        <path d="M34.286 0C28.57 0 20 3.636 10.909 12.727l-1.818 1.819C9.091 20 5.455 20 5.455 20 2.303 24.798 0 29.79 0 34.545 0 34.545 0 40 5.714 40s12.121-3.636 19.74-10.91C30.217 24.547 40 12.728 40 5.456 40 5.455 40 0 34.286 0z" fill="#AD6143"/>
        <path d="M30.255 4.29c-2.374-2.374-10.518 1.92-18.19 9.593a61.341 61.341 0 0 0-3.603 3.931A3.946 3.946 0 0 1 7.21 19.36C2.733 25.106.663 30.265 2.472 32.073c2.374 2.374 10.518-1.92 18.19-9.593 7.672-7.673 11.967-15.816 9.593-18.19z" fill="#A34E2D"/>
        <path d="M5.714 40v-3.636c4.614 0 10.25-3.239 17.23-9.904 5.604-5.349 13.42-15.927 13.42-21.005H40c0 7.297-9.99 19.286-14.545 23.636C17.766 36.43 11.309 40 5.714 40z" fill="#C28A73"/>
        <path d="M25.373 15.003l-1.765-.43c.087-.36-.012-.667-.305-.942-.36-.338-1.368-.904-4.082-.904-1.99 0-4.397.313-6.776.883l-.423-1.769c2.513-.602 5.07-.932 7.199-.932 2.583 0 4.327.456 5.326 1.397.77.721 1.07 1.705.826 2.697z" fill="#993B17"/>
        <path d="M8.116 21.805a16.017 16.017 0 0 1-2.187-.137l.252-1.8c2.455.337 6.422-.09 10.008-1.106l.494 1.75c-2.91.822-6.033 1.293-8.567 1.293z" fill="#AD6143"/>
        <path d="M11.083 13.964c-.705.2-1.37.413-1.994.636-.019 3.85-1.856 4.952-2.91 5.268 2.425.334 6.236-.039 10.01-1.106 5.34-1.509 8.524-3.806 7.113-5.131-1.41-1.325-6.88-1.176-12.219.333z" fill="#FDCF6D"/>
        <path d="M10.263 16.12l-.572-1.727c.446-.147.91-.293 1.394-.428 2.78-.786 5.746-1.237 8.136-1.237 1.166 0 3.247.117 4.082.904l-1.247 1.324c-.003 0-.618-.41-2.835-.41-2.23 0-5.016.426-7.644 1.17-.456.128-.893.263-1.314.403z" fill="#FDAB00"/>
        <path d="M3.47 28.052l-.924-1.566C4.49 25.343 7.26 24.51 9.204 24.11c1.528-.31 2.989-.474 4.23-.474 2.077 0 3.45.445 4.192 1.359l-1.413 1.147c-.167-.208-.773-.687-2.78-.687-1.121 0-2.456.15-3.865.438-1.717.352-4.346 1.128-6.099 2.16z" fill="#993B17"/>
        <path d="M4.748 32.727c-2.078 0-3.45-.443-4.192-1.358l1.413-1.147c.167.208.773.687 2.779.687 1.122 0 2.457-.15 3.865-.438 3.49-.714 7.438-2.36 7.735-3.772l1.779.373c-.703 3.356-8.287 5.004-9.15 5.181-1.527.31-2.988.474-4.23.474z" fill="#B7745A"/>
        <path d="M16.346 26.403c-.28-1.141-3.755-1.27-7.762-.287-4.007.982-7.028 2.704-6.748 3.846.28 1.14 3.755 1.27 7.762.287 4.006-.983 7.028-2.704 6.748-3.846z" fill="#FDCF6D"/>
        <path d="M3.535 30.24l-1.493-1.036c.69-1 3.565-2.5 7.528-3.311 1.405-.286 2.74-.439 3.864-.439 1.307 0 2 .2 2.35.368L15 27.462c-.016-.007-.41-.19-1.566-.19-1.003 0-2.212.139-3.498.403-4.027.822-6.156 2.238-6.4 2.564z" fill="#FDAB00"/>
        <path d="M36.309 3.436l-1.78-.373a.636.636 0 0 0-.133-.556c-.25-.309-.847-.533-1.678-.632L32.931.07c1.362.16 2.302.58 2.875 1.287.478.578.664 1.345.503 2.078z" fill="#A34E2D"/>
        <path d="M22.93 9.09c-2.078 0-3.45-.443-4.192-1.358l1.413-1.147c.167.208.772.687 2.779.687 1.122 0 2.457-.15 3.865-.438l.362 1.783c-1.525.31-2.986.474-4.227.474z" fill="#AD6143"/>
        <path d="M34.527 2.767c-.28-1.142-3.754-1.27-7.76-.288-4.008.983-7.029 2.705-6.749 3.846.28 1.141 3.755 1.27 7.761.288 4.007-.983 7.028-2.705 6.748-3.846z" fill="#FDCF6D"/>
        <path d="M21.717 6.603l-1.493-1.035c.69-1 3.565-2.5 7.528-3.312 1.405-.286 2.74-.438 3.864-.438 1.307 0 2 .2 2.35.367l-.784 1.64c-.016-.006-.41-.189-1.566-.189-1.003 0-2.213.139-3.498.403-4.027.822-6.156 2.237-6.401 2.564z" fill="#FDAB00"/>
        <path d="M32.727 10c0-.502-1.221-.909-2.727-.909-1.506 0-2.727.407-2.727.909s1.22.91 2.727.91c1.506 0 2.727-.408 2.727-.91z" fill="#A34E2D"/>
        <path d="M27.273 20c0-1.005-1.221-1.819-2.728-1.819-1.506 0-2.727.814-2.727 1.819 0 1.004 1.221 1.818 2.727 1.818 1.506 0 2.728-.814 2.728-1.818z" fill="#A34E2D"/>
        <path d="M7.273 36.363c0-1.004-1.221-1.818-2.728-1.818-1.506 0-2.727.814-2.727 1.818s1.221 1.818 2.727 1.818c1.507 0 2.728-.814 2.728-1.818z" fill="#C28A73"/>
        <path d="M38.182 5.455a1.818 1.818 0 1 1-3.636 0 1.818 1.818 0 0 1 3.636 0z" fill="#C28A73"/>
        <path d="M36.364 12.727c0-1.004-1.221-1.818-2.727-1.818-1.507 0-2.728.814-2.728 1.818s1.221 1.818 2.727 1.818c1.507 0 2.728-.814 2.728-1.818z" fill="#A34E2D"/>
        <path d="M23.636 26.363c0-.502-.814-.909-1.818-.909S20 25.861 20 26.363s.814.91 1.818.91 1.818-.408 1.818-.91z" fill="#A34E2D"/>
        <path d="M10.91 32.727c0-1.004-1.629-1.818-3.637-1.818-2.009 0-3.637.814-3.637 1.819 0 1.004 1.628 1.818 3.637 1.818 2.008 0 3.636-.814 3.636-1.819z" fill="#B7745A"/>
        <path d="M21.818 20.908c0-.502-.814-.909-1.818-.909-1.005 0-1.819.407-1.819.91 0 .501.814.909 1.819.909 1.004 0 1.818-.408 1.818-.91z" fill="#993B17"/>
        <path d="M18.182 23.636c0-1.004-1.221-1.818-2.728-1.818-1.506 0-2.727.814-2.727 1.818s1.221 1.818 2.727 1.818c1.507 0 2.728-.814 2.728-1.818z" fill="#993B17"/>
        <path d="M27.273 11.818c0-.502-.814-.91-1.819-.91-1.004 0-1.818.408-1.818.91s.814.909 1.818.909c1.005 0 1.819-.407 1.819-.909z" fill="#993B17"/>
        <path d="M29.09 15.454c0-.502-.813-.909-1.817-.909s-1.818.407-1.818.91c0 .501.814.908 1.818.908s1.818-.407 1.818-.909z" fill="#A34E2D"/>
    </g>
    <defs>
        <clipPath id="a">
            <path fill="#fff" d="M0 0h40v40H0z"/>
        </clipPath>
    </defs>
</svg>
