<svg width="42" height="42" viewBox="0 0 42 42" fill="none" xmlns="http://www.w3.org/2000/svg">
<g clip-path="url(#clip0)">
<path d="M31.5 37.8001H10.5001C4.70116 37.8001 0 33.0989 0 27.3H42.0001C42.0001 33.0989 37.299 37.8001 31.5 37.8001Z" fill="#CC4900"/>
<path d="M27.2999 27.3H39.8999V31.5001H27.2999V27.3Z" fill="#E76400"/>
<path d="M29.4001 27.3H0C0 33.0989 4.70116 37.8001 10.5001 37.8001H18.9C24.699 37.8001 29.4001 33.0989 29.4001 27.3Z" fill="#EF7F00"/>
<path d="M31.5 37.8001V33.6C34.3731 33.6 36.8825 31.6566 37.6012 28.875L41.6679 29.9251C40.4701 34.5609 36.2884 37.8001 31.5 37.8001Z" fill="#BF3C00"/>
<path d="M2.09987 27.3H27.2999V31.5001H2.09987V27.3Z" fill="#F59707"/>
<path d="M20.9999 33.6L2.09987 25.2001H39.8999L20.9999 33.6Z" fill="#FDBC34"/>
<path d="M20.5734 31.4909L34.5258 25.2901L35.3791 27.2097L21.4267 33.4105L20.5734 31.4909Z" fill="#FDAB00"/>
<path d="M4.20013 18.9001H37.8C40.1194 18.9001 42.0001 20.7804 42.0001 23.0999C42.0001 25.4197 40.1194 27.3 37.8 27.3H4.20013C1.88031 27.3 0 25.4197 0 23.0999C0 20.7804 1.88031 18.9001 4.20013 18.9001Z" fill="#8B2800"/>
<path d="M4.20013 18.9001H25.2C27.5194 18.9001 29.4001 20.7804 29.4001 23.0999C29.4001 25.4197 27.5194 27.3 25.2 27.3H4.20013C1.88031 27.3 0 25.4197 0 23.0999C0 20.7804 1.88031 18.9001 4.20013 18.9001Z" fill="#993B17"/>
<path d="M31.5 21C31.5 18.6806 27.2691 16.7999 22.05 16.7999C16.8309 16.7999 12.6 18.6806 12.6 21C12.6 23.3194 16.8309 25.2001 22.05 25.2001C27.2691 25.2001 31.5 23.3194 31.5 21Z" fill="#C11107"/>
<path d="M39.8999 19.9499C39.8999 17.0506 35.669 14.7 30.4499 14.7C25.2308 14.7 20.9999 17.0506 20.9999 19.9499C20.9999 22.8496 25.2308 25.2002 30.4499 25.2002C35.669 25.2002 39.8999 22.8496 39.8999 19.9499Z" fill="#C82E25"/>
<path d="M20.9999 18.9001C20.9999 16.5803 16.769 14.7 11.5499 14.7C6.33076 14.7 2.09987 16.5803 2.09987 18.9001C2.09987 21.2196 6.33076 23.0999 11.5499 23.0999C16.769 23.0999 20.9999 21.2196 20.9999 18.9001Z" fill="#C82E25"/>
<path d="M37.8 19.9499C37.8 18.2103 34.5093 16.7999 30.4499 16.7999C26.3909 16.7999 23.1001 18.2103 23.1001 19.9499C23.1001 21.6898 26.3909 23.0999 30.4499 23.0999C34.5093 23.0999 37.8 21.6898 37.8 19.9499Z" fill="#D2514A"/>
<path d="M2.09987 18.9001C2.09987 18.9001 2.09987 21 6.3 21C10.5001 21 10.5001 23.0999 12.6 23.0999C14.6999 23.0999 14.6999 21 18.9 21C23.1001 21 22.6914 23.0999 24.9958 23.0999C27.2999 23.0999 27.2999 21 31.5 21C35.7001 21 39.8999 21 39.8999 16.7999H2.09987V18.9001Z" fill="#FEE3AA"/>
<path d="M12.6 18.9002C12.6 10.7814 19.1815 4.19992 27.2999 4.19992C35.4187 4.19992 42.0001 10.7814 42.0001 18.9002H12.6Z" fill="#EF7F00"/>
<path d="M35.7001 8.40004C35.7001 6.08061 31.9391 4.19992 27.2999 4.19992C22.6606 4.19992 18.9 6.08061 18.9 8.40004C18.9 10.7195 22.6606 12.6002 27.2999 12.6002C31.9391 12.6002 35.7001 10.7195 35.7001 8.40004Z" fill="#E76400"/>
<path d="M30.4499 27.3001C29.1002 27.3008 27.7548 27.1497 26.4385 26.8498C24.9951 27.1509 23.5246 27.3016 22.05 27.3001C18.4951 27.3001 15.2867 26.5145 13.1629 25.1363C12.6381 25.1763 12.1005 25.2002 11.5499 25.2002C7.875 25.2002 4.55696 24.3696 2.44748 22.9207L3.63719 21.1896C5.40483 22.4039 8.28913 23.0999 11.5499 23.0999C12.1682 23.0999 12.7673 23.0672 13.3494 23.013L13.7401 22.9769L14.0581 23.2057C16.5548 24.9991 21.7843 25.7362 26.2201 24.7488L26.4601 24.6957L26.6981 24.753C27.9263 25.051 29.186 25.2013 30.4499 25.2002C34.0798 25.2002 37.3324 24.0712 38.9393 22.2532L40.512 23.6436C38.4902 25.9331 34.7281 27.3001 30.4499 27.3001Z" fill="#7D1A00"/>
<path d="M31.5 14.7H39.8999V18.9002H31.5V14.7Z" fill="#FDBC34"/>
<path d="M0 18.9002C0 10.7814 6.58147 4.19992 14.6999 4.19992C22.8187 4.19992 29.4001 10.7814 29.4001 18.9002H0Z" fill="#F59707"/>
<path d="M2.09987 14.7H27.2999V18.9002H2.09987V14.7Z" fill="#FDCF6D"/>
<path d="M23.1001 8.40004C23.1001 6.08061 19.3391 4.19992 14.6999 4.19992C10.0606 4.19992 6.3 6.08061 6.3 8.40004C6.3 10.7195 10.0606 12.6002 14.6999 12.6002C19.3391 12.6002 23.1001 10.7195 23.1001 8.40004Z" fill="#EF7F00"/>
<path d="M10.5001 9.45017C10.5001 8.87031 9.55998 8.40004 8.39987 8.40004C7.24016 8.40004 6.3 8.87031 6.3 9.45017C6.3 10.03 7.24016 10.4999 8.39987 10.4999C9.55998 10.4999 10.5001 10.03 10.5001 9.45017Z" fill="#FEE3AA"/>
<path d="M16.8001 5.25005C16.8001 4.67019 15.86 4.19992 14.6999 4.19992C13.5402 4.19992 12.6 4.67019 12.6 5.25005C12.6 5.82991 13.5402 6.30018 14.6999 6.30018C15.86 6.30018 16.8001 5.82991 16.8001 5.25005Z" fill="#FEE3AA"/>
<path d="M23.1001 7.34992C23.1001 6.77006 22.16 6.30017 20.9999 6.30017C19.8402 6.30017 18.9 6.77006 18.9 7.34992C18.9 7.92977 19.8402 8.40004 20.9999 8.40004C22.16 8.40004 23.1001 7.92977 23.1001 7.34992Z" fill="#FEE3AA"/>
<path d="M33.5999 7.34992C33.5999 6.77006 32.6597 6.30017 31.5 6.30017C30.3403 6.30017 29.4001 6.77006 29.4001 7.34992C29.4001 7.92977 30.3403 8.40004 31.5 8.40004C32.6597 8.40004 33.5999 7.92977 33.5999 7.34992Z" fill="#FDCF6D"/>
<path d="M27.2999 5.25005C27.2999 4.67019 26.3597 4.19992 25.2 4.19992C24.0403 4.19992 23.1001 4.67019 23.1001 5.25005C23.1001 5.82991 24.0403 6.30018 25.2 6.30018C26.3597 6.30018 27.2999 5.82991 27.2999 5.25005Z" fill="#FDCF6D"/>
</g>
<defs>
<clipPath id="clip0">
<rect width="42" height="42" fill="white"/>
</clipPath>
</defs>
</svg>
