<svg width="42" height="42" viewBox="0 0 42 42" fill="none" xmlns="http://www.w3.org/2000/svg">
    <g clip-path="url(#a)">
        <path d="M41.918 18.15c-.001-6.853-7.693-12.408-17.182-12.408-3.202 0-6.195.636-8.758 1.74-2.863 1.232-5.877 2.061-8.835 3.045-4.29 1.427-7.224 4.302-7.225 7.622v5.731c.001 3.321 2.935 6.196 7.226 7.623 2.957.984 5.97 1.812 8.834 3.045 2.563 1.104 5.556 1.74 8.758 1.74 9.489 0 17.181-5.555 17.182-12.408v-5.73z" fill="#EDB4A2"/>
        <path d="M24.736 5.742c-2.89 0-5.61.518-7.998 1.43-2.855 1.092-5.684 2.269-8.635 3.066-4.808 1.299-8.185 4.35-8.185 7.913 0 3.564 3.377 6.614 8.185 7.913 2.951.798 5.78 1.974 8.635 3.066 2.388.912 5.108 1.43 7.998 1.43 9.49 0 17.182-5.556 17.182-12.409 0-6.853-7.693-12.409-17.182-12.409z" fill="#F3CDC1"/>
        <path d="M39.887 19.48A1.927 1.927 0 0 0 38 17.197h-5.627c-3.819 0-3.655 1.443-3.655 1.909 0 .463.183.907.511 1.234 1.26 1.26 1.795 2.494 2.022 4.809.123 1.26 1.493 1.978 2.62 1.398 3.233-1.663 5.482-4.182 6.016-7.067z" fill="#AE2B00"/>
        <path d="M40.862 17.893a.955.955 0 0 0-.951 1.046l.007.106v.022l.001.001v.139l-.002.012V19.242l-.001.003V19.253l-.001.004V19.27l-.001.001v.011l-.001.002V19.293l-.001.001V19.307l-.001.003v.005l-.002.01v.006l-.002.014v.004l-.002.013v.004l-.002.013v.004c-.002.005-.002.009-.002.014l-.001.003-.002.014v.004l-.001.003-.002.01v.007l-.001.001-.002.01v.006l-.001.002v.004l-.001.004-.001.003v.003l-.001.001v.004l-.001.004-.002.01v.002l-.002.01-.001.005-.001.004-.001.006v.003l-.002.007v.002l-.002.008v.001l-.004.019-.002.009v.002l-.002.007v.002l-.002.008v.002l-.001.007v.002a1.787 1.787 0 0 0-.008.038l-.002.009-.002.01-.003.01-.01.047c-.299 1.371-.986 2.656-1.982 3.8l-.006.007-.007.008a2.213 2.213 0 0 1-.035.04h-.001l-.006.007-.001.002-.006.006v.001l-.007.007-.001.001a.137.137 0 0 1-.006.008l-.015.015v.001a.126.126 0 0 0-.006.007l-.002.002-.005.005-.006.008-.003.002-.005.006-.002.002-.004.005-.003.003-.005.006-.002.002-.006.006-.003.003-.004.005-.003.003-.003.004-.004.004-.003.004-.003.003-.004.004-.003.004-.003.003-.004.004-.002.002a.916.916 0 0 1-.017.018v.001l-.005.006-.002.002-.005.005-.002.002-.005.005-.002.002-.004.005-.002.002-.03.033-.007.007-.006.006v.001a10.292 10.292 0 0 1-.227.234 13.382 13.382 0 0 1-2.791 2.124l-.046.026-.009.005-.036.021-.009.005a1.997 1.997 0 0 1-.045.025v.002l-.037.02-.055.03-.01.005v.001l-.008.005h-.001l-.027.015h-.001l-.008.005h-.001l-.008.005-.028.015-.001.001-.008.004-.001.001-.008.004-.002.001-.026.015h-.002l-.007.005h-.002l-.007.004-.002.002-.008.004a.413.413 0 0 1-.02.01l-.008.005h-.002l-.007.005h-.002l-.007.005h-.002l-.018.01h-.002l-.006.005-.003.001-.006.003-.003.002-.007.003-.001.001-.018.01h-.002l-.007.005-.01.004-.002.002-.006.003-.002.001-.008.005h-.001l-.01.005-.008.004-.01.005-.002.002-.009.004-.007.004h-.001l-.01.005-.008.005-.003.001-.009.005-.006.003-.012.006-.009.005-.008.005h-.003l-.006.004-.003.002-.006.003-.01.005h-.002l-.01.005a1.814 1.814 0 0 1-.832.204 1.783 1.783 0 0 1-1.786-1.602l-.001-.009v-.002-.006l-.001-.002v-.007l-.001-.001v-.009h-.001v-.01l-.002-.006v-.002-.01l-.001-.006v-.002l-.001-.007v-.002l-.001-.008-.001-.008v-.002l-.001-.006v-.002l-.001-.008v-.008l-.001-.002v-.007l-.001-.001-.002-.017v-.01l-.002-.008v-.01l-.001-.006v-.003l-.002-.006v-.01l-.001-.007v-.002l-.001-.008a.07.07 0 0 1-.001-.008v-.002l-.001-.006v-.002-.008l-.002-.008v-.008l-.001-.002v-.007h-.001l-.002-.017v-.001-.007l-.001-.002-.002-.016v-.001V24.825l-.004-.024c0-.009-.002-.017-.003-.025v-.002l-.001-.007v-.008l-.001-.002v-.006l-.001-.003v-.007l-.002-.008v-.007l-.001-.003v-.005l-.001-.003-.002-.015v-.008l-.001-.002-.001-.007-.001-.008v-.002l-.001-.006v-.002l-.001-.007-.001-.008v-.002l-.001-.006v-.002l-.001-.006v-.002l-.002-.007v-.002a.03.03 0 0 0 0-.006v-.002l-.002-.006v-.002l-.002-.015v-.002-.005l-.001-.003v-.005l-.001-.004-.001-.006v-.002-.005l-.001-.003-.001-.006-.002-.008v-.01l-.001-.005v-.004l-.002-.006v-.002a.02.02 0 0 0 0-.005l-.001-.003v-.007l-.002-.007v-.003-.005l-.002-.002v-.008l-.001-.007v-.001l-.001-.006v-.003l-.001-.004-.001-.003v-.006l-.002-.008v-.003l-.002-.008v-.007l-.001-.006v-.003l-.001-.005v-.003l-.002-.005v-.002l-.001-.007v-.007l-.001-.003v-.005l-.001-.002-.002-.007v-.003-.007l-.001-.004-.001-.003a.16.16 0 0 1-.001-.007v-.002l-.001-.005v-.007l-.002-.004v-.004a.09.09 0 0 0-.001-.005v-.004l-.001-.003v-.004l-.001-.004v-.003l-.002-.006v-.004l-.001-.004v-.006l-.002-.004v-.01l-.001-.003-.001-.003v-.004l-.001-.004v-.004l-.002-.005v-.004l-.001-.003v-.008l-.002-.003v-.008l-.001-.005v-.003l-.002-.004v-.008l-.002-.005v-.003l-.001-.007-.001-.006c0-.003 0-.006-.002-.008V24.155l-.002-.005v-.001l-.001-.01-.002-.012v-.002l-.002-.009v-.001l-.001-.004v-.003l-.001-.004v-.003l-.002-.003v-.006l-.001-.004v-.003l-.001-.004v-.003l-.001-.003v-.003l-.002-.007v-.003l-.001-.004v-.002l-.002-.005a.386.386 0 0 0-.001-.01v-.002l-.001-.004v-.003l-.001-.004-.001-.002-.001-.009-.002-.005V24.003l-.002-.009-.001-.005v-.002l-.002-.005v-.001c0-.004 0-.007-.002-.01v-.007l-.002-.005v-.001l-.003-.015v-.001l-.001-.006a.226.226 0 0 0-.003-.016v-.001l-.001-.005v-.002l-.004-.02v-.002l-.005-.02v-.003-.004h-.001l-.003-.016v-.002l-.001-.005a.237.237 0 0 1-.003-.017l-.005-.022v-.005l-.001-.001-.003-.016-.001-.006-.005-.021v-.001l-.001-.006-.002-.01-.001-.006-.002-.005v-.002l-.003-.014v-.002l-.001-.004V23.7l-.005-.021v-.001l-.004-.02v-.002a.423.423 0 0 0-.005-.02v-.001l-.005-.022a2.807 2.807 0 0 1-.01-.043v-.005c-.003-.008-.004-.015-.005-.022l-.005-.02v-.001l-.005-.02V23.5l-.002-.005c0-.006-.002-.01-.003-.015v-.001l-.001-.005a.361.361 0 0 0-.004-.016l-.002-.005c0-.006-.002-.01-.003-.016l-.002-.005-.005-.02v-.002l-.005-.02-.005-.02v-.002l-.001-.004-.004-.016-.005-.02-.002-.006-.004-.015-.002-.01-.003-.01v-.001l-.001-.004v-.002l-.002-.004v-.001l-.01-.035v-.005l-.005-.015v-.005l-.001-.001a.892.892 0 0 1-.004-.014l-.001-.005v-.002l-.002-.005-.002-.008v-.001l-.002-.004v-.002l-.001-.004v-.001a.179.179 0 0 0-.005-.013v-.002l-.001-.004v-.002l-.004-.012v-.002l-.002-.004v-.001a.216.216 0 0 0-.004-.013v-.002l-.001-.004v-.001l-.004-.013v-.002l-.002-.004v-.001l-.002-.004v-.002l-.002-.006v-.003l-.002-.003v-.003l-.001-.003-.001-.002-.002-.005v-.003l-.001-.004v-.002l-.002-.003v-.003l-.003-.006v-.002l-.001-.003-.001-.003v-.003l-.002-.003-.001-.005-.001-.003v-.003l-.002-.002v-.003l-.002-.003V23l-.002-.005v-.002l-.002-.004v-.002l-.001-.004-.001-.003-.002-.004v-.003l-.002-.004v-.002l-.002-.003v-.003l-.002-.006-.002-.005v-.002l-.001-.004-.001-.002v-.003l-.002-.004-.002-.004v-.002l-.001-.004-.001-.002-.001-.004-.001-.002-.002-.005v-.002l-.002-.004v-.002l-.002-.006-.002-.006c0-.003-.001-.004-.002-.005v-.002l-.002-.004v-.002l-.002-.006-.002-.006v-.001l-.002-.004v-.002l-.002-.006-.002-.006v-.001l-.002-.005a.086.086 0 0 0-.002-.006l-.002-.006v-.002l-.002-.005-.005-.013-.002-.006-.002-.006-.004-.012v-.001l-.013-.037a5.82 5.82 0 0 0-.493-1.076.955.955 0 1 0-1.644.971c.373.63.584 1.435.707 2.69a3.683 3.683 0 0 0 3.687 3.326 3.748 3.748 0 0 0 1.706-.415 15.684 15.684 0 0 0 4.063-2.948c1.57-1.611 2.594-3.503 2.958-5.47.065-.353.08-.713.047-1.07a.955.955 0 0 0-.95-.864h.001z" fill="#E48D72"/>
        <path d="M24.736 11.31a20.643 20.643 0 0 0 4.136 2.7c3.129 1.535 7.582 1.278 7.582 1.278 1.441 0 2.135-1.709 1.155-2.765-2.386-2.576-6.356-4.393-10.964-4.79-3.818-.082-3.818 1.828-1.91 3.577z" fill="#AE2B00"/>
        <path d="M27.023 13.14a.955.955 0 0 0-.488 1.776c.488.289.991.56 1.496.808 2.641 1.296 5.94 1.49 7.673 1.49.411 0 .697-.012.808-.017.145-.003.29-.014.433-.033.074-.017.148-.029.223-.038a3.49 3.49 0 0 0 2.75-2.824.955.955 0 1 0-1.879-.34l-.002.013-.001.003v.004l-.001.003-.001.003v.004h-.001v.004L38.03 14v.007l-.002.002v.007l-.001.002v.002l-.001.001v.004l-.001.002v.002l-.001.001v.003l-.001.003v.001l-.001.003-.001.004v.003h-.001l-.015.058c-.07.258-.201.494-.384.69l-.002.002-.003.003-.002.002-.005.005v.001l-.006.005-.002.002-.003.003-.002.002-.015.016h-.001l-.002.002-.002.003h-.001l-.005.006-.003.002-.002.002-.011.01v.001l-.003.002-.004.004-.001.001-.003.003-.001.001-.003.003h-.001l-.003.003-.001.001-.003.003h-.001l-.002.002-.002.003h-.002l-.001.002-.001.001-.003.002-.002.002v.001l-.002.001-.003.003h-.001l-.003.003-.002.002-.002.002h-.001l-.002.003-.003.002-.002.002h-.001l-.002.003-.003.002-.003.002a1.633 1.633 0 0 1-.05.04l-.006.005-.005.004-.003.003a1.555 1.555 0 0 1-.683.293l-.053.006c-.034.005-.07.009-.105.011h-.008l-.004.001-.017.001H36.54l-.003.001H36.52l-.003.001h-.03l-.003.001H36.454s-.28.016-.75.016c-1.402 0-4.489-.144-6.832-1.293l-.012-.006-.008-.004L28.85 14l-.019-.01-.002-.001-.008-.004h-.002l-.02-.01-.012-.007a.735.735 0 0 1-.02-.01l-.01-.005h-.002l-.03-.016h-.002l-.02-.01-.002-.001-.008-.005h-.002l-.02-.01-.01-.006h-.002l-.009-.005-.01-.006h-.002l-.01-.005-.009-.005h-.002a.102.102 0 0 0-.01-.006l-.01-.005-.002-.001-.007-.004-.003-.002c-.003 0-.006-.002-.009-.004l-.003-.002c-.003 0-.005-.002-.007-.003l-.004-.002-.006-.003-.004-.002-.006-.003-.007-.004-.014-.007-.005-.003-.004-.002-.01-.005-.004-.002-.005-.003-.003-.001-.006-.004-.003-.001-.014-.007-.007-.004h-.002l-.007-.005-.023-.012h-.002l-.007-.004a20.547 20.547 0 0 1-.58-.316l-.008-.004h-.001l-.007-.005h-.001l-.013-.008-.003-.002-.006-.003-.009-.005-.007-.004-.003-.002-.008-.005h-.003l-.007-.005-.003-.002-.258-.15a.944.944 0 0 0-.482-.132z" fill="#E48D72"/>
        <path d="M5.645 13.378H5.1c-2.832 0-5.344 2.284-5.172 5.11l.013.172-.009 4.812c-.25 3.492 2.746 6.546 7.211 8.03.345.116.69.229 1.036.34 3.463 1.119 7.011-1.461 7.011-5.1 0-3.818 0-13.364-9.545-13.364z" fill="#AE2B00"/>
        <path d="M26.81 19.106a3.589 3.589 0 0 1 .425-1.657 1.918 1.918 0 0 0-.728-2.564 23.853 23.853 0 0 1-3.68-2.703c-.082-.073-.26-.243-.498-.472a7.481 7.481 0 0 0-7.794-1.639c-2.453.691-2.368 3.026-1.253 4.115 3.064 2.923 3.669 7.577 3.788 10.647 0 1.91 1.396 2.886 1.939 3.039a21.194 21.194 0 0 0 6.531.765c2.378-.088 4.133-2.33 3.602-4.65-.236-1.03-.624-1.659-1.263-2.297a3.632 3.632 0 0 1-1.07-2.584z" fill="#AE2B00"/>
        <path d="M29.347 21.027a.955.955 0 0 0-.802 1.471l.001.002a.178.178 0 0 0 .007.01l.002.004.001.002.002.003.001.002.002.002v.002l.003.003.007.012a.02.02 0 0 0 .003.004l.002.004.001.001.002.003a.31.31 0 0 1 .01.017l.003.004c.137.226.252.464.343.71v.001l.013.035.002.005.009.025v.001l.002.005.001.005.007.02.002.005v.001l.002.005.007.02.002.005v.001l.001.004.001.002.001.004v.001l.007.019v.002l.002.003.002.008.001.003.001.002.004.013v.002l.002.003v.003l.002.003.004.011v.003l.003.008.001.004.001.002.001.004v.002l.002.003v.003l.002.006.001.003.001.003.002.006.001.002v.004l.002.002v.003l.002.003v.003l.001.003.001.003.001.003.002.005v.003l.002.003v.004l.002.002v.004l.001.002.001.004.001.002.001.004v.002l.002.006v.001c.002.002.002.004.002.006v.001l.002.005v.002l.002.004v.002l.002.004v.002l.002.005v.001l.002.006v.002l.002.007.001.003v.003c.002 0 .002.003.002.004v.002l.002.005v.001l.002.006.002.006v.002l.002.005v.002l.002.004v.002l.001.005.001.001.003.013v.001l.002.005v.002l.002.004v.003l.001.004.001.002.001.005v.001l.004.013v.002l.002.004v.002l.002.005v.002l.001.005.002.007.002.007.002.006v.002l.001.005v.002l.002.005v.001l.002.006.004.014.001.006v.002l.002.005v.001l.002.005v.002l.003.013v.002l.002.005v.001l.002.006v.001l.001.005v.002l.002.005v.002l.003.013v.002l.002.005v.002l.002.006.001.005v.002l.002.006.002.008v.001l.001.005v.002l.002.005v.002l.001.004.001.003.001.004v.003l.002.006a.163.163 0 0 1 .003.014v.002l.002.005v.001l.001.005v.002l.002.005v.001l.001.006.002.006.001.007v.002l.001.005v.001l.002.006v.001l.001.006v.001a.16.16 0 0 1 .002.006l.001.006v.002l.001.005v.001l.002.006.001.007v.001l.002.005v.007l.001.001.001.006v.001l.001.006.002.006v.001l.001.006v.001l.001.006v.001l.002.006v.007l.002.006v.001l.001.006v.001l.001.006.002.007v.007l.002.006v.001l.001.006v.001l.001.006.001.006v.001l.001.006v.001l.002.006v.007h.001v.007l.002.006v.007h.001l.001.007.001.007.001.007.001.006.001.007.001.007v.007h.001v.006h.001v.007l.002.007v.007l.002.007v.006l.001.007.001.007.001.006v.008a3.766 3.766 0 0 1-.949 2.98l-.004.005-.004.005-.005.005-.004.004-.004.005-.004.004-.001.001-.004.004-.004.005-.004.005h-.001l-.003.004-.002.001-.003.004-.001.001-.003.004-.005.004v.001l-.004.004-.001.001-.003.004-.005.004v.002l-.004.003-.001.001-.003.003-.002.002-.003.003-.001.002-.003.003-.005.004-.001.002-.005.005-.002.003-.012.01-.002.003-.004.005-.002.002-.003.002-.002.003-.002.002-.02.02-.003.003-.002.002-.007.007-.002.002-.002.002-.005.005-.003.002-.009.01-.002.001-.012.012-.002.002-.004.004-.003.003-.002.002-.003.003-.002.001-.003.003-.001.002-.003.002-.002.002-.003.003-.001.001-.003.003-.007.006-.003.003-.001.002-.005.003-.004.005-.005.004-.004.004-.001.001-.005.004-.004.004v.001l-.005.004-.005.004-.01.009-.01.009a.18.18 0 0 1-.008.008h-.001c-.064.058-.13.114-.198.167l-.01.008-.01.008-.006.004-.005.004-.005.003-.005.004-.001.001-.004.003-.005.004h-.001l-.005.004-.005.004-.005.004-.005.004-.005.004-.005.003-.001.001-.004.003h-.002l-.004.004-.005.004-.005.004h-.001l-.004.004h-.001l-.005.003v.001l-.005.003v.001l-.005.003h-.001l-.005.004a.05.05 0 0 1-.005.004l-.005.003v.001l-.005.003h-.002l-.005.005-.004.003-.005.003-.005.004-.002.001-.004.003-.005.003-.001.001-.004.003h-.001l-.005.004-.005.003-.001.002-.004.002-.002.001-.004.003h-.001l-.004.003-.002.002-.003.002-.002.001-.004.003h-.001l-.004.003-.002.001-.003.003h-.002l-.004.003-.001.002-.004.002-.002.001-.003.003h-.002l-.004.003-.002.001-.003.003H27.5l-.004.003-.001.002-.004.002-.002.001-.003.002-.003.002-.003.002-.002.001-.003.003h-.002l-.004.003-.002.001-.003.003h-.002l-.004.003-.002.001-.003.003h-.002l-.004.003-.002.001-.003.003h-.002l-.004.003-.002.001-.003.002-.002.002-.004.002-.002.001-.003.002-.002.002-.003.002-.003.001-.003.002-.002.001-.004.003h-.002l-.003.003-.002.002-.004.001-.002.002-.003.002-.003.001-.003.002-.002.001-.003.002-.003.002-.002.002-.003.001-.003.002-.003.002-.003.002h-.003l-.002.003-.009.005-.003.002h-.002l-.003.003-.003.001-.005.003-.003.002-.003.002-.003.001-.003.002-.003.002-.002.002h-.003l-.003.003h-.002l-.004.003-.002.001-.003.002-.002.001-.004.002-.002.002-.004.002h-.001l-.004.003h-.002l-.004.003-.002.001-.004.002-.005.003h-.001l-.005.004-.006.003c-.083.046-.168.09-.255.129l-.006.003c-.371.17-.767.278-1.172.322h-.007l-.02.003-.014.001-.014.002h-.007l-.014.001-.02.002h-.007l-.007.001-.007.001h-.007a.202.202 0 0 1-.013.002h-.021v.001h-.014l-.007.002h-.021l-.006.001h-.015l-.013.001a.995.995 0 0 1-.035.002h-.007c-.266.01-.534.015-.804.015h-.169l-.03-.001H24.451l-.015-.001h-.049l-.003-.001h-.05l-.015-.001h-.033l-.003-.001h-.032l-.015-.001h-.033l-.003-.001h-.033l-.032-.002h-.034l-.015-.001h-.002l-.032-.001h-.001l-.033-.001-.033-.002h-.034l-.017-.001-.066-.003a21.493 21.493 0 0 1-2.828-.3h-.002l-.03-.006h-.003l-.014-.003-.016-.003h-.003l-.012-.003h-.003a.285.285 0 0 0-.014-.002l-.003-.001-.012-.002-.004-.001-.013-.002-.004-.001-.01-.002h-.006l-.01-.003-.007-.001-.01-.002h-.006l-.007-.003-.011-.001-.008-.002-.008-.001-.005-.001-.028-.005-.004-.001-.03-.006h-.002a17.724 17.724 0 0 1-.333-.066l-.238-.05-.011-.003a1.242 1.242 0 0 0-.033-.007h-.001l-.01-.002h-.004l-.006-.003h-.004l-.007-.002h-.005l-.006-.002-.011-.003-.007-.002h-.004l-.008-.002h-.003l-.177-.041h-.001l-.044-.01v-.001c-.004 0-.008-.002-.011-.003l-.011-.002-.022-.005-.044-.01v-.001l-.022-.005-.022-.006h-.001l-.242-.06a.2.2 0 0 0-.011-.003l-.022-.006-.01-.002-.003-.001-.008-.002-.003-.001-.008-.002h-.004l-.007-.003h-.003l-.008-.003h-.004l-.007-.003h-.003l-.007-.002-.004-.001-.011-.003-.007-.002-.005-.001-.006-.002-.004-.001-.006-.002h-.005l-.006-.003H19.3l-.006-.002-.005-.002-.006-.002h-.005l-.005-.002-.006-.002-.006-.001-.005-.002-.005-.001-.005-.002h-.006l-.005-.002-.005-.002-.006-.001-.006-.002-.005-.001-.005-.002-.006-.001-.005-.002-.005-.001-.006-.002-.005-.001-.006-.002-.005-.001-.005-.002-.006-.001-.005-.002-.006-.001-.005-.001-.005-.002-.006-.002h-.005l-.006-.002-.005-.002-.01-.003-.006-.001-.006-.002-.005-.002h-.005l-.005-.002-.006-.002-.005-.001-.006-.002-.005-.001-.006-.002-.005-.002-.005-.001-.006-.002h-.005l-.007-.003-.014-.004h-.002l-.003-.001h-.002v-.001H19l-.003-.002h-.002l-.004-.001-.005-.002h-.003l-.005-.002-.004-.002h-.003l-.005-.002-.005-.002-.03-.01a2.043 2.043 0 0 1-.386-.2.935.935 0 0 1-.024-.016l-.017-.011-.006-.005-.028-.019-.007-.004a.049.049 0 0 0-.007-.005l-.007-.005-.003-.003-.004-.002-.003-.003-.003-.002-.004-.002v-.001l-.003-.002-.004-.003-.003-.002-.007-.005-.004-.003-.003-.002-.001-.001-.003-.002-.004-.002-.003-.003-.004-.003-.003-.002-.003-.003-.004-.003-.003-.002h-.001l-.003-.003h-.001l-.002-.002-.004-.003-.004-.003-.003-.002v-.001l-.004-.002v-.001l-.003-.002h-.001l-.003-.003h-.001l-.002-.002-.001-.001-.003-.002-.003-.003-.002-.001-.002-.002-.004-.003-.002-.002-.002-.001-.002-.002-.002-.001-.002-.002h-.002l-.002-.003-.004-.003-.003-.002v-.001l-.004-.002v-.002h-.003l-.001-.002-.004-.003-.002-.002h-.001l-.002-.002-.002-.002-.002-.002-.005-.004-.002-.002h-.002l-.002-.002-.001-.001-.002-.002-.002-.002-.002-.001-.003-.003-.002-.001-.002-.002-.002-.002h-.002l-.001-.002-.002-.002-.002-.002h-.002l-.001-.003h-.002l-.003-.003-.001-.001-.002-.002h-.001l-.004-.004-.002-.002-.002-.001-.002-.002-.004-.003-.001-.001-.003-.003-.006-.005-.001-.001-.002-.002h-.001l-.004-.004-.003-.002-.007-.007h-.001l-.007-.006v-.001l-.003-.002-.004-.004h-.001l-.002-.002-.001-.001-.007-.006v-.001l-.007-.006h-.001l-.003-.003-.004-.004-.003-.002v-.001l-.004-.003-.001-.001-.003-.003-.007-.006-.003-.003-.004-.004-.003-.003a.099.099 0 0 0-.007-.006l-.001-.001-.007-.007-.004-.003-.007-.006-.007-.008-.018-.016v-.001l-.007-.006-.003-.003-.005-.005-.003-.003-.007-.007a.714.714 0 0 0-.033-.033l-.01-.01-.018-.018-.042-.046-.015-.016-.025-.027-.01-.012-.018-.02-.007-.008-.007-.008a.845.845 0 0 1-.018-.02c-.003-.005-.006-.009-.01-.012l-.007-.01-.007-.008a1.167 1.167 0 0 1-.01-.012l-.007-.009-.007-.009-.01-.012a2.103 2.103 0 0 1-.038-.049l-.01-.012-.024-.032-.007-.01-.016-.021v-.001l-.01-.012-.006-.01-.007-.01-.01-.013-.006-.01-.007-.01-.01-.013-.006-.01-.007-.01-.002-.004h-.001l-.004-.006-.002-.004-.006-.01-.003-.004-.004-.006v-.001l-.003-.004-.006-.009H17.6l-.006-.01v-.001l-.002-.003-.001-.001-.003-.005-.003-.004v-.001a.108.108 0 0 1-.004-.007l-.002-.002-.001-.002-.002-.002-.004-.007-.003-.005-.003-.005-.001-.001-.002-.003v-.001l-.006-.01h-.001l-.002-.003v-.002l-.003-.005-.003-.004v-.001l-.004-.006-.002-.003-.001-.002-.002-.003-.001-.003-.002-.003-.002-.002v-.002l-.002-.002-.002-.005-.002-.001-.001-.003-.001-.002-.003-.004v-.002l-.002-.003-.001-.001-.002-.003-.001-.002-.002-.004-.002-.002-.001-.003-.001-.002-.003-.003v-.003l-.002-.002-.001-.002-.002-.003-.002-.003-.001-.003-.001-.002-.002-.003-.001-.002-.002-.004-.003-.004-.003-.006-.003-.005v-.002l-.002-.003-.002-.004-.004-.006-.002-.003-.001-.004-.002-.002-.001-.002-.001-.003-.002-.003-.003-.005-.001-.003-.002-.002-.001-.004-.002-.002-.001-.003-.001-.002-.002-.002-.002-.005v-.002l-.002-.002-.002-.002v-.003l-.003-.004v-.002l-.002-.003-.001-.002-.002-.004-.001-.002-.002-.003v-.002l-.003-.003-.005-.01-.001-.003-.002-.005-.001-.001-.003-.005-.002-.004v-.002l-.003-.003-.002-.006v-.001l-.009-.016v-.002l-.006-.01-.001-.005-.006-.011v-.002l-.003-.005-.002-.005-.001-.001-.002-.003v-.003l-.003-.005-.002-.004-.001-.002-.002-.003v-.002l-.003-.005v-.002l-.002-.003v-.002l-.003-.004v-.002l-.002-.004-.001-.002-.001-.003-.001-.001a.955.955 0 0 0-1.742.782c.66 1.471 1.915 2.4 2.865 2.669a21.918 21.918 0 0 0 1.66.4 23.377 23.377 0 0 0 5.461.435 5.737 5.737 0 0 0 4.352-2.253 5.67 5.67 0 0 0 1.04-4.73 6.398 6.398 0 0 0-.852-2.096.955.955 0 0 0-.803-.438z" fill="#E48D72"/>
        <path d="M38.796 19.01a.963.963 0 0 0-.92.683l-.023.075-.01.036a.893.893 0 0 0-.014.04c-.589 1.812-2.138 3.5-4.361 4.753a.954.954 0 0 0 .933 1.665c2.6-1.464 4.49-3.502 5.244-5.832a.707.707 0 0 0 .013-.043l.014-.04.004-.013.03-.101v-.001l.005-.014a.947.947 0 0 0-.915-1.208z" fill="#8E1600"/>
        <path d="M37.93 13.01l-.002-.004-.001-.004-.004-.007-.001-.003-.002-.004-.001-.003-.002-.004-.006-.014-.002-.004a1.523 1.523 0 0 0-.064-.122l-.002-.003-.002-.004-.002-.003-.002-.004-.002-.003-.002-.004a.015.015 0 0 0-.002-.003l-.002-.004-.002-.003-.002-.003-.003-.004-.001-.003a.048.048 0 0 1-.003-.004c0-.001 0-.002-.002-.003l-.002-.003-.002-.004-.002-.003a.02.02 0 0 0-.002-.003v-.001l-.002-.003-.002-.003a.01.01 0 0 0-.003-.004l-.002-.003-.002-.004-.002-.003-.002-.004-.002-.003-.003-.003c0-.002-.001-.003-.002-.003v-.001l-.002-.003-.003-.004-.002-.003-.002-.003a1.965 1.965 0 0 0-.038-.054l-.003-.003-.002-.004-.003-.003-.002-.003-.003-.003v-.001l-.002-.003-.003-.003-.002-.003v-.001l-.002-.002-.001-.001-.002-.003-.003-.003-.002-.003v-.001l-.003-.002v-.002l-.002-.002h-.001l-.002-.003v-.001l-.002-.002-.001-.001-.002-.002v-.002l-.003-.002v-.001l-.002-.002-.001-.001-.002-.002v-.001l-.003-.002v-.002l-.002-.002h-.001l-.002-.003v-.001l-.002-.002-.001-.001-.002-.002v-.001l-.003-.002v-.002l-.002-.002h-.001l-.002-.003-.001-.001-.002-.002v-.001l-.002-.002-.002-.001-.001-.002-.001-.001-.002-.003h-.001l-.002-.003-.003-.003-.002-.003-.001-.001-.002-.002-.001-.001-.002-.002v-.002l-.002-.002h-.001l-.003-.004-.002-.002h-.001l-.002-.003-.001-.001-.002-.002v-.001l-.002-.002-.002-.001-.001-.002-.001-.001-.003-.003-.002-.003h-.001l-.002-.003h-.001l-.003-.004-.006-.007-.003-.002-.003-.005-.007-.006-.005-.006-.002-.003-.004-.004-.002-.002-.084-.088-.007-.007c0-.002-.003-.003-.004-.005l-.001-.001-.007-.007-.051-.053a.84.84 0 0 0-.025-.025 12.363 12.363 0 0 0-1.279-1.134l-.036-.027-.024-.018-.001-.001-.023-.018h-.001l-.01-.009-.003-.001-.022-.017-.003-.002-.01-.008-.012-.009-.002-.002a.119.119 0 0 1-.01-.006l-.002-.002-.011-.008-.001-.001-.01-.007-.004-.003-.008-.006-.002-.002a.955.955 0 0 0-1.138 1.533c.35.26.685.54 1.002.841h-.085c-1.127 0-3.97-.107-5.99-1.098-.41-.201-.82-.423-1.233-.667a.955.955 0 0 0-.987 1.635l.014.008.256.149.002.002.008.004.002.001.009.005.003.002.008.004.004.003.004.002.006.003.003.002.013.007.008.005h.001l.008.005c.193.11.386.215.58.316l.007.004h.002l.022.012h.001l.007.004.002.001.007.004a.222.222 0 0 0 .017.008l.006.004.003.001.005.003.004.002.01.005.004.002a.077.077 0 0 1 .005.003l.004.002.006.003.004.002.007.004.006.003.005.002.005.003.004.002a.051.051 0 0 0 .007.003l.003.002.009.004.003.002a.147.147 0 0 0 .007.004h.003l.008.005.001.001.01.005.01.005h.002a.265.265 0 0 1 .01.006l.01.005h.001a.047.047 0 0 1 .009.005l.002.001.01.005.02.01.002.001.008.004.002.001a.633.633 0 0 1 .02.01l.002.001.03.016h.002l.01.005a.613.613 0 0 0 .02.01l.002.001.008.005h.002l.02.01.002.001.008.004.002.001a.488.488 0 0 0 .02.01l.002.001.01.005.01.005c2.343 1.149 5.43 1.293 6.831 1.293h.107c.38-.002.614-.014.641-.016H36.517l.002-.001H36.541l.003-.001h.014l.002-.001h.016l.002-.001h.014l.002-.001h.012l.002-.001h.008l.002-.001h.008l.002-.001h.008l.002-.001h.008l.002-.001h.006l.002-.001h.008l.001-.001c.01 0 .02-.002.03-.004h.008l.003-.001h.001l.003-.001h.005l.003-.001h.004v-.001h.008v-.001h.004l.003-.001h.004l.001-.001h.003l.004-.001h.003l.002-.001h.003l.003-.001h.001l.003-.001h.001l.004-.001h.003l.003-.001h.004l.002-.001h.003l.003-.001.003-.001h.002l.007-.002h.003l.004-.001.004-.001.003-.001h.005l.003-.002h.004l.003-.001.004-.001h.004v-.001h.003l.008-.003.102-.027.004-.002.01-.003.014-.005.014-.004.007-.003h.004l.003-.002c.23-.08.439-.215.607-.391l.003-.003.002-.003.002-.002.003-.003.002-.002.002-.002.003-.003.002-.003.003-.002.002-.003.005-.005.002-.003.002-.002.003-.003.002-.002.002-.003.003-.003.002-.002.002-.003.002-.002.001-.001.002-.002.002-.003.002-.003.003-.002.002-.003.002-.002a.018.018 0 0 0 .002-.003l.003-.003.002-.003a.143.143 0 0 0 .013-.016l.017-.02v-.001l.002-.003.003-.002c0-.002.001-.002.002-.003l.001-.002.001-.002h.002v-.003h.002v-.002l.002-.002.002-.002.002-.003.001-.001v-.002c.001 0 .002 0 .002-.002h.001l.001-.002.001-.001.001-.002.001-.001.002-.002v-.001l.001-.002.001-.001.002-.001.002-.003v-.002l.002-.001v-.001l.002-.002v-.001l.002-.002v-.001l.002-.002v-.001l.002-.002.002-.003.002-.002v-.001l.002-.002v-.001l.002-.002.003-.004.001-.002.005-.007.001-.002.003-.003.002-.003.002-.003.001-.003.002-.002v-.001l.003-.003s0-.002.002-.003l.001-.003a1.655 1.655 0 0 0 .18-.364l.002-.003v-.003l.001-.001.001-.003.001-.003.001-.003.001-.004.002-.003v-.004l.002-.003v-.003h.001v-.003l.001-.002.001-.002v-.004h.001l.001-.003.001-.003.001-.004.001-.003v-.001l.001-.002v-.002l.001-.002.001-.003v-.001l.001-.003.002-.003v-.005l.002-.002v-.004l.001-.003.001-.003v-.001l.001-.003.001-.003v-.001l.001-.003.001-.003v-.001l.001-.002v-.002l.001-.002v-.001l.001-.002v-.002l.001-.002.002-.007.002-.007v-.004l.002-.003v-.005l.001-.002.001-.003v-.001l.001-.003v-.003l.001-.001v-.004l.002-.002v-.004l.001-.003v-.001l.001-.003.002-.007v-.004l.001-.003.001-.003v-.001l.001-.003v-.005l.001-.002v-.003l.001-.002v-.002l.001-.001V14l.001-.002v-.001l.001-.002v-.004h.001v-.004l.001-.003v-.001l.001-.003v-.004l.001-.003v-.004l.002-.003v-.007l.001-.001v-.003l.001-.004.001-.003v-.004l.002-.007a1.556 1.556 0 0 0 .019-.167 1.633 1.633 0 0 0-.132-.761z" fill="#8E1600"/>
        <path d="M26.47 15.921a.987.987 0 0 0-.921.631l-.002.005-.002.005-.004.006a5.464 5.464 0 0 0-.64 2.538 5.526 5.526 0 0 0 1.628 3.933c.384.385.595.689.752 1.375a1.848 1.848 0 0 1-.348 1.553 1.93 1.93 0 0 1-1.463.762 19.166 19.166 0 0 1-5.868-.673c-.115-.071-.623-.432-.624-1.297l-.016-.358a.949.949 0 0 0-.995-.906.96.96 0 0 0-.912 1l.015.338V24.89l.001.004V24.932l.001.002V24.961l.001.004v.023l.001.004v.014l.001.003V25.027l.001.003V25.049l.001.003v.015l.001.003V25.079l.001.006v.007l.001.005v.01l.001.003v.007l.001.01v.007l.001.003v.007l.001.003v.012l.001.005v.008l.001.002v.008l.001.002v.008l.001.002v.004l.001.006v.007l.002.008V25.23l.001.005.001.01v.002l.002.008v.012l.001.003v.002l.001.005a.03.03 0 0 0 0 .005v.002l.001.003v.004l.001.003v.004l.001.003v.007l.002.005v.012l.001.003v.004l.001.002v.005l.001.003v.002l.001.003v.006l.002.007v.005l.001.003v.006l.002.005v.008h.001l.002.013v.005l.001.004.001.004v.005l.001.001v.005c.002.005.002.01.003.016l.001.004v.004l.001.002v.004l.001.004.001.004.003.018.001.003v.005l.002.005.005.026v.004l.001.004.001.005v.004h.001l.005.026v.004l.002.004.005.026.002.009.007.03v.003l.017.067c.135.542.405 1.04.786 1.448l.002.003.002.002.002.002.001.001.01.011.003.002.002.003.002.002a.41.41 0 0 1 .013.014l.003.002.002.003.013.013v.001l.002.002h.001l.002.002.002.002.002.003.006.006.003.003.002.002.004.004.002.002.003.003.005.005.003.002.01.01.002.002.003.003.01.01.002.002.006.006.004.004.005.005h.001l.005.005.012.012.003.002.005.005.01.01.003.002.003.003.014.013.003.003.002.002c.227.213.49.383.778.501l.003.001.004.001.003.002h.003l.001.001h.002l.001.001h.002l.002.001h.001l.005.003h.005l.002.002h.003v.001h.003v.001l.003.001h.001l.003.001.003.001.003.001h.003l.003.002h.003l.003.002h.003l.003.001.003.001a21.192 21.192 0 0 0 6.532.765h.007l.034-.002h.014l.006-.001h.015l.006-.001h.015l.006-.002h.021l.007-.001h.007l.014-.002h.007l.006-.001h.008l.006-.001h.007l.007-.001h.007l.014-.002h.007l.006-.001.014-.002h.007l.02-.003h.008a3.804 3.804 0 0 0 1.171-.323l.006-.002c.087-.04.172-.084.255-.13h.001a.049.049 0 0 1 .005-.002l.006-.004.005-.003h.001l.004-.002.002-.001.004-.003h.001l.004-.003h.002l.004-.003.002-.001.003-.002.003-.001.003-.002.002-.002.004-.001.002-.002.003-.002h.003l.002-.003.003-.001.003-.002.002-.001.004-.002.002-.002.006-.003.003-.002.002-.002h.003l.003-.003.003-.001.006-.004.002-.002h.003l.003-.003.002-.001.004-.002.002-.002.003-.001.003-.002.003-.002.002-.001.003-.002.002-.002.004-.002h.002l.003-.003.002-.002.004-.001.002-.002.003-.002.002-.001.004-.002.002-.001.003-.003h.003l.003-.003.002-.002.004-.002.001-.001.004-.002.002-.001.004-.003h.002l.003-.003.002-.001.004-.003h.002l.003-.003.002-.001.003-.003h.003l.003-.003.002-.001.003-.003h.002l.004-.003.002-.001.003-.003h.003l.003-.003.002-.001.003-.003.002-.001.004-.003h.002l.003-.003.002-.001.004-.003h.001l.004-.003.002-.001.003-.003h.002l.004-.003.002-.001.003-.003h.002l.004-.004h.001l.004-.003.002-.001.003-.003.002-.001.004-.002.001-.002.004-.002.002-.001.003-.003.002-.001.004-.003h.001l.004-.004h.002l.004-.003v-.001l.005-.003h.001l.004-.003.002-.002.003-.002.002-.001.004-.003.005-.004h.001l.004-.003.002-.001.004-.003.005-.004h.001l.005-.004.005-.003v-.001l.005-.003v-.001l.005-.003h.001l.004-.004h.001l.004-.004h.001l.005-.004.005-.004h.001l.004-.003.001-.001.004-.003h.001l.005-.004.005-.004.005-.004.005-.004h.001l.005-.004.005-.004.005-.004.005-.003v-.001l.005-.004.006-.003.005-.005.005-.003.01-.008.01-.008c.069-.054.134-.11.199-.167l.01-.008.009-.009.01-.009.004-.004.005-.004v-.001l.005-.004.004-.004h.001l.004-.005h.001l.004-.004.005-.004.004-.005h.002l.003-.004.006-.006.003-.003.005-.005h.001l.004-.004.001-.001.005-.005.003-.003.001-.001.003-.003.002-.002.003-.003.002-.002.003-.002.006-.006.003-.003.006-.006.003-.003.02-.02.003-.003.005-.004.002-.002.015-.016.003-.003.002-.002.003-.002.001-.002.003-.003.009-.01.002-.001.007-.007.002-.003.002-.002.002-.002.004-.005.003-.003.005-.004.001-.002.005-.004.003-.004.001-.001.003-.004h.001l.003-.004.002-.001.003-.004.005-.004v-.002l.004-.003v-.001l.004-.004.001-.001.004-.004.004-.005.004-.004v-.001l.005-.004.004-.005.004-.005h.001l.004-.004.004-.005.005-.005.004-.005a3.782 3.782 0 0 0 .95-2.98l-.002-.014v-.007l-.002-.007v-.007l-.002-.006v-.007l-.001-.007-.001-.006-.001-.007-.001-.007-.001-.007-.001-.007-.001-.006-.001-.007-.001-.007-.001-.006v-.001l-.001-.006-.001-.007-.001-.007-.001-.006v-.001l-.002-.006v-.007l-.002-.007v-.006l-.001-.001-.001-.006v-.001l-.001-.006-.001-.006v-.002l-.002-.005v-.008l-.002-.006v-.001l-.001-.006a.1.1 0 0 0-.002-.007v-.006l-.001-.001-.001-.006-.001-.007-.002-.006v-.007l-.001-.001-.001-.006v-.001l-.001-.006-.002-.006v-.002l-.001-.005v-.001l-.002-.006v-.006l-.001-.002-.001-.006-.002-.006v-.002l-.001-.005v-.001l-.002-.006v-.001-.006l-.001-.001-.002-.007a.042.042 0 0 1 0-.006h-.001l-.001-.006v-.001l-.002-.005v-.002l-.001-.005v-.002l-.002-.004v-.003l-.003-.013c-.236-1.03-.625-1.66-1.263-2.298a3.632 3.632 0 0 1-1.07-2.584 3.582 3.582 0 0 1 .426-1.657.902.902 0 0 0 .027-.056l.014-.027c.017-.036.032-.072.046-.108v-.002l.002-.003c.01-.023.018-.047.026-.07a.923.923 0 0 0-.561-1.207.977.977 0 0 0-.32-.055z" fill="#8E1600"/>
        <path d="M3.191 22.507a2.864 2.864 0 0 0-2.504 4.248c.267.478.584.925.947 1.335l.014.016.021.023.014.016.014.016.014.015.022.024.014.015v.001l.036.039.014.015.015.016.014.015.008.008.014.015v.001l.014.015h.002l.013.015.001.001.014.015h.001l.007.008.007.008.008.008.014.014.001.001.007.007.007.008.008.008.007.008.007.007h.001l.015.015.015.015v.001l.015.015.007.007.001.001.015.014v.001l.015.015.016.015.007.007.008.008.008.008.015.014v.002c.006.004.01.009.015.014h.001l.007.007.008.008.008.008.008.007.007.007.001.001.015.014.001.001.007.007.008.007v.001l.007.006.001.001.008.007a.108.108 0 0 0 .007.007l.001.001.015.014.001.002.015.014.008.007.008.008.008.007.016.015.016.014.001.001.015.015h.001l.007.007.016.015h.001l.015.014.001.001.016.014a.162.162 0 0 0 .008.008l.008.007.008.007.016.015h.001l.016.014v.001l.017.014a.723.723 0 0 0 .024.022l.017.015.016.014.001.001.016.014.008.007.017.015.017.014.025.022.017.014.017.015.017.014.026.021.017.015.017.014.043.036.017.014h.001l.017.014.017.015.01.007.017.014.017.014.026.02v.001l.018.014.018.014.018.014.017.014.009.006v.001l.017.013.001.001.017.013.002.001.017.013.045.035c1.13.844 2.382 1.51 3.714 1.974l.06.022h.002l.024.009.025.009.025.009.012.004.024.008.002.001.023.008h.002l.01.005h.001l.012.004h.002l.01.004h.002l.012.004.011.004.002.001.023.008h.003l.01.004h.001l.011.005h.003l.01.004h.001l.011.004h.003l.01.004.013.005h.002l.01.003.002.001.011.004.037.012.004.002.033.01.006.002.032.011.006.002.031.01.007.002.032.011.009.003.03.01.01.003.027.009.01.003.026.009.012.004a.615.615 0 0 1 .026.008l.015.005.022.008.018.005.024.008.013.005a.637.637 0 0 0 .06.019l.02.006.017.006a1263.97 1263.97 0 0 0 .037.012l.023.008.012.004.025.008.012.004.036.012c.002 0 .004 0 .006.002l.03.01.006.001.032.01.002.001c.787.255 1.577.503 2.365.753.015.005.03.01.047.014l.049.017.013.004.088.028a2.864 2.864 0 0 0 1.739-5.457h-.002l-.102-.033-.05-.016-.052-.017-.655-.207c-.795-.252-1.59-.503-2.38-.766-2.029-.674-3-1.629-3.253-2.086a2.862 2.862 0 0 0-2.507-1.475z" fill="#8E1600"/>
        <path d="M18.06 31.395a1.91 1.91 0 0 0-.615 3.718l.028.009.012.004.007.002.007.002.008.003.008.003a.09.09 0 0 1 .01.003l.006.002.009.003.005.002.013.004.005.002a.16.16 0 0 1 .009.003l.005.002.013.004.004.002.01.003.006.002.012.004h.001l.014.005.005.001.01.004.004.001.014.005h.004l.01.004.005.002.014.004h.002a.194.194 0 0 0 .012.005l.004.001.029.01h.003l.014.005.015.005.003.001.014.004h.001l.015.006h.002l.014.005h.002l.03.01h.002l.031.01.016.005.032.01h.001l.032.01h.001l.031.01h.001a21.893 21.893 0 0 0 2.89.68l.034.006.035.006.053.008.035.006h.001l.034.006c.007 0 .013.002.018.003l.035.005.035.005h.001l.034.005h.002l.015.003h.002l.017.003.019.002.033.006h.003l.033.005.018.002.017.003h.003l.015.002h.001l.017.003.017.003h.002l.034.004h.002c.005.002.01.002.016.003l.018.002h.002l.014.003h.003l.016.002h.002l.015.003h.003l.032.004.004.001.015.002h.001l.017.002h.002l.015.002h.002l.016.003h.003l.014.002h.003l.017.003.016.002h.004l.015.002.017.002h.003l.014.003h.003l.016.002h.003l.014.002h.004l.015.002h.002l.015.003h.004l.016.002.016.002h.004l.014.002h.002l.016.002h.004l.013.002h.004c.005.002.01.002.016.003h.002l.014.002h.004l.032.004h.004l.015.002h.001l.017.002h.003l.014.002h.003l.016.002h.003l.014.002h.003l.017.002.016.002h.004l.015.002h.001l.016.002h.005l.013.002.019.002h.003l.013.002h.004l.016.002h.002l.015.002h.004l.015.002.017.002h.004l.014.001h.003l.016.003h.003l.014.001h.003l.017.002h.002l.014.002h.004l.032.003h.005l.014.002h.002l.016.002h.004l.014.002h.003c.005 0 .01 0 .016.002h.002l.015.001h.003a.89.89 0 0 1 .034.004h.003l.016.001.018.002h.002l.015.002h.002l.017.001h.001l.016.002h.003l.034.003h.003l.034.003h.001l.036.003.017.002h.001l.036.003c.013 0 .025.002.036.003h.001l.036.002.018.002a.986.986 0 0 0 .036.003h.002l.035.003h.001l.036.002a22.583 22.583 0 0 0 .727.042h.014l.007.001H23.761l.009.001h.016l.017.001h.006l.012.001h.023l.013.002h.022l.036.002H23.953a.33.33 0 0 0 .018.001l.074.003H24.064l.074.002h.019l.018.001.074.002H24.287l.056.001H24.364l.016.001H24.436l.002.001H24.512l.035.001H25l.013-.001h.042c.195-.003.39-.008.582-.015a1.91 1.91 0 0 0-.146-3.816 20.293 20.293 0 0 1-1.65-.005l-.045-.002a18.56 18.56 0 0 1-5.12-.95 1.903 1.903 0 0 0-.615-.102zm20.174-4.546a1.906 1.906 0 0 0-1.51.74 9.12 9.12 0 0 1-.901.996l-.028.027-.028.026c-1.083 1.022-2.507 1.904-4.116 2.55a1.909 1.909 0 0 0 1.42 3.545c2.073-.833 3.885-1.967 5.318-3.32a2.947 2.947 0 0 0 .074-.07l.001-.001.01-.01h.002l.009-.01.001-.001.021-.02V31.3l.022-.02v-.001a.316.316 0 0 0 .011-.01l.022-.021c.37-.362.72-.745 1.044-1.148l.018-.023h.001a.197.197 0 0 1 .009-.012l.009-.011.008-.011.001-.001.017-.022.002-.002.008-.01.008-.01.002-.003.007-.009.002-.002.008-.01.002-.003.006-.008.003-.003.006-.008.003-.004a.118.118 0 0 0 .006-.008l.003-.003a.079.079 0 0 1 .005-.007l.003-.003a1.909 1.909 0 0 0-1.509-3.078z" fill="#E48D72"/>
        <path d="M7.554 17.197c0-1.055-1.282-1.91-2.863-1.91-1.582 0-2.864.855-2.864 1.91 0 1.054 1.282 1.909 2.864 1.909 1.581 0 2.863-.855 2.863-1.91z" fill="#D65128"/>
        <path d="M10.977 17.592c-.427-.428-1.024-.524-1.332-.215-.31.308-.213.905.214 1.332.427.427 1.024.524 1.332.215.309-.308.213-.905-.214-1.332z" fill="#D65128"/>
        <path d="M20.918 13.379c0-1.055-1.282-1.91-2.864-1.91-1.581 0-2.863.855-2.863 1.91 0 1.054 1.282 1.909 2.863 1.909 1.582 0 2.864-.855 2.864-1.91z" fill="#D65128"/>
        <path d="M24.736 16.242a.955.955 0 1 1-1.91 0 .955.955 0 0 1 1.91 0z" fill="#D65128"/>
        <path d="M28.554 10.515a.954.954 0 1 1-1.908 0 .954.954 0 0 1 1.908 0z" fill="#D65128"/>
        <path d="M32.373 20.06a.954.954 0 1 1-1.91 0 .954.954 0 0 1 1.91 0z" fill="#D65128"/>
    </g>
    <defs>
        <clipPath id="a">
            <path fill="#fff" d="M0 0h42v42H0z"/>
        </clipPath>
    </defs>
</svg>
