<svg width="40" height="40" viewBox="0 0 40 40" fill="none" xmlns="http://www.w3.org/2000/svg">
    <g clip-path="url(#a)">
        <path d="M15.43 27.124c1.925-3.334-.481-7.5-4.33-7.5H1.979c-.868 0-1.854.388-1.8 1.254a19.624 19.624 0 0 0 8.705 15.078 1.714 1.714 0 0 0 1.303.25l5.243-9.082z" fill="#FFA000"/>
        <path d="M10.186 3.042a1.717 1.717 0 0 0-1.302.25A19.625 19.625 0 0 0 .18 18.369c-.054.866.932 1.255 1.8 1.255H13.69c2.698 0 4.384-2.92 3.035-5.257L10.186 3.042z" fill="#FFA000"/>
        <path d="M28.655 4.217c.432-.748.59-1.794-.184-2.178a19.629 19.629 0 0 0-17.421 0c-.775.384-.617 1.43-.184 2.178l4.564 7.907c1.925 3.333 6.736 3.333 8.66 0l4.565-7.907z" fill="#FFA000"/>
        <path d="M10.866 35.03c-.433.748-.59 1.795.184 2.179a19.63 19.63 0 0 0 17.42 0 1.723 1.723 0 0 0 .72-2.403l-8.313-14.397a.907.907 0 0 0-1.57 0l-8.441 14.62z" fill="#FFA000"/>
        <path d="M39.341 18.37a19.624 19.624 0 0 0-8.704-15.078 1.718 1.718 0 0 0-1.303-.25l-9.12 15.796a.907.907 0 0 0 .785 1.36h16.62c.994 0 1.785-.84 1.722-1.829z" fill="#FFA000"/>
        <path d="M16.797 19.624a1.71 1.71 0 0 0-1.481.855L8.23 32.75c-.632 1.095-.399 2.504.653 3.206a1.713 1.713 0 0 0 1.303.25l8.092-14.016c.658-1.14-.165-2.566-1.482-2.566z" fill="#F57C00"/>
        <path d="M10.186 3.042a1.717 1.717 0 0 0-1.302.25.686.686 0 0 0-.205.915l3.685 6.384c1.925 3.333-.48 7.5-4.33 7.5H.48a.3.3 0 0 0-.301.278c-.054.866.932 1.255 1.8 1.255H13.69c2.698 0 4.384-2.92 3.035-5.257L10.186 3.042z" fill="#F57C00"/>
        <path d="M28.471 2.039a19.631 19.631 0 0 0-2-.858c-.14-.05-.277.123-.225.262.015.04.01.086-.011.124l-7.956 13.78a1.71 1.71 0 1 0 2.963 1.71l7.413-12.84c.432-.748.59-1.794-.184-2.178z" fill="#F57C00"/>
        <path d="M39.341 18.37a19.624 19.624 0 0 0-8.704-15.078 1.718 1.718 0 0 0-1.303-.25l-.01.018a.017.017 0 0 0 .003.02 19.586 19.586 0 0 1 6.949 13.756 1.725 1.725 0 0 1-1.722 1.83H20.718a.702.702 0 0 0-.35 1.308l.177.103c.138.08.295.121.454.121h16.62c.994 0 1.785-.84 1.722-1.829z" fill="#F57C00"/>
        <path d="M6.693 19.624c-1.557 0-3.152 1.278-2.883 2.812.163.93.701 1.755 1.017 2.623.322.883.442 1.86.907 2.662.47.811 1.257 1.402 1.856 2.115.6.715 1.046 1.592 1.761 2.193 1.192 1.001 3.096.262 3.874-1.086l2.205-3.82c1.925-3.333-.481-7.5-4.33-7.5H6.693z" fill="#FFE082"/>
        <path d="M16.797 19.624a1.71 1.71 0 0 0-1.481.855l-6.097 10.56c-.188.326-.157.747.132.99 1.192 1.001 3.096.262 3.874-1.086l5.054-8.753c.658-1.14-.165-2.566-1.482-2.566z" fill="#FFCA28"/>
        <path d="M13.226 30.942c-.78 1.349-.47 3.37.994 3.903.868.316 1.85.264 2.78.427.905.158 1.81.545 2.76.545.95 0 1.855-.387 2.76-.545.93-.163 1.912-.111 2.78-.427.437-.16.833-.404 1.218-.667.665-.453.871-1.34.47-2.036l-2.898-5.018c-1.924-3.333-6.735-3.334-8.66 0l-2.204 3.818z" fill="#FFE082"/>
        <path d="M13.225 8.304c-.778-1.348-2.682-2.087-3.874-1.086-.715.6-1.16 1.479-1.761 2.194-.6.713-1.387 1.303-1.856 2.114-.465.803-.585 1.78-.907 2.663-.316.868-.854 1.692-1.017 2.622-.269 1.534 1.326 2.813 2.883 2.813H11.1c3.849 0 6.255-4.167 4.33-7.5l-2.205-3.82z" fill="#FFE082"/>
        <path d="M12.282 6.671c-.258-.446-.832-.605-1.298-.386a.884.884 0 0 0-.382 1.253l4.765 8.253a1.533 1.533 0 0 1-1.328 2.3H4.57a.73.73 0 0 0-.73.79c.032.409.366.743.776.743H11.1c3.849 0 6.255-4.167 4.33-7.5L12.282 6.67z" fill="#FFCA28"/>
        <path d="M27.705 5.863c-.803-.465-1.521-1.139-2.405-1.46-.354-.13-.735.055-.923.382l-6.098 10.562a1.71 1.71 0 1 0 2.963 1.71l6.463-11.194z" fill="#FFCA28"/>
        <path d="M34.487 21.454c0-1.01 1.14-1.95 1.227-2.958.05-.572.092-1.138-.004-1.685-.163-.93-.7-1.755-1.017-2.622-.321-.884-.441-1.86-.906-2.664-.47-.81-1.257-1.4-1.856-2.114-.6-.715-1.047-1.592-1.762-2.193-1.191-1.001-3.095-.262-3.874 1.086l-4.081 7.07c-1.09 1.888.273 4.25 2.454 4.25a2.833 2.833 0 0 1 2.833 2.833v1.003c0 .785.636 1.42 1.42 1.42.908 0 1.508-.696 1.508-1.463v-.527a.912.912 0 0 1 1.824 0v4.097a1.117 1.117 0 1 0 2.234 0v-5.533z" fill="#FFE082"/>
        <path d="M13.225 27.057a2.278 2.278 0 1 1-4.557 0 2.278 2.278 0 0 1 4.557 0z" fill="#EF5350"/>
        <path d="M15.1 15.32a2.279 2.279 0 1 1-4.557 0 2.279 2.279 0 0 1 4.557 0z" fill="#EF5350"/>
        <path d="M19.884 7.6a2.279 2.279 0 1 1-4.557 0 2.279 2.279 0 0 1 4.557 0z" fill="#EF5350"/>
        <path d="M29.893 10.42a1.14 1.14 0 1 1-2.28 0 1.14 1.14 0 0 1 2.28 0z" fill="#FF6F00"/>
        <path d="M26.226 16.337a1.14 1.14 0 1 1-2.279 0 1.14 1.14 0 0 1 2.28 0z" fill="#FF6F00"/>
        <path d="M24.89 7.002a1.14 1.14 0 1 1-2.279 0 1.14 1.14 0 0 1 2.278 0z" fill="#FF6F00"/>
        <path d="M20.9 13.306a1.139 1.139 0 1 1-2.279 0 1.139 1.139 0 0 1 2.279 0z" fill="#FF6F00"/>
        <path d="M8.133 16.797a1.139 1.139 0 1 1-2.278 0 1.139 1.139 0 0 1 2.278 0z" fill="#FF6F00"/>
        <path d="M12.039 9.558a1.139 1.139 0 1 0-2.186.639 1.139 1.139 0 0 0 2.186-.639z" fill="#FF6F00"/>
        <path d="M20.9 25.32a1.14 1.14 0 1 1-2.279 0 1.14 1.14 0 0 1 2.279 0z" fill="#FF6F00"/>
        <path d="M32.968 15.474a2.279 2.279 0 1 1-4.557 0 2.279 2.279 0 0 1 4.557 0z" fill="#EF5350"/>
        <path d="M19.523 28.932c-.338-.287-.727.145-.727.588 0 .568-.205 1.08-.54 1.474-.628.738-1.174 1.954-.206 1.954a2.278 2.278 0 0 0 1.473-4.016z" fill="#D32F2F"/>
        <path d="M14.294 13.582c-.338-.287-.727.145-.727.589a2.278 2.278 0 0 1-2.279 2.278c-.188 0-.327.2-.205.345a2.279 2.279 0 1 0 3.211-3.211z" fill="#D32F2F"/>
        <path d="M19.078 5.862c-.338-.287-.727.144-.727.588a2.279 2.279 0 0 1-2.279 2.278c-.188 0-.327.2-.205.345a2.279 2.279 0 1 0 3.211-3.211z" fill="#D32F2F"/>
    </g>
    <defs>
        <clipPath id="a">
            <path fill="#fff" transform="translate(.1)" d="M0 0h39.247v39.247H0z"/>
        </clipPath>
    </defs>
</svg>
