<svg width="42" height="42" viewBox="0 0 42 42" fill="none" xmlns="http://www.w3.org/2000/svg">
    <g clip-path="url(#a)">
        <path d="M11.576 21.233a5.06 5.06 0 0 1 0-7.174 1.162 1.162 0 0 1 1.639 0l5.572 5.543c.453.451.453 1.18 0 1.631a5.123 5.123 0 0 1-7.21 0z" fill="#F9EBCF"/>
        <path d="M14.117 15.363a2.355 2.355 0 0 0 0 3.343 2.384 2.384 0 0 0 3.55-.218l-3.332-3.315c-.075.06-.149.121-.218.19z" fill="#FFCC60"/>
        <path d="M12.638 21.228c-.624-.628-1.656-.718-2.79-.353.363-1.14.274-2.177-.351-2.805-.702-.706-1.92-.732-3.218-.196a3.054 3.054 0 0 0-3.913.354 3.094 3.094 0 0 0-.352 3.934c-.533 1.304-.507 2.529.195 3.235.624.627 1.657.717 2.79.353-.363 1.139-.273 2.177.351 2.804.625.628 1.657.718 2.79.354-.362 1.139-.273 2.176.352 2.804 1.162 1.169 3.736.476 5.748-1.547 2.013-2.023 2.702-4.61 1.54-5.779-.625-.628-1.657-.718-2.79-.353.362-1.14.273-2.177-.352-2.805z" fill="#78B591"/>
        <path d="M10.324 26.891a.66.66 0 0 1-.47-.195l-5.599-5.628a.663.663 0 0 1 .94-.935l5.599 5.627a.663.663 0 0 1-.47 1.131z" fill="#619376"/>
        <path d="M15.421 24.335a4.505 4.505 0 0 1-6.086 1.936 1.036 1.036 0 0 1-.442-1.39l3.199-6.224c.26-.505.879-.702 1.383-.44a4.562 4.562 0 0 1 1.946 6.118z" fill="#EF645E"/>
        <path d="M10.805 26.54a.661.661 0 0 1-.305-.075l-.092-.047a.663.663 0 1 1 .613-1.177l.091.048a.663.663 0 0 1-.307 1.251z" fill="#C14616"/>
        <path d="M13.912 20.384a.663.663 0 0 1-.59-.966l.047-.091a.663.663 0 0 1 1.18.605l-.047.092a.663.663 0 0 1-.59.36z" fill="#C14616"/>
        <path d="M12.432 24.95a.663.663 0 0 1-.305-.074l-.091-.047a.663.663 0 1 1 .611-1.177l.091.047a.663.663 0 0 1-.306 1.252z" fill="#C14616"/>
        <path d="M13.653 22.802a.661.661 0 0 1-.306-.075l-.09-.047a.663.663 0 1 1 .61-1.177l.092.047a.663.663 0 0 1-.306 1.252z" fill="#C14616"/>
        <path d="M30.717 22.721a3.077 3.077 0 0 0 3.084-3.069 3.077 3.077 0 0 0-3.084-3.068 3.077 3.077 0 0 0-3.085 3.069 3.077 3.077 0 0 0 3.085 3.068z" fill="#EF645E"/>
        <path d="M37.203 30.673c.648-.645.741-1.71.365-2.88 1.176.374 2.247.282 2.895-.363.729-.725.755-1.982.202-3.322a3.153 3.153 0 0 0-.365-4.04 3.193 3.193 0 0 0-4.06-.362c-1.347-.55-2.61-.524-3.34.2-.647.645-.74 1.71-.364 2.881-1.176-.374-2.247-.282-2.895.363-.648.644-.74 1.71-.364 2.88-1.176-.374-2.247-.282-2.895.363-1.207 1.2-.491 3.857 1.597 5.934s4.759 2.79 5.965 1.59c.648-.646.74-1.711.364-2.881 1.176.374 2.247.282 2.895-.363z" fill="#78B591"/>
        <path d="M32.043 28.984a.7.7 0 0 1-.493-1.195l5.808-5.78a.7.7 0 1 1 .987.992l-5.81 5.779a.697.697 0 0 1-.492.204z" fill="#5B8C6F"/>
        <path d="M9.051 30.214a3.077 3.077 0 0 0 3.085-3.07 3.077 3.077 0 0 0-3.085-3.068 3.077 3.077 0 0 0-3.084 3.069 3.077 3.077 0 0 0 3.084 3.069z" fill="#FFAB5F"/>
        <path d="M29.135 18.62c-.66-.657-1.753-.751-2.951-.37.383-1.192.289-2.278-.372-2.935-.742-.74-2.03-.766-3.402-.205a3.254 3.254 0 0 0-4.139.37 3.213 3.213 0 0 0-.372 4.117c-.564 1.365-.537 2.647.206 3.386.66.657 1.752.75 2.95.37-.383 1.192-.288 2.278.372 2.935.66.657 1.752.75 2.95.37-.383 1.192-.288 2.278.373 2.935 1.229 1.223 3.95.498 6.079-1.62 2.128-2.117 2.857-4.825 1.628-6.048-.66-.657-1.752-.75-2.95-.37.383-1.192.288-2.278-.372-2.935z" fill="#A5BC79"/>
        <path d="M18.73 9.913a4.561 4.561 0 0 1-6.419 0 1.023 1.023 0 0 1 0-1.451l4.96-4.936a1.035 1.035 0 0 1 1.46 0 4.505 4.505 0 0 1 0 6.387z" fill="#EF645E"/>
        <path d="M26.075 12.15c1.202 0 2.177-.97 2.177-2.167a2.172 2.172 0 0 0-2.177-2.166c-1.203 0-2.178.97-2.178 2.166s.975 2.166 2.178 2.166z" fill="#FFAB5F"/>
        <path d="M30.996 1.528c.301.3.301.786 0 1.086l-1.31 1.304c-.302.3-.79.3-1.093 0l-1.31-1.304a.765.765 0 0 1 0-1.086l1.31-1.304c.302-.3.79-.3 1.092 0l1.31 1.304z" fill="#C14616"/>
        <path d="M8.239 11.37a.618.618 0 0 1 0 .878l-1.06 1.054a.626.626 0 0 1-.881 0l-1.06-1.054a.619.619 0 0 1 0-.878l1.06-1.053a.626.626 0 0 1 .882 0l1.059 1.053z" fill="#A5BC79"/>
        <path d="M35.804 13.357a.618.618 0 0 1 0 .878l-1.06 1.054a.626.626 0 0 1-.882 0l-1.059-1.054a.618.618 0 0 1 0-.878l1.06-1.053a.626.626 0 0 1 .882 0l1.059 1.053z" fill="#C14616"/>
        <path d="M26.687 24.516a.661.661 0 0 1-.467-.193l-5.92-5.89a.663.663 0 1 1 .935-.94l5.92 5.89a.663.663 0 0 1-.468 1.133z" fill="#899B62"/>
        <path d="M6.553 27.139a.96.96 0 0 1 0 1.363L4.91 30.137a.972.972 0 0 1-1.37 0l-1.644-1.635a.96.96 0 0 1 0-1.363l1.644-1.635a.972.972 0 0 1 1.37 0l1.643 1.635z" fill="#EF645E"/>
        <path d="M17.7 28.05a4.561 4.561 0 0 1-6.42 0 1.023 1.023 0 0 1 0-1.45l4.96-4.936c.403-.4 1.057-.4 1.46 0a4.505 4.505 0 0 1 0 6.387z" fill="#C14616"/>
        <path d="M25.927 27.284a2.642 2.642 0 0 0 2.648-2.635 2.642 2.642 0 0 0-2.648-2.635 2.642 2.642 0 0 0-2.648 2.635 2.642 2.642 0 0 0 2.648 2.635z" fill="#FFAB5F"/>
        <path d="M37.174 30.262c1.202 0 2.177-.97 2.177-2.166a2.172 2.172 0 0 0-2.177-2.167c-1.203 0-2.177.97-2.177 2.167 0 1.196.974 2.166 2.177 2.166z" fill="#FFAB5F"/>
        <path d="M31.707 26.505a1.15 1.15 0 0 1 0 1.632l-1.967 1.957c-.453.45-1.187.45-1.64 0l-1.967-1.957a1.15 1.15 0 0 1 0-1.632l1.967-1.957a1.164 1.164 0 0 1 1.64 0l1.967 1.957z" fill="#EF645E"/>
        <path d="M13.84 10.646a.661.661 0 0 1-.468-.193l-.073-.073a.663.663 0 1 1 .936-.94l.072.072a.663.663 0 0 1-.467 1.134z" fill="#C14616"/>
        <path d="M18.691 5.747a.663.663 0 0 1-.468-1.133l.074-.073a.663.663 0 1 1 .935.94l-.073.073a.661.661 0 0 1-.468.193z" fill="#C14616"/>
        <path d="M15.882 9.63a.662.662 0 0 1-.467-.193l-.073-.073a.663.663 0 1 1 .935-.94l.073.072a.663.663 0 0 1-.468 1.134z" fill="#C14616"/>
        <path d="M17.706 7.96a.66.66 0 0 1-.468-.193l-.073-.073a.663.663 0 1 1 .936-.94l.073.074a.663.663 0 0 1-.468 1.132z" fill="#C14616"/>
        <path d="M12.809 28.784a.662.662 0 0 1-.468-.193l-.073-.073a.663.663 0 0 1 .935-.94l.073.072a.663.663 0 0 1-.467 1.134z" fill="#A03615"/>
        <path d="M17.66 23.885a.663.663 0 0 1-.468-1.133l.073-.073a.663.663 0 1 1 .935.94l-.073.073a.66.66 0 0 1-.467.193z" fill="#A03615"/>
        <path d="M14.851 27.768a.661.661 0 0 1-.467-.194l-.073-.072a.663.663 0 1 1 .935-.94l.073.072a.663.663 0 0 1-.468 1.134z" fill="#A03615"/>
        <path d="M16.675 26.098a.66.66 0 0 1-.468-.193l-.073-.072a.663.663 0 1 1 .936-.94l.073.072a.663.663 0 0 1-.468 1.133z" fill="#A03615"/>
        <path d="M19.434 29.263a5.06 5.06 0 0 1 0-7.174 1.163 1.163 0 0 1 1.639 0l5.572 5.543c.452.45.452 1.18 0 1.63a5.123 5.123 0 0 1-7.21 0z" fill="#fff"/>
        <path d="M21.974 23.393a2.355 2.355 0 0 0 0 3.343 2.384 2.384 0 0 0 3.55-.218l-3.331-3.315c-.076.059-.15.121-.219.19z" fill="#FFCC60"/>
        <path d="M12.509 39.554a11.907 11.907 0 0 1-7.756-2.866 11.768 11.768 0 0 1-3.972-7.141 1.022 1.022 0 0 1 .237-.823c.196-.227.482-.358.783-.358h37.922c.301 0 .587.13.783.358.196.227.282.527.237.823a11.768 11.768 0 0 1-3.972 7.14 11.907 11.907 0 0 1-7.756 2.867H12.51z" fill="#F9EBCF"/>
        <path d="M10.865 30.578H.987c.11.45.249.892.412 1.324h9.466a.662.662 0 0 0 0-1.324z" fill="#DDB690"/>
        <path d="M8.599 33.657H2.232c.268.46.566.903.894 1.324h5.473a.662.662 0 1 0 0-1.324z" fill="#DDB690"/>
        <path opacity=".1" d="M4.483 29.547a1.022 1.022 0 0 1 .238-.823c.196-.227.482-.358.782-.358H1.801c-.3 0-.586.13-.782.358a1.022 1.022 0 0 0-.238.823 11.768 11.768 0 0 0 3.972 7.14 11.907 11.907 0 0 0 7.756 2.867h3.702a11.907 11.907 0 0 1-7.755-2.866 11.768 11.768 0 0 1-3.973-7.141z" fill="#000"/>
        <path d="M32.014 41.124a.876.876 0 0 1-.875.876H10.385a.876.876 0 0 1-.876-.876v-.788c0-.484.392-.876.876-.876H31.14c.483 0 .875.392.875.876v.788z" fill="#A5BC79"/>
        <path opacity=".1" d="M13.199 41.124v-.788c0-.484.392-.876.876-.876h-3.69a.876.876 0 0 0-.875.876v.788c0 .484.392.876.876.876h3.689a.876.876 0 0 1-.876-.876z" fill="#000"/>
    </g>
    <defs>
        <clipPath id="a">
            <path fill="#fff" d="M0 0h42v42H0z"/>
        </clipPath>
    </defs>
</svg>
