<svg width="42" height="42" viewBox="0 0 42 42" fill="none" xmlns="http://www.w3.org/2000/svg">
    <path d="M15.094 5.25V3.281a1.969 1.969 0 1 1 3.937 0V5.25h-3.937z" fill="#AAA9AA"/>
    <path d="M16.078 1.585a1.96 1.96 0 0 0-.984 1.696V5.25h1.969V3.281a1.96 1.96 0 0 0-.985-1.696z" fill="#E3E1E3"/>
    <path d="M33.469 5.25a1.969 1.969 0 1 0 0-3.937 1.969 1.969 0 0 0 0 3.937z" fill="#AA8058"/>
    <path d="M32.813 5.13c.724 0 1.312-.828 1.312-1.849 0-1.02-.588-1.848-1.313-1.848-.724 0-1.312.828-1.312 1.848s.588 1.848 1.313 1.848z" fill="#E3AA75"/>
    <path d="M28.219 13.125a1.969 1.969 0 1 0 0-3.937 1.969 1.969 0 0 0 0 3.937z" fill="#AA8058"/>
    <path d="M27.563 13.004c.724 0 1.312-.827 1.312-1.848 0-1.02-.588-1.848-1.313-1.848-.724 0-1.312.828-1.312 1.848s.588 1.848 1.313 1.848z" fill="#E3AA75"/>
    <path d="M36.75 9.188h2.625v6.562H36.75V9.187z" fill="#AAA9AA"/>
    <path d="M26.25 15.75h14.438v24.938H26.25V15.75z" fill="#E3E1E3"/>
    <path d="M40.688 38.063H26.25V23.624l.849-.849a1.584 1.584 0 0 1 2.24 0l.385.385a1.585 1.585 0 0 0 2.24 0l.385-.385a1.584 1.584 0 0 1 2.24 0l.385.385a1.585 1.585 0 0 0 2.24 0l.385-.385a1.584 1.584 0 0 1 2.24 0l.849.849v14.438z" fill="#E3AA75"/>
    <path d="M19.688 40.688H3.938l-1.313-2.626H21l-1.313 2.626z" fill="#727172"/>
    <path d="M2.625 38.063l1.313 2.624h13.78l1.313-2.624H2.625z" fill="#AAA9AA"/>
    <path d="M2.625 5.25H21v3.937H2.625V5.25z" fill="#8F484C"/>
    <path d="M2.625 5.25h16.406v3.937H2.625V5.25z" fill="#BF6065"/>
    <path d="M21 38.063H2.625a1.312 1.312 0 0 1-1.313-1.313V10.5c0-.725.588-1.313 1.313-1.313H21c.725 0 1.313.588 1.313 1.313v26.25c0 .725-.588 1.313-1.313 1.313z" fill="#BF6065"/>
    <path d="M20.344 36.75V10.5c0-.725-.588-1.313-1.313-1.313H2.625c-.725 0-1.313.588-1.313 1.313v26.25c0 .725.588 1.313 1.313 1.313h16.406c.725 0 1.313-.588 1.313-1.313z" fill="#FF8087"/>
    <path d="M10.5 38.063a8.963 8.963 0 0 0 2.625-6.338v-1.763a8.963 8.963 0 0 0-2.625-6.337l-.77-.77a6.337 6.337 0 0 1 0-8.96l4.707-4.707H10.5l-2.466 2.465a9.506 9.506 0 0 0 0 13.444l.146.146a7.922 7.922 0 0 1 0 11.203l-1.617 1.617H10.5z" fill="#E3E1E3"/>
    <path d="M20.344 16.406h-3.282a.657.657 0 0 1-.656-.656v-3.938c0-.362.294-.656.657-.656h3.28v1.313H17.72v2.625h2.625v1.312z" fill="#E3E1E3"/>
    <path d="M19.688 22.969h-2.625a.657.657 0 0 1-.657-.657v-3.937c0-.362.294-.656.657-.656h2.625c.362 0 .656.294.656.656v3.938a.657.657 0 0 1-.657.656zm-1.97-1.313h1.313v-2.625H17.72v2.625z" fill="#E3E1E3"/>
    <path d="M20.344 29.531h-3.282a.657.657 0 0 1-.656-.656v-4.594h1.313v3.938h2.625v1.312z" fill="#E3E1E3"/>
    <path d="M20.344 36.094H19.03v-3.938H17.72v3.938h-1.313V31.5c0-.362.294-.656.657-.656h2.625c.362 0 .656.294.656.656v4.594z" fill="#E3E1E3"/>
    <path d="M17.063 33.469h2.625v1.312h-2.625V33.47z" fill="#E3E1E3"/>
    <path d="M25.594 2.625h1.312v1.312h-1.312V2.625z" fill="#E3AA75"/>
    <path d="M26.906 3.938h1.313V5.25h-1.313V3.938z" fill="#E3AA75"/>
    <path d="M25.594 5.25h1.312v1.312h-1.312V5.25z" fill="#E3AA75"/>
    <path d="M24.281 3.938h1.313V5.25H24.28V3.938z" fill="#E3AA75"/>
</svg>
