<svg width="42" height="42" viewBox="0 0 42 42" fill="none" xmlns="http://www.w3.org/2000/svg">
    <path d="M33.463 14.44l3.281-3.28.928.927-3.28 3.281-.929-.928z" fill="#E1462B"/>
    <path d="M34.504 16.793l3.28-3.281.929.928-3.281 3.28-.928-.927z" fill="#E1462B"/>
    <path d="M1.969 34.125H40.03v1.313a2.625 2.625 0 0 1-2.625 2.624H4.594a2.625 2.625 0 0 1-2.625-2.624v-1.313z" fill="#CFDFE8"/>
    <path d="M37.406 21H4.594c0 6.563 7.218 10.5 7.218 10.5v2.625h18.376V31.5s7.218-3.938 7.218-10.5z" fill="#CFDFE8"/>
    <path d="M21 13.125h-1.313c.012-.75.291-1.472.788-2.034.324-.336.51-.78.525-1.247a1.879 1.879 0 0 0-.525-1.247 3.142 3.142 0 0 1-.788-2.035c.012-.75.291-1.472.788-2.034.323-.336.51-.78.525-1.247h1.313a3.143 3.143 0 0 1-.788 2.035c-.323.336-.51.78-.525 1.246.014.467.201.911.525 1.247a3.019 3.019 0 0 1 0 4.07c-.324.335-.51.78-.525 1.246z" fill="#7FCAC9"/>
    <path d="M17.063 15.094H15.75c.011-.75.29-1.472.788-2.035a1.742 1.742 0 0 0 0-2.493 3.142 3.142 0 0 1-.788-2.035c.011-.75.29-1.472.788-2.034.323-.336.51-.78.524-1.247h1.313a3.143 3.143 0 0 1-.788 2.034c-.323.337-.51.78-.524 1.247.014.467.2.911.524 1.247a3.019 3.019 0 0 1 0 4.069c-.323.336-.51.78-.524 1.247z" fill="#7FCAC9"/>
    <path d="M24.938 15.094h-1.313c.011-.75.29-1.472.788-2.035a1.744 1.744 0 0 0 0-2.493 3.142 3.142 0 0 1-.788-2.035c.011-.75.29-1.472.788-2.034.323-.336.51-.78.524-1.247h1.313a3.143 3.143 0 0 1-.788 2.034c-.323.337-.51.78-.524 1.247.014.467.2.911.524 1.247a3.019 3.019 0 0 1 0 4.069c-.323.336-.51.78-.524 1.247z" fill="#7FCAC9"/>
    <path d="M11.813 31.5h18.374v2.625H11.813V31.5z" fill="#7D8D9C"/>
    <path d="M20.344 29.531h-7.219a.653.653 0 0 1-.207-.033C8.7 28.092 7.3 23.35 7.244 23.149l1.262-.361c.011.042 1.251 4.2 4.729 5.43h7.109v1.313z" fill="#F4F4E6"/>
    <path d="M21.656 28.219h1.313v1.312h-1.313V28.22z" fill="#F4F4E6"/>
    <path d="M15.094 17.063h.656a2.625 2.625 0 0 1 2.625 2.625V21h-.656a2.625 2.625 0 0 1-2.625-2.625v-1.313z" fill="#8EC13F"/>
    <path d="M21 18.375A2.625 2.625 0 0 0 18.375 21h5.25A2.625 2.625 0 0 0 21 18.375z" fill="#55B56A"/>
    <path d="M36.75 16.406l-3.367 3.367L32.163 21h-5.257l8.551-8.551 1.293 3.957z" fill="#E1462B"/>
    <path d="M36.75 16.406l-3.367 3.367-3.694-1.555 5.768-5.769 1.293 3.957z" fill="#E97424"/>
    <path d="M32.343 15.56l.928-.928 1.313 1.312-.928.928-1.313-1.312z" fill="#394D5C"/>
</svg>
