<?xml version="1.0" encoding="UTF-8"?><!DOCTYPE svg PUBLIC "-//W3C//DTD SVG 1.1//EN" "http://www.w3.org/Graphics/SVG/1.1/DTD/svg11.dtd"><svg xmlns="http://www.w3.org/2000/svg" xmlns:xlink="http://www.w3.org/1999/xlink"><defs>
        <clipPath id="a">
            <path transform="rotate(-180 5.647 5.164)" d="M0 0h10.328v10.328H0z"/>
        </clipPath>
    
        <filter id="a" x="0" y="0" width="41" height="41" filterUnits="userSpaceOnUse" color-interpolation-filters="sRGB">
            <feFlood flood-opacity="0" result="BackgroundImageFix"/>
            <feColorMatrix in="SourceAlpha" values="0 0 0 0 0 0 0 0 0 0 0 0 0 0 0 0 0 0 127 0"/>
            <feOffset dx="2" dy="2"/>
            <feGaussianBlur stdDeviation="2.5"/>
            <feColorMatrix values="0 0 0 0 0.921569 0 0 0 0 0.129412 0 0 0 0 0.180392 0 0 0 0.15 0"/>
            <feBlend in2="BackgroundImageFix" result="effect1_dropShadow"/>
            <feBlend in="SourceGraphic" in2="effect1_dropShadow" result="shape"/>
        </filter>
        <clipPath id="b">
            <path transform="translate(12 12)" d="M0 0h13v13H0z"/>
        </clipPath>
    
        <clipPath id="a">
            <path d="M0 0h23.75v23.75H0z"/>
        </clipPath>
    
        <clipPath id="a">
            <path d="M0 0h24v24H0z"/>
        </clipPath>
    
        <clipPath id="a">
            <path d="M0 0h23.75v23.75H0z"/>
        </clipPath>
    
        <clipPath id="a">
            <path d="M0 0h23.75v23.75H0z"/>
        </clipPath>
    
        <clipPath id="a">
            <path d="M0 0h23.75v23.75H0z"/>
        </clipPath>
    
        <clipPath id="a">
            <path transform="rotate(45 8.485 20.485)" d="M0 0h24v24H0z"/>
        </clipPath>
    
        <clipPath id="a">
            <path d="M0 0h19.365v19H0z"/>
        </clipPath>
    
        <clipPath id="a">
            <path transform="translate(.357)" d="M0 0h25.786v25.786H0z"/>
        </clipPath>
    
        <clipPath id="a">
            <path d="M0 0h23.75v23.75H0z"/>
        </clipPath>
    
        <clipPath id="a">
            <path d="M0 0h25.786v25.786H0z"/>
        </clipPath>
    
        <clipPath id="a">
            <path d="M0 0h10v10H0z"/>
        </clipPath>
        <clipPath id="b">
            <path d="M0 0h10v10H0z"/>
        </clipPath>
    </defs><symbol id="icon-arrow-right" viewBox="0 0 12 11">
    <g clip-path="url(#a)">
        <path d="M7.924 8.686a.365.365 0 0 1-.52 0 .367.367 0 0 1 0-.516l2.639-2.639H1.335a.367.367 0 1 1 0-.734h8.708l-2.64-2.634a.374.374 0 0 1 0-.52.365.365 0 0 1 .521 0l3.264 3.264c.14.14.14.375 0 .515L7.924 8.686z"/>
    </g>
    
</symbol><symbol id="icon-buy" viewBox="0 0 41 41">
    <circle cx="18.5" cy="18.5" r="15.5" filter="url(#a)"/>
    <g clip-path="url(#b)">
        <path d="M15.903 20.56h7.163c.812 0 1.475-.663 1.475-1.475V16.07v-.01-.022c0-.005 0-.01-.003-.016l-.003-.019c0-.005-.003-.01-.003-.016l-.005-.019c-.003-.005-.003-.01-.005-.016-.003-.005-.003-.01-.006-.016l-.008-.018c-.002-.006-.005-.011-.008-.014l-.008-.016-.008-.013c-.002-.005-.008-.01-.01-.016l-.011-.013c-.003-.006-.008-.008-.01-.014-.003-.005-.009-.008-.011-.013-.003-.005-.008-.008-.011-.01l-.013-.014c-.006-.003-.008-.008-.014-.01-.005-.004-.01-.009-.016-.012l-.013-.008c-.006-.002-.01-.005-.016-.01l-.016-.008-.016-.008-.016-.008c-.006-.003-.011-.003-.016-.006a.05.05 0 0 0-.019-.005c-.005 0-.01-.003-.013-.003-.008-.002-.014-.002-.022-.002-.002 0-.005-.003-.01-.003l-9.08-1.253v-1.267c0-.013 0-.026-.002-.037l-.002-.01c0-.009-.003-.017-.003-.025-.003-.008-.003-.013-.005-.021 0-.005-.003-.008-.003-.013l-.008-.024-.003-.011a.08.08 0 0 0-.01-.021c-.003-.003-.003-.008-.006-.011a.053.053 0 0 0-.01-.016l-.009-.014-.008-.013c-.002-.005-.008-.01-.01-.016l-.008-.008-.016-.016-.008-.008-.019-.016c-.003-.003-.008-.005-.01-.008l-.017-.013a.246.246 0 0 0-.021-.014c-.003-.002-.006-.002-.008-.005l-.035-.016-1.969-.828a.36.36 0 1 0-.28.665l1.747.737V21.334c0 .748.56 1.368 1.285 1.462A1.458 1.458 0 0 0 16.96 25a1.46 1.46 0 0 0 1.456-1.456c0-.267-.072-.521-.2-.735h3.243A1.458 1.458 0 0 0 22.716 25a1.46 1.46 0 0 0 1.456-1.455 1.46 1.46 0 0 0-1.456-1.456h-6.813a.754.754 0 0 1-.754-.754v-.977c.22.128.478.203.754.203zm1.795 2.981a.736.736 0 0 1-.735.735.738.738 0 0 1-.734-.735c0-.403.33-.735.734-.735.404 0 .735.33.735.735zm5.755 0a.736.736 0 0 1-.735.735.738.738 0 0 1-.734-.735c0-.403.33-.735.734-.735.404 0 .735.33.735.735zm-.387-3.703h-7.163a.754.754 0 0 1-.754-.753V15.187l8.67 1.194v2.701c0 .42-.34.756-.753.756z"/>
    </g>
    
</symbol><symbol id="icon-close-menu" viewBox="0 0 20 19">
    <path d="M1 18L18.364 1M19 18L1.636 1"/>
</symbol><symbol id="icon-delete" viewBox="0 0 12 12">
    <path d="M11.003 1.727H8.507V1.32C8.507.592 7.915 0 7.187 0H4.813c-.727 0-1.32.592-1.32 1.32v.407H.997a.332.332 0 0 0-.333.333c0 .185.148.333.333.333h.602v7.826c0 .982.8 1.781 1.781 1.781h5.24c.982 0 1.781-.8 1.781-1.781V2.393h.602a.332.332 0 0 0 .333-.333.332.332 0 0 0-.333-.333zM4.16 1.32c0-.36.293-.654.653-.654h2.374c.36 0 .654.294.654.654v.407H4.16V1.32zm5.575 8.899c0 .614-.5 1.115-1.115 1.115H3.38c-.614 0-1.115-.5-1.115-1.115V2.393h7.473v7.826h-.003z"/>
    <path d="M6 10.14a.332.332 0 0 0 .333-.333V3.92A.332.332 0 0 0 6 3.587a.332.332 0 0 0-.333.333v5.884c0 .185.148.336.333.336z"/>
    <path d="M3.826 9.772a.332.332 0 0 0 .334-.333V4.285a.332.332 0 0 0-.334-.333.332.332 0 0 0-.333.333V9.44c0 .185.15.333.333.333z"/>
    <path d="M8.174 9.772a.332.332 0 0 0 .333-.333V4.285a.332.332 0 0 0-.333-.333.332.332 0 0 0-.334.333V9.44c0 .185.148.333.334.333z"/>
</symbol><symbol id="icon-facebook" viewBox="0 0 20 20">
    <path d="M16.663 2.946h-2.63a3.716 3.716 0 0 0-3.712 3.712v2.22h-2.08a.39.39 0 0 0-.391.39v3.006c0 .216.175.39.39.39h2.081v6.555h-9.15a.391.391 0 0 1-.39-.39V1.171c0-.216.175-.39.39-.39h.782a.39.39 0 1 0 0-.782h-.781C.526 0 0 .526 0 1.172v17.656C0 19.474.526 20 1.172 20h9.54a.39.39 0 0 0 .39-.39v-7.336a.39.39 0 0 0-.39-.39H8.63V9.658h2.08a.39.39 0 0 0 .391-.39v-2.61a2.935 2.935 0 0 1 2.932-2.932h2.239v2.224h-2.24a.717.717 0 0 0-.706.707v2.61c0 .216.174.391.39.391h2.501l-.293 2.224h-2.208a.39.39 0 0 0-.39.39v7.336c0 .216.175.391.39.391h1.205a.39.39 0 0 0 0-.781h-.814v-6.555h2.16a.39.39 0 0 0 .387-.34l.396-3.005a.39.39 0 0 0-.388-.441h-2.555V6.733h2.555a.39.39 0 0 0 .391-.39V3.336a.39.39 0 0 0-.39-.39z"/>
    <path d="M18.828 0H5.078a.39.39 0 1 0 0 .781h13.75c.216 0 .39.175.39.39v17.657c0 .216-.174.39-.39.39h-.781a.39.39 0 1 0 0 .782h.781c.646 0 1.172-.526 1.172-1.172V1.172C20 .526 19.474 0 18.828 0z"/>
    <path d="M16.485 19.219a.39.39 0 1 0-.001.78.39.39 0 0 0 0-.78z"/>
    <path d="M3.516.781a.39.39 0 1 0 0-.781.39.39 0 1 0 0 .781z"/>
</symbol><symbol id="icon-header__cart" viewBox="0 0 22 23">
    <path d="M6.617 14.513h12.145c1.377 0 2.5-1.124 2.5-2.5v-5.11-.019-.036c0-.01 0-.018-.004-.027 0-.01-.005-.023-.005-.032 0-.009-.004-.018-.004-.027-.005-.01-.005-.018-.01-.032-.004-.009-.004-.018-.008-.027-.005-.01-.005-.018-.01-.027a.233.233 0 0 1-.013-.032c-.004-.009-.009-.018-.013-.023l-.014-.027c-.005-.009-.01-.013-.014-.022-.004-.01-.013-.018-.018-.028a.08.08 0 0 0-.018-.022c-.004-.01-.014-.014-.018-.023-.005-.009-.014-.013-.018-.022-.005-.01-.014-.014-.018-.019l-.023-.022c-.009-.005-.013-.014-.022-.018-.01-.005-.019-.014-.028-.019-.009-.004-.013-.009-.022-.013-.01-.005-.018-.01-.027-.018l-.028-.014-.027-.013-.027-.014c-.01-.005-.018-.005-.027-.009a.083.083 0 0 0-.032-.01c-.009 0-.018-.004-.023-.004-.013-.004-.022-.004-.036-.004-.004 0-.009-.005-.018-.005L5.344 4.171V2.023c0-.022 0-.045-.005-.063 0-.004 0-.009-.004-.018 0-.014-.005-.027-.005-.04-.004-.014-.004-.023-.009-.037 0-.01-.004-.014-.004-.023l-.014-.04c0-.005-.004-.014-.004-.019a.136.136 0 0 0-.018-.036c-.005-.004-.005-.013-.01-.018a.095.095 0 0 0-.018-.027c-.004-.01-.009-.014-.013-.023-.005-.009-.01-.013-.014-.022-.004-.01-.013-.019-.018-.028l-.013-.013-.028-.027-.013-.014c-.01-.009-.018-.018-.032-.027-.004-.005-.014-.01-.018-.014-.01-.009-.018-.013-.027-.022-.014-.01-.027-.019-.036-.023-.005-.005-.01-.005-.014-.01l-.059-.026L1.629.048a.61.61 0 0 0-.801.327.61.61 0 0 0 .326.801l2.962 1.25v13.4c0 1.269.952 2.32 2.18 2.478a2.47 2.47 0 0 0-.354 1.269 2.472 2.472 0 0 0 2.469 2.469 2.475 2.475 0 0 0 2.469-2.47c0-.452-.123-.883-.34-1.245h5.5c-.218.367-.34.793-.34 1.246a2.472 2.472 0 0 0 2.469 2.469 2.475 2.475 0 0 0 2.468-2.47 2.475 2.475 0 0 0-2.468-2.468H6.617a1.279 1.279 0 0 1-1.278-1.277v-1.659c.372.218.811.345 1.278.345zm3.044 5.055c0 .689-.562 1.246-1.246 1.246a1.25 1.25 0 0 1-1.245-1.246 1.25 1.25 0 0 1 1.245-1.245c.684 0 1.246.557 1.246 1.245zm9.758 0c0 .689-.562 1.246-1.246 1.246a1.25 1.25 0 0 1-1.246-1.246 1.25 1.25 0 0 1 1.246-1.245c.684 0 1.246.557 1.246 1.245zm-.657-6.278H6.617a1.279 1.279 0 0 1-1.278-1.278V5.403l14.7 2.025v4.58a1.28 1.28 0 0 1-1.277 1.282z"/>
</symbol><symbol id="icon-headset" viewBox="0 0 25 25">
    <path d="M5.86 9.912H3.93c.326-4.443 4.045-7.959 8.57-7.959a8.63 8.63 0 0 1 8.063 5.612.977.977 0 0 0 1.832-.677 10.52 10.52 0 0 0-3.803-4.952A10.479 10.479 0 0 0 12.5 0a10.478 10.478 0 0 0-7.458 3.09 10.476 10.476 0 0 0-3.088 7.347A3.907 3.907 0 0 0 0 13.818v3.32a3.91 3.91 0 0 0 3.906 3.907H5.86c.54 0 .977-.437.977-.977v-9.18a.977.977 0 0 0-.977-.976zm-.977 9.18h-.977a1.955 1.955 0 0 1-1.953-1.953v-3.32c0-1.078.876-1.954 1.953-1.954h.977v7.227z"/>
    <path d="M21.094 9.912H19.14a.977.977 0 0 0-.977.977v10.205a.978.978 0 0 1-.977.976H14.21v.031a1.952 1.952 0 1 0 0 1.892v.03h2.979a2.933 2.933 0 0 0 2.93-2.93v-.048h.976A3.91 3.91 0 0 0 25 17.139v-3.32a3.91 3.91 0 0 0-3.906-3.907zm1.953 7.227a1.955 1.955 0 0 1-1.953 1.953h-.977v-7.227h.977c1.077 0 1.953.876 1.953 1.953v3.32z"/>
</symbol><symbol id="icon-home" viewBox="0 0 24 24">
    <g clip-path="url(#a)">
        <path d="M23.497 9.651L12.24 1.41a.617.617 0 0 0-.729 0L.252 9.65a.617.617 0 1 0 .73.996l10.893-7.976 10.893 7.976a.614.614 0 0 0 .863-.133.617.617 0 0 0-.134-.863z"/>
        <path d="M20.514 10.787a.617.617 0 0 0-.617.617v9.822h-4.936v-5.361a3.09 3.09 0 0 0-3.086-3.086 3.09 3.09 0 0 0-3.086 3.086v5.361H3.853v-9.822a.617.617 0 0 0-1.234 0v10.44c0 .34.276.617.617.617h6.17a.617.617 0 0 0 .618-.617v-5.98c0-1.02.83-1.85 1.851-1.85s1.852.83 1.852 1.85v5.98a.617.617 0 0 0 .617.617h6.17c.341 0 .617-.277.617-.617v-10.44a.617.617 0 0 0-.617-.617z"/>
    </g>
    
</symbol><symbol id="icon-left-arrow" viewBox="0 0 24 24">
    <g clip-path="url(#a)">
        <path d="M7.829 3.817a.847.847 0 0 1 1.21 0 .853.853 0 0 1 0 1.197l-6.133 6.132H23.14c.472 0 .86.375.86.847a.862.862 0 0 1-.86.859H2.906l6.132 6.12a.868.868 0 0 1 0 1.21.847.847 0 0 1-1.21 0L.246 12.598a.853.853 0 0 1 0-1.197l7.584-7.584z"/>
    </g>
    
</symbol><symbol id="icon-like-fill" viewBox="0 0 14 14">
    <path d="M7.344.586c-.543 0-1.04.172-1.479.511-.42.325-.7.74-.865 1.04a3.368 3.368 0 0 0-.865-1.04A2.368 2.368 0 0 0 2.656.586C1.142.586 0 1.825 0 3.467c0 1.775 1.425 2.989 3.581 4.827.367.312.782.666 1.213 1.043a.312.312 0 0 0 .412 0c.431-.378.846-.731 1.213-1.044C8.575 6.456 10 5.242 10 3.467 10 1.825 8.858.586 7.344.586z"/>
</symbol><symbol id="icon-newspaper" viewBox="0 0 24 24">
    <g clip-path="url(#a)">
        <path d="M23.288 13.969c-.293-.162-.666-.127-1.021.097l-6.575 4.14a.392.392 0 0 0 .418.663l6.574-4.14c.139-.087.215-.081.226-.075.011.006.057.067.057.231 0 .441-.327 1.034-.7 1.27l-6.374 4.012c-.339.214-.648.272-.85.161-.201-.11-.316-.404-.316-.805 0-1.014.725-2.328 1.584-2.869l7.256-4.57a.392.392 0 0 0 0-.662L9.623 2.642a.391.391 0 0 0-.417 0L1.861 7.267C.818 7.924 0 9.405 0 10.639v.209c0 1.233.818 2.714 1.861 3.371l10.925 6.88a.392.392 0 0 0 .417-.663l-10.924-6.88c-.811-.51-1.496-1.75-1.496-2.708v-.21c0-.957.685-2.198 1.496-2.708l7.136-4.494 13.209 8.317-6.73 4.239c-1.094.688-1.95 2.24-1.95 3.531 0 .705.256 1.234.72 1.49.188.104.394.155.612.155.325 0 .678-.113 1.035-.338l6.373-4.013c.598-.377 1.066-1.225 1.066-1.932 0-.42-.168-.754-.462-.916z"/>
        <path d="M18.46 12.145a.391.391 0 0 0 .21-.723L9.623 5.726a.392.392 0 0 0-.418.663l9.046 5.696a.39.39 0 0 0 .208.06z"/>
        <path d="M16.895 13.184a.391.391 0 0 0 .209-.723l-3.822-2.396a.391.391 0 1 0-.416.663l3.822 2.396c.064.04.136.06.207.06z"/>
        <path d="M11.687 11.095a.391.391 0 0 0-.415.664l3.851 2.404a.39.39 0 0 0 .54-.124.392.392 0 0 0-.125-.54l-3.851-2.404z"/>
        <path d="M7.58 6.75L4.325 8.8a.391.391 0 0 0 .002.663l3.88 2.413a.39.39 0 0 0 .42-.004l.863-.558a.392.392 0 0 0-.425-.658l-.655.424-3.138-1.951 2.516-1.585 3.092 1.94-.36.232a.392.392 0 0 0 .424.658l.877-.567a.392.392 0 0 0-.004-.66L7.996 6.75a.391.391 0 0 0-.417 0z"/>
        <path d="M14.098 15.077a.391.391 0 0 0-.126-.54l-3.88-2.412a.391.391 0 1 0-.413.665l3.88 2.413a.391.391 0 0 0 .54-.126z"/>
        <path d="M2.794 10.067a.391.391 0 0 0 .126.54l9.577 5.954a.389.389 0 0 0 .539-.126.391.391 0 0 0-.126-.54L3.333 9.942a.391.391 0 0 0-.54.126z"/>
    </g>
    
</symbol><symbol id="icon-phone-call" viewBox="0 0 24 24">
    <g clip-path="url(#a)">
        <path d="M23.734 19.547a1.822 1.822 0 0 0-.903-1.35l-5.86-3.373a1.838 1.838 0 0 0-2.213.293l-1.154 1.154a.846.846 0 0 1-1.13.063 33.347 33.347 0 0 1-2.663-2.395 33.365 33.365 0 0 1-2.395-2.662.846.846 0 0 1 .064-1.13l1.154-1.154a1.838 1.838 0 0 0 .292-2.214L5.553.919a1.822 1.822 0 0 0-1.35-.903 1.822 1.822 0 0 0-1.539.522L.925 2.277C-.288 3.49-.308 5.71.871 8.528c1.132 2.71 3.247 5.692 5.953 8.398 2.706 2.706 5.689 4.82 8.398 5.954 1.387.58 2.63.87 3.678.87 1.082 0 1.957-.309 2.574-.925l1.739-1.74c.407-.406.597-.967.521-1.538zm-7.147-4.056l5.86 3.373c.29.167.48.453.525.784.037.278-.036.552-.2.773l-7.786-4.444.316-.316c.34-.34.869-.41 1.285-.17zM4.102.779c.332.043.617.235.784.525L8.26 7.163c.24.417.17.945-.17 1.285l-.29.291L3.33.978a1.053 1.053 0 0 1 .772-.2zM20.93 22.28c-.965.964-2.937.924-5.411-.111-2.62-1.095-5.514-3.15-8.15-5.788-2.638-2.637-4.693-5.532-5.789-8.15C.546 5.756.505 3.784 1.47 2.82L2.76 1.53l4.476 7.772-.3.3a1.614 1.614 0 0 0-.119 2.157c.75.931 1.574 1.848 2.45 2.724a34.16 34.16 0 0 0 2.724 2.45c.644.518 1.571.467 2.157-.118l.274-.274 7.797 4.45-1.29 1.29z"/>
    </g>
    
</symbol><symbol id="icon-shopping-bag" viewBox="0 0 24 24">
    <g clip-path="url(#a)">
        <path d="M21.28 19.585L20.218 6.221a1.67 1.67 0 0 0-1.658-1.536h-2.095v-.094c0-2.532-2.06-4.591-4.59-4.591a4.596 4.596 0 0 0-4.592 4.59v.095H5.19a1.67 1.67 0 0 0-1.657 1.534L2.47 19.587a3.879 3.879 0 0 0 1.018 2.924 3.879 3.879 0 0 0 2.838 1.239h11.097a3.879 3.879 0 0 0 2.837-1.24 3.88 3.88 0 0 0 1.018-2.925zM8.674 4.591c0-1.764 1.436-3.2 3.2-3.2 1.764 0 3.2 1.436 3.2 3.2v.094h-6.4v-.094zM19.24 21.565a2.45 2.45 0 0 1-1.816.794H6.327a2.45 2.45 0 0 1-1.817-.794 2.45 2.45 0 0 1-.652-1.87l1.06-13.368c.011-.14.13-.25.271-.25h2.095v1.712a.696.696 0 0 0 1.391 0V6.076h6.4V7.79a.696.696 0 0 0 1.39 0V6.076h2.096c.14 0 .26.11.27.253l1.061 13.365a2.45 2.45 0 0 1-.652 1.871z"/>
        <path d="M15.009 11.795a.695.695 0 0 0-.984 0l-3.106 3.106-1.194-1.194a.695.695 0 1 0-.984.984l1.686 1.686a.694.694 0 0 0 .984 0l3.598-3.598a.695.695 0 0 0 0-.984z"/>
    </g>
    
</symbol><symbol id="icon-size" viewBox="0 0 34 34">
    <g clip-path="url(#a)">
        <path d="M24.06 12.61a.746.746 0 0 0 .75.752.752.752 0 0 0 .752-.752l.003-3.704a.751.751 0 0 0-.458-.693h-.005a.745.745 0 0 0-.248-.051c-.014 0-.025-.008-.04-.008l-3.626.002a.75.75 0 0 0 0 1.501H23L9.657 22.998v-1.812a.75.75 0 1 0-1.5.001l-.002 3.626a.748.748 0 0 0 .75.75l3.706-.002a.751.751 0 0 0 0-1.502l-1.892.002 13.343-13.343-.001 1.892z"/>
    </g>
    
</symbol><symbol id="icon-telegram" viewBox="0 0 20 19">
    <g clip-path="url(#a)">
        <path d="M14.572 4.524L6.608 9.337a1.16 1.16 0 0 0-.52 1.31l.862 2.97a.585.585 0 0 0 .612.42.582.582 0 0 0 .543-.502l.224-1.628a.956.956 0 0 1 .303-.573l6.572-5.994a.506.506 0 0 0 .061-.689.53.53 0 0 0-.693-.127zM8.106 10.78a1.71 1.71 0 0 0-.542 1.026l-.108.79-.625-2.156a.406.406 0 0 1 .182-.459l5.834-3.525-4.74 4.324z"/>
        <path d="M19.05 1.387a.903.903 0 0 0-.896-.148L.57 7.894a.868.868 0 0 0 .01 1.635l4.107 1.504 1.602 5.055c.088.278.31.494.594.577.283.084.59.024.819-.16l2.388-1.91a.332.332 0 0 1 .398-.01l4.308 3.068a.899.899 0 0 0 1.395-.53l3.156-14.891a.864.864 0 0 0-.297-.845zm-.459.69L15.436 16.97a.114.114 0 0 1-.074.085.118.118 0 0 1-.113-.015l-4.308-3.068a1.11 1.11 0 0 0-1.338.037l-2.389 1.91a.118.118 0 0 1-.11.021.115.115 0 0 1-.079-.077L5.367 10.63a.382.382 0 0 0-.233-.242L.85 8.82a.11.11 0 0 1-.078-.11.11.11 0 0 1 .076-.11l17.584-6.655c.057-.022.1.003.12.02.02.017.052.054.04.113z"/>
        <path d="M16.169 9.357a.386.386 0 0 0-.46.29l-.058.264a.379.379 0 0 0 .378.46.384.384 0 0 0 .376-.299l.059-.265a.379.379 0 0 0-.295-.45z"/>
        <path d="M15.783 11.1a.386.386 0 0 0-.459.29l-.887 4.01a.379.379 0 0 0 .377.458.384.384 0 0 0 .377-.298l.887-4.01a.379.379 0 0 0-.295-.45z"/>
    </g>
    
</symbol><symbol id="icon-truck" viewBox="0 0 27 26">
    <g clip-path="url(#a)">
        <path d="M6.374 16.976a2.581 2.581 0 0 0-2.579 2.578 2.581 2.581 0 0 0 2.579 2.579 2.581 2.581 0 0 0 2.578-2.579 2.581 2.581 0 0 0-2.578-2.578zm0 4.297a1.72 1.72 0 0 1-1.72-1.719 1.72 1.72 0 0 1 1.72-1.719 1.72 1.72 0 0 1 1.719 1.72 1.72 1.72 0 0 1-1.72 1.718z"/>
        <path d="M20.986 16.976a2.581 2.581 0 0 0-2.579 2.578 2.581 2.581 0 0 0 2.579 2.579 2.581 2.581 0 0 0 2.578-2.579 2.581 2.581 0 0 0-2.578-2.578zm0 4.297a1.72 1.72 0 0 1-1.72-1.719 1.72 1.72 0 0 1 1.72-1.719 1.72 1.72 0 0 1 1.719 1.72 1.72 1.72 0 0 1-1.72 1.718z"/>
        <path d="M26.075 14.594l-3.868-6.016a.43.43 0 0 0-.362-.198h-4.727a.43.43 0 0 0-.43.43v10.744c0 .238.192.43.43.43h1.719v-.86h-1.29V9.24h4.064l3.672 5.713v4.171h-2.149v.86h2.58a.43.43 0 0 0 .429-.43v-4.727a.428.428 0 0 0-.069-.233z"/>
        <path d="M19.267 13.967V10.96h3.438v-.86h-3.868a.43.43 0 0 0-.43.43v3.868c0 .238.192.43.43.43h6.447v-.86h-6.017z"/>
        <path d="M17.118 5.372H.787a.43.43 0 0 0-.43.43v13.752c0 .238.193.43.43.43h3.438v-.86H1.217V6.232h15.471v12.892H8.523v.86h8.595a.43.43 0 0 0 .43-.43V5.802a.43.43 0 0 0-.43-.43z"/>
        <path d="M3.366 17.405H.787v.86h2.579v-.86z"/>
        <path d="M16.688 17.405H9.382v.86h7.306v-.86z"/>
        <path d="M25.713 17.405h-1.719v.86h1.72v-.86z"/>
        <path d="M17.118 7.091H2.076v.86h15.042v-.86z"/>
        <path d="M6.804 19.124h-.86v.86h.86v-.86z"/>
        <path d="M21.416 19.124h-.86v.86h.86v-.86z"/>
        <path d="M8.093 3.653H2.076v.86h6.017v-.86z"/>
        <path d="M1.217 3.653h-.86v.86h.86v-.86z"/>
    </g>
    
</symbol><symbol id="icon-twitter" viewBox="0 0 20 20">
    <path d="M10.41 16.654c-2.784 1.126-5.818 1.005-8.517-.303 2.775-.205 4.449-1.626 4.53-1.696a.39.39 0 0 0-.242-.686c-1.1-.037-1.988-.452-2.638-1.231a3.774 3.774 0 0 1-.449-.678c.7-.004 1.229-.127 1.257-.133a.39.39 0 0 0 .003-.76c-2.139-.524-2.667-2.015-2.792-2.862.68.25 1.272.24 1.304.24a.39.39 0 0 0 .232-.699C1.124 6.31 1.465 4.501 1.788 3.644c.27.284.568.568.89.846a.39.39 0 1 0 .51-.59c-.46-.398-.864-.804-1.202-1.207a.39.39 0 0 0-.632.046 4.64 4.64 0 0 0-.58 1.917 4.05 4.05 0 0 0 .864 2.837 2.513 2.513 0 0 1-.293-.155.39.39 0 0 0-.595.3 4.27 4.27 0 0 0 .327 1.81 3.95 3.95 0 0 0 1.504 1.809 1.86 1.86 0 0 1-.04-.005.391.391 0 0 0-.42.49c.009.03.206.744.799 1.468A4.12 4.12 0 0 0 5.1 14.6a8.06 8.06 0 0 1-4.673.955.391.391 0 0 0-.25.716c1.949 1.28 4.128 1.933 6.319 1.933 1.418 0 2.84-.274 4.207-.826a.39.39 0 1 0-.293-.725z"/>
    <path d="M19.897 3.812a.39.39 0 0 0-.445-.093c-.227.1-.448.182-.656.25.643-.774.696-1.376.7-1.466a.39.39 0 0 0-.615-.338c-.773.543-1.758.802-2.184.874a4.274 4.274 0 0 0-2.99-1.203 4.322 4.322 0 0 0-4.29 4.812c-1.372.026-2.76-.535-3.72-1.038a.39.39 0 0 0-.363.692c1.154.604 2.885 1.284 4.583 1.096a.39.39 0 0 0 .338-.473 3.54 3.54 0 0 1 3.452-4.307c.979 0 1.89.39 2.564 1.101.083.087.2.13.315.12.258-.016.94-.15 1.674-.455-.222.286-.55.616-1.035.959a.39.39 0 0 0 .255.708 6.653 6.653 0 0 0 1.074-.197c-.34.37-.739.715-1.133.972a.39.39 0 0 0-.178.327c0 3.603-1.54 6.88-4.225 8.988a.39.39 0 0 0 .483.615 11.751 11.751 0 0 0 3.274-4.055c.8-1.635 1.219-3.43 1.247-5.34.782-.55 1.525-1.355 1.93-2.097a.39.39 0 0 0-.055-.452z"/>
    <path d="M11.778 15.985a.39.39 0 1 0 .37.688.39.39 0 0 0-.37-.688z"/>
    <path d="M3.951 5.47a.39.39 0 0 0 .543-.1.39.39 0 1 0-.543.099z"/>
</symbol><symbol id="icon-user" viewBox="0 0 24 24">
    <g clip-path="url(#a)">
        <path d="M11.706 11.44c1.572 0 2.932-.563 4.045-1.675 1.111-1.112 1.675-2.473 1.675-4.045 0-1.571-.563-2.932-1.676-4.044C14.638.564 13.277 0 11.706 0 10.134 0 8.773.564 7.66 1.676S5.985 4.149 5.985 5.72c0 1.572.564 2.933 1.676 4.045 1.113 1.112 2.473 1.675 4.045 1.675zm-3.06-8.78c.853-.853 1.854-1.268 3.06-1.268s2.207.415 3.06 1.268c.854.853 1.268 1.854 1.268 3.06s-.414 2.207-1.268 3.06c-.853.854-1.854 1.269-3.06 1.269s-2.207-.415-3.06-1.269c-.854-.853-1.269-1.854-1.269-3.06s.415-2.207 1.269-3.06z"/>
        <path d="M21.715 18.263a14.135 14.135 0 0 0-.192-1.501 11.823 11.823 0 0 0-.37-1.509 7.45 7.45 0 0 0-.62-1.407 5.302 5.302 0 0 0-.935-1.22 4.125 4.125 0 0 0-1.344-.843 4.644 4.644 0 0 0-1.715-.31c-.242 0-.477.099-.93.394-.278.181-.604.392-.968.624-.311.198-.733.384-1.253.552a4.977 4.977 0 0 1-1.533.248 4.982 4.982 0 0 1-1.533-.248c-.52-.168-.942-.353-1.252-.552-.36-.23-.687-.44-.97-.624-.452-.295-.686-.395-.929-.395-.617 0-1.194.105-1.715.31-.522.208-.974.492-1.344.845a5.306 5.306 0 0 0-.935 1.219 7.466 7.466 0 0 0-.62 1.407c-.148.464-.272.972-.369 1.509a14.03 14.03 0 0 0-.192 1.501c-.032.454-.048.926-.048 1.403 0 1.24.394 2.243 1.172 2.983.767.73 1.782 1.1 3.018 1.1h11.435c1.235 0 2.25-.37 3.018-1.1.778-.74 1.172-1.744 1.172-2.984 0-.478-.016-.95-.048-1.402zm-2.083 3.378c-.507.483-1.18.717-2.059.717H6.138c-.879 0-1.552-.235-2.059-.717-.497-.473-.739-1.12-.739-1.975 0-.445.015-.885.044-1.307.029-.414.087-.868.174-1.351.086-.477.195-.925.325-1.33.124-.39.294-.774.504-1.145.201-.353.433-.656.688-.9.238-.229.54-.416.893-.556.328-.13.697-.2 1.097-.212.048.026.135.076.276.168.286.186.616.399.98.632.411.262.94.498 1.573.702.647.21 1.306.316 1.961.316s1.314-.107 1.96-.316c.634-.204 1.163-.44 1.575-.703.373-.238.693-.445.98-.631.14-.092.227-.142.276-.168.4.011.768.082 1.096.212.354.14.655.327.894.556.255.244.486.547.687.9.21.371.38.756.505 1.144.13.406.24.854.325 1.33.086.485.145.94.174 1.352.03.421.044.86.044 1.307 0 .855-.242 1.502-.74 1.975z"/>
    </g>
    
</symbol><symbol id="icon-voucher" viewBox="0 0 26 26">
    <g clip-path="url(#a)">
        <path d="M25.28 9.78c.28 0 .506-.226.506-.505v-3.43a.506.506 0 0 0-.506-.507H.506A.506.506 0 0 0 0 5.844v3.43c0 .28.226.506.506.506a3.135 3.135 0 0 1 3.13 3.132 3.135 3.135 0 0 1-3.13 3.13.506.506 0 0 0-.506.506v3.43c0 .28.226.507.506.507h4.497a.506.506 0 1 0 0-1.012H1.012v-2.45a4.15 4.15 0 0 0 3.637-4.111A4.149 4.149 0 0 0 1.012 8.8V6.35h17.371v1.011a.506.506 0 1 0 1.012 0V6.35h5.38V8.8a4.149 4.149 0 0 0-3.638 4.111 4.15 4.15 0 0 0 3.637 4.113v2.45h-5.379v-1.012a.506.506 0 0 0-1.012 0v1.011H9.156a.506.506 0 1 0 0 1.012H25.28c.28 0 .506-.227.506-.506v-3.43a.506.506 0 0 0-.506-.506 3.135 3.135 0 0 1-3.131-3.131 3.135 3.135 0 0 1 3.13-3.132z"/>
        <path d="M18.89 15.267c.279 0 .505-.226.505-.505v-3.7a.506.506 0 1 0-1.012 0v3.7c0 .279.227.505.506.505z"/>
        <path d="M10.77 12.194c.376-.375.582-.873.582-1.403s-.207-1.03-.581-1.404a1.988 1.988 0 0 0-3.39 1.404c0 .53.207 1.028.582 1.403.387.388.895.581 1.404.581.508 0 1.017-.193 1.404-.58zm-2.377-1.403a.971.971 0 0 1 1.663-.689.967.967 0 0 1 .285.689.975.975 0 0 1-1.948 0z"/>
        <path d="M12.502 13.871a1.987 1.987 0 0 0 0 2.808c.386.388.895.581 1.403.581.509 0 1.017-.194 1.404-.58a1.988 1.988 0 0 0 0-2.809 1.988 1.988 0 0 0-2.807 0zm2.092.716a.975.975 0 0 1-1.377 1.377.975.975 0 0 1 1.377-1.377z"/>
        <path d="M9.353 16.045l5.268-5.268a.506.506 0 0 0-.715-.715L8.638 15.33a.51.51 0 0 0-.03.682c.188.224.538.24.745.033z"/>
        <path d="M7.07 19.468a.51.51 0 0 0-.475.334.51.51 0 0 0 .153.561.51.51 0 0 0 .58.046.51.51 0 0 0 .239-.53.51.51 0 0 0-.497-.411z"/>
    </g>
    
</symbol><symbol id="icon-weight" viewBox="0 0 10 10">
    <g clip-path="url(#a)">
        <g clip-path="url(#b)">
            <path d="M9.121 0H.88A.88.88 0 0 0 0 .88v8.242A.88.88 0 0 0 .879 10H9.12A.88.88 0 0 0 10 9.12V.88A.88.88 0 0 0 9.121 0zm.293 9.122a.293.293 0 0 1-.293.293H.88a.293.293 0 0 1-.293-.293V.879c0-.161.131-.293.293-.293H9.12c.162 0 .293.132.293.293v8.243z"/>
            <path d="M8.379 2.337A5.59 5.59 0 0 0 5 1.211a5.59 5.59 0 0 0-3.379 1.126.293.293 0 0 0-.058.41l1.546 2.058a.293.293 0 0 0 .41.059A2.45 2.45 0 0 1 5 4.37c.538 0 1.05.17 1.48.494.13.097.314.07.41-.059l1.547-2.057a.293.293 0 0 0-.058-.41zM6.59 4.23a3.02 3.02 0 0 0-1.297-.432v-.893a.293.293 0 1 0-.586 0v.893a3.02 3.02 0 0 0-1.297.432L2.212 2.637A5.004 5.004 0 0 1 5 1.797c1.002 0 1.96.29 2.788.84L6.59 4.23z"/>
        </g>
    </g>
    
</symbol></svg>