<svg width="40" height="40" viewBox="0 0 40 40" fill="none" xmlns="http://www.w3.org/2000/svg">
    <g clip-path="url(#a)">
        <path d="M17.773 22.894H2.668c-1.82 0-3.105-1.82-2.529-3.584 1.054-3.23 2.25-5.41 5.585-5.41h8.994c3.334 0 4.53 2.18 5.584 5.41.576 1.763-.71 3.584-2.529 3.584z" fill="#E6E6E6"/>
        <path d="M20.408 20.563c-.183 1.279-1.252 2.331-2.635 2.331H2.668c-1.383 0-2.451-1.052-2.634-2.33-.018.003-.034.016-.034.04v13.539a4.288 4.288 0 0 0 4.287 4.287h11.867a4.288 4.288 0 0 0 4.287-4.287V20.604c0-.024-.015-.037-.033-.04z" fill="#455560"/>
        <path d="M10.22 20.441c2.484 0 4.498-.915 4.498-2.044s-2.014-2.044-4.497-2.044c-2.484 0-4.497.915-4.497 2.044 0 1.13 2.013 2.044 4.497 2.044z" fill="#D75A4A"/>
        <path d="M27.585 9.812H12.48c-1.82 0-3.105-1.821-2.53-3.585 1.055-3.23 2.25-5.41 5.585-5.41h8.994c3.335 0 4.531 2.18 5.585 5.41.576 1.764-.71 3.585-2.529 3.585z" fill="#E6E6E6"/>
        <path d="M20.032 7.359c2.484 0 4.497-.915 4.497-2.044 0-1.13-2.013-2.044-4.497-2.044-2.483 0-4.497.915-4.497 2.044s2.014 2.044 4.497 2.044z" fill="#D75A4A"/>
        <path d="M39.108 19.31c-1.054-3.23-3.885-5.41-7.22-5.41h-9.811c-2.656 0-1.502 1.386-2.453 3.582.242.56.464 1.171.678 1.828a2.743 2.743 0 0 1-.678 2.803c.473.474 1.113.781 1.85.781h15.105c1.82 0 3.105-1.82 2.53-3.584z" fill="#E6E6E6"/>
        <path d="M39.214 20.563c-.183 1.279-1.252 2.331-2.635 2.331H21.474c-.371 0-.718-.08-1.033-.216v11.464c0 .936-.308 1.795-.817 2.501a4.273 4.273 0 0 0 3.469 1.787h11.866a4.288 4.288 0 0 0 4.288-4.288V20.604c0-.024-.015-.037-.033-.04z" fill="#38454F"/>
        <path d="M14.718 13.9c2.655 0 3.954 1.386 4.906 3.582.951-2.196-.203-3.582 2.453-3.582h8.176V7.522c0-.023-.015-.036-.034-.041-.183 1.279-1.251 2.33-2.634 2.33H12.48c-1.383 0-2.452-1.051-2.635-2.33-.018.004-.033.017-.033.04v6.38h4.906z" fill="#38454F"/>
        <path d="M29.027 20.441c2.483 0 4.497-.915 4.497-2.044s-2.014-2.044-4.497-2.044c-2.484 0-4.498.915-4.498 2.044 0 1.13 2.014 2.044 4.498 2.044z" fill="#D75A4A"/>
        <path d="M4.088 35.977a.817.817 0 0 1-.817-.818v-4.906a.817.817 0 1 1 1.635 0v4.906a.817.817 0 0 1-.818.818z" fill="#546A79"/>
        <path d="M4.088 28.615a.817.817 0 0 1-.817-.817v-2.45a.817.817 0 1 1 1.635 0v2.45a.817.817 0 0 1-.818.817z" fill="#546A79"/>
        <path d="M24.53 35.977a.817.817 0 0 1-.818-.818v-4.906a.817.817 0 1 1 1.635 0v4.906a.817.817 0 0 1-.818.818z" fill="#546A79"/>
        <path d="M24.53 28.615a.817.817 0 0 1-.818-.817v-2.45a.817.817 0 1 1 1.635 0v2.45a.817.817 0 0 1-.818.817z" fill="#546A79"/>
    </g>
    <defs>
        <clipPath id="a">
            <path fill="#fff" d="M0 0h39.247v39.247H0z"/>
        </clipPath>
    </defs>
</svg>
