<svg width="42" height="42" viewBox="0 0 42 42" fill="none" xmlns="http://www.w3.org/2000/svg">
    <path d="M16.406 9.844a1.313 1.313 0 1 1 0 2.625 1.313 1.313 0 0 1 0-2.625z" fill="#FC6E51"/>
    <path d="M41.344 9.844v17.725a1.975 1.975 0 0 1-1.969 1.969H2.625a1.975 1.975 0 0 1-1.969-1.969V6.563c0-1.083.886-1.97 1.969-1.97h36.75c1.083 0 1.969.887 1.969 1.97v3.28zM38.062 24.28v-5.243a1.97 1.97 0 0 0-1.968-1.969 1.975 1.975 0 0 0 1.968-1.969V9.85a1.97 1.97 0 0 0-1.968-1.968h-2.625A1.97 1.97 0 0 0 31.5 9.85v5.25c0 1.083.886 1.97 1.969 1.97a1.97 1.97 0 0 0-1.969 1.968v5.243c0 1.082.886 1.969 1.969 1.969h2.625a1.975 1.975 0 0 0 1.968-1.969zm-9.187 0v-5.243a1.97 1.97 0 0 0-1.969-1.969 1.975 1.975 0 0 0 1.969-1.969V9.85a1.97 1.97 0 0 0-1.969-1.968h-2.625a1.97 1.97 0 0 0-1.968 1.968v5.25c0 1.083.886 1.97 1.968 1.97a1.97 1.97 0 0 0-1.968 1.968v5.243c0 1.082.886 1.969 1.968 1.969h2.625a1.975 1.975 0 0 0 1.969-1.969zm-9.188 0v-5.243a1.97 1.97 0 0 0-1.968-1.969 1.975 1.975 0 0 0 1.968-1.969V9.85a1.97 1.97 0 0 0-1.968-1.968h-2.625a1.97 1.97 0 0 0-1.969 1.968v5.25c0 1.083.886 1.97 1.969 1.97a1.97 1.97 0 0 0-1.969 1.968v5.243c0 1.082.886 1.969 1.969 1.969h2.625a1.975 1.975 0 0 0 1.968-1.969zm-9.187 0v-5.243a1.97 1.97 0 0 0-1.969-1.969A1.975 1.975 0 0 0 10.5 15.1V9.85a1.97 1.97 0 0 0-1.969-1.968H5.906A1.97 1.97 0 0 0 3.938 9.85v5.25c0 1.083.885 1.97 1.968 1.97a1.97 1.97 0 0 0-1.968 1.968v5.243c0 1.082.885 1.969 1.968 1.969h2.625a1.975 1.975 0 0 0 1.969-1.969z" fill="#545C66"/>
    <path d="M34.781 9.844a1.313 1.313 0 1 1 0 2.625 1.313 1.313 0 0 1 0-2.625z" fill="#FC6E51"/>
    <path d="M34.781 19.031a1.313 1.313 0 1 1 0 2.625 1.313 1.313 0 0 1 0-2.625z" fill="#FC6E51"/>
    <path d="M36.094 20.344a1.312 1.312 0 1 0-2.626-.001 1.312 1.312 0 0 0 2.626 0zM31.5 21.656v-2.618a1.97 1.97 0 0 1 1.969-1.969h2.625a1.97 1.97 0 0 1 1.968 1.969v2.618a1.975 1.975 0 0 1-1.968 1.969h-2.625a1.975 1.975 0 0 1-1.969-1.969z" fill="#E6E9ED"/>
    <path d="M36.094 11.156a1.312 1.312 0 1 0-2.627-.001 1.312 1.312 0 0 0 2.627.001zM31.5 12.47V9.85a1.97 1.97 0 0 1 1.969-1.968h2.625a1.97 1.97 0 0 1 1.968 1.968v2.625a1.973 1.973 0 0 1-1.968 1.963h-2.625a1.973 1.973 0 0 1-1.969-1.963v-.006z" fill="#E6E9ED"/>
    <path d="M31.5 15.1v-2.625a1.973 1.973 0 0 0 1.969 1.963h2.625c1.083 0 1.962-.88 1.968-1.963V15.1a1.975 1.975 0 0 1-1.968 1.97h-2.625A1.975 1.975 0 0 1 31.5 15.1z" fill="#656D78"/>
    <path d="M31.5 24.281v-2.625c0 1.082.886 1.969 1.969 1.969h2.625a1.975 1.975 0 0 0 1.968-1.969v2.625a1.975 1.975 0 0 1-1.968 1.969h-2.625a1.975 1.975 0 0 1-1.969-1.969z" fill="#656D78"/>
    <path d="M25.594 9.844a1.313 1.313 0 1 1 0 2.625 1.313 1.313 0 0 1 0-2.625z" fill="#FC6E51"/>
    <path d="M26.906 11.156a1.312 1.312 0 1 0-2.627-.001 1.312 1.312 0 0 0 2.627.001zm1.969 1.313v.006a1.973 1.973 0 0 1-1.969 1.963h-2.625a1.973 1.973 0 0 1-1.968-1.963V9.85a1.97 1.97 0 0 1 1.968-1.968h2.625a1.97 1.97 0 0 1 1.969 1.968v2.619z" fill="#E6E9ED"/>
    <path d="M26.906 20.344a1.312 1.312 0 1 0-2.626-.001 1.312 1.312 0 0 0 2.626 0zm1.969-1.306v2.618a1.975 1.975 0 0 1-1.969 1.969h-2.625a1.975 1.975 0 0 1-1.968-1.969v-2.618a1.97 1.97 0 0 1 1.968-1.969h2.625a1.97 1.97 0 0 1 1.969 1.969z" fill="#E6E9ED"/>
    <path d="M17.719 11.156c0-.722-.59-1.312-1.313-1.312a1.313 1.313 0 1 0 1.313 1.312zm1.968 1.32a1.973 1.973 0 0 1-1.968 1.961h-2.625a1.973 1.973 0 0 1-1.969-1.962V9.85a1.97 1.97 0 0 1 1.969-1.968h2.625a1.97 1.97 0 0 1 1.968 1.968v2.625z" fill="#E6E9ED"/>
    <path d="M25.594 19.031a1.313 1.313 0 1 1 0 2.625 1.313 1.313 0 0 1 0-2.625z" fill="#FC6E51"/>
    <path d="M24.281 23.625h2.625a1.975 1.975 0 0 0 1.969-1.969v2.625a1.975 1.975 0 0 1-1.969 1.969h-2.625a1.975 1.975 0 0 1-1.968-1.969v-2.625c0 1.082.885 1.969 1.968 1.969z" fill="#656D78"/>
    <path d="M24.281 14.438h2.625c1.083 0 1.962-.88 1.969-1.963V15.1a1.975 1.975 0 0 1-1.969 1.97h-2.625a1.975 1.975 0 0 1-1.968-1.97v-2.625a1.973 1.973 0 0 0 1.968 1.963z" fill="#656D78"/>
    <path d="M15.094 14.438h2.625c1.083 0 1.962-.88 1.968-1.963V15.1a1.975 1.975 0 0 1-1.968 1.97h-2.625a1.975 1.975 0 0 1-1.969-1.97v-2.625a1.973 1.973 0 0 0 1.969 1.963z" fill="#656D78"/>
    <path d="M15.094 23.625h2.625a1.975 1.975 0 0 0 1.968-1.969v2.625a1.975 1.975 0 0 1-1.968 1.969h-2.625a1.975 1.975 0 0 1-1.969-1.969v-2.625c0 1.082.886 1.969 1.969 1.969z" fill="#656D78"/>
    <path d="M7.219 19.031a1.313 1.313 0 1 1 0 2.625 1.313 1.313 0 0 1 0-2.625z" fill="#FC6E51"/>
    <path d="M5.906 23.625h2.625a1.975 1.975 0 0 0 1.969-1.969v2.625a1.975 1.975 0 0 1-1.969 1.969H5.906a1.975 1.975 0 0 1-1.969-1.969v-2.625c0 1.082.886 1.969 1.97 1.969z" fill="#656D78"/>
    <path d="M5.906 7.882h2.625A1.97 1.97 0 0 1 10.5 9.85v2.625a1.973 1.973 0 0 1-1.969 1.963H5.906a1.973 1.973 0 0 1-1.969-1.963V9.85a1.97 1.97 0 0 1 1.97-1.968zm1.313 4.587a1.313 1.313 0 1 0 0-2.625 1.313 1.313 0 0 0 0 2.625z" fill="#E6E9ED"/>
    <path d="M16.406 19.031a1.313 1.313 0 1 1 0 2.625 1.313 1.313 0 0 1 0-2.625z" fill="#FC6E51"/>
    <path d="M5.906 14.438h2.625c1.083 0 1.962-.88 1.969-1.963V15.1a1.975 1.975 0 0 1-1.969 1.97H5.906a1.975 1.975 0 0 1-1.969-1.97v-2.625a1.973 1.973 0 0 0 1.97 1.963z" fill="#656D78"/>
    <path d="M5.906 17.07h2.625a1.97 1.97 0 0 1 1.969 1.968v2.618a1.975 1.975 0 0 1-1.969 1.969H5.906a1.975 1.975 0 0 1-1.969-1.969v-2.618a1.97 1.97 0 0 1 1.97-1.969zm1.313 4.586a1.313 1.313 0 1 0 0-2.625 1.313 1.313 0 0 0 0 2.625z" fill="#E6E9ED"/>
    <path d="M15.094 17.07h2.625a1.97 1.97 0 0 1 1.968 1.968v2.618a1.975 1.975 0 0 1-1.968 1.969h-2.625a1.975 1.975 0 0 1-1.969-1.969v-2.618a1.97 1.97 0 0 1 1.969-1.969zm2.625 3.274c0-.723-.59-1.313-1.313-1.313a1.313 1.313 0 1 0 1.313 1.313z" fill="#E6E9ED"/>
    <path d="M2.625 29.538h36.75a1.975 1.975 0 0 0 1.969-1.969v3.281a1.975 1.975 0 0 1-1.969 1.97H2.625a1.975 1.975 0 0 1-1.969-1.97v-3.28c0 1.082.886 1.968 1.969 1.968z" fill="#434A54"/>
    <path d="M7.219 9.844a1.313 1.313 0 1 1 0 2.625 1.313 1.313 0 0 1 0-2.625z" fill="#FC6E51"/>
    <path d="M39.375 35.438H2.625a.656.656 0 1 1 0-1.313h36.75a.656.656 0 1 1 0 1.313z" fill="#FFD2A6"/>
    <path d="M39.375 37.406H2.625a.656.656 0 1 1 0-1.312h36.75a.656.656 0 1 1 0 1.312z" fill="#FFD2A6"/>
</svg>
