<svg width="40" height="40" viewBox="0 0 40 40" fill="none" xmlns="http://www.w3.org/2000/svg">
    <g clip-path="url(#a)">
        <path d="M27.58 11.667C27.074 9 24.73 6.976 21.923 6.976h-4.6c-2.805 0-5.15 2.023-5.656 4.691-2.668.506-4.691 2.852-4.691 5.657 0 .644.506 1.15 1.15 1.15H31.12c.645 0 1.15-.506 1.15-1.15 0-2.805-2.023-5.15-4.69-5.657z" fill="#FDBF00"/>
        <path d="M32.271 17.324c0 .644-.505 1.15-1.15 1.15H19.625V6.976h2.3c2.805 0 5.15 2.023 5.657 4.691 2.667.506 4.69 2.852 4.69 5.657z" fill="#FF9100"/>
        <path d="M32.225 17.853l-2.253 20.382c-.046.253-.161.483-.345.667l-2.99-.92H12.61l-2.99.92a1.246 1.246 0 0 1-.344-.667L7.022 17.853c0-.23-.207-.782.253-1.288l3.265 1.288h18.167l3.265-1.288c.46.506.253 1.058.253 1.288z" fill="#FF641A"/>
        <path d="M32.225 17.853l-2.253 20.382c-.046.253-.161.483-.345.667l-2.99-.92h-7.013V17.853h9.083l3.265-1.288c.46.506.253 1.058.253 1.288z" fill="#F03800"/>
        <path d="M19.625 18.474a1.15 1.15 0 0 1-1.14-1.312l2.3-16.175a1.15 1.15 0 0 1 2.277.326l-2.3 16.174a1.15 1.15 0 0 1-1.137.987z" fill="#673416"/>
        <path d="M24.223 18.474a1.15 1.15 0 0 1-1.09-1.514l4.599-13.874c.2-.602.845-.929 1.454-.726.602.2.927.85.726 1.454l-4.599 13.874c-.16.482-.608.786-1.09.786z" fill="#673416"/>
        <path d="M.193 22.561a1.15 1.15 0 0 1 .32-1.594l6.975-4.6a1.15 1.15 0 0 1 1.275 1.914L1.788 22.88a1.15 1.15 0 0 1-1.595-.319z" fill="#FFF4CA"/>
        <path d="M37.46 22.88l-6.976-4.599a1.149 1.149 0 1 1 1.276-1.913l6.975 4.599a1.149 1.149 0 1 1-1.276 1.913z" fill="#FFE1BA"/>
        <path d="M29.627 38.902a1.129 1.129 0 0 1-.805.345H10.425a1.13 1.13 0 0 1-.805-.345l4.6-6.21a1.08 1.08 0 0 1 .804-.344h9.199c.299 0 .598.115.805.345l4.599 6.209z" fill="#F03800"/>
        <path d="M25.028 32.693l4.599 6.209a1.129 1.129 0 0 1-.805.345h-9.198v-6.899h4.599c.299 0 .598.115.805.345z" fill="#CD0000"/>
        <path d="M31.972 16.565l-4.645 6.163c-.207.23-.506.345-.805.345H12.726c-.3 0-.598-.115-.805-.345l-4.645-6.163c.207-.253.528-.39.85-.39h22.997c.322 0 .643.137.85.39z" fill="#FFF4CA"/>
        <path d="M31.973 16.565l-4.646 6.163c-.207.23-.506.345-.804.345h-6.9v-6.899h11.499c.322 0 .644.138.85.391z" fill="#FFE1BA"/>
    </g>
    <defs>
        <clipPath id="a">
            <path fill="#fff" d="M0 0h39.247v39.247H0z"/>
        </clipPath>
    </defs>
</svg>
