<svg width="41" height="41" viewBox="0 0 41 41" fill="none" xmlns="http://www.w3.org/2000/svg">
<g filter="url(#filter0_d)">
<circle cx="18.5" cy="18.5005" r="15.5" fill="url(#paint0_linear)"/>
</g>
<g clip-path="url(#clip0)">
<path d="M15.9026 20.5601H23.0656C23.8778 20.5601 24.5404 19.8975 24.5404 19.0853V16.0715C24.5404 16.0688 24.5404 16.0635 24.5404 16.0608C24.5404 16.0528 24.5404 16.0475 24.5404 16.0394C24.5404 16.0341 24.5404 16.0288 24.5378 16.0234C24.5378 16.0181 24.5351 16.0101 24.5351 16.0047C24.5351 15.9994 24.5324 15.994 24.5324 15.9887C24.5298 15.9833 24.5298 15.978 24.5271 15.97C24.5244 15.9646 24.5244 15.9593 24.5217 15.9539C24.5191 15.9486 24.5191 15.9433 24.5164 15.9379C24.5137 15.9326 24.5111 15.9272 24.5084 15.9192C24.5057 15.9139 24.503 15.9085 24.5004 15.9059C24.4977 15.9005 24.495 15.8952 24.4923 15.8898C24.4897 15.8845 24.487 15.8818 24.4843 15.8765C24.4817 15.8711 24.4763 15.8658 24.4736 15.8604C24.471 15.8551 24.4683 15.8524 24.463 15.8471C24.4603 15.8417 24.4549 15.8391 24.4523 15.8337C24.4496 15.8284 24.4443 15.8257 24.4416 15.8204C24.4389 15.815 24.4336 15.8123 24.4309 15.8097C24.4256 15.8043 24.4229 15.8017 24.4175 15.7963C24.4122 15.7936 24.4095 15.7883 24.4042 15.7856C24.3988 15.783 24.3935 15.7776 24.3881 15.7749C24.3828 15.7723 24.3801 15.7696 24.3748 15.7669C24.3694 15.7643 24.3641 15.7616 24.3588 15.7562C24.3534 15.7536 24.3481 15.7509 24.3427 15.7482C24.3374 15.7456 24.332 15.7429 24.3267 15.7402C24.3214 15.7375 24.316 15.7349 24.3107 15.7322C24.3053 15.7295 24.3 15.7295 24.2946 15.7268C24.2893 15.7242 24.2813 15.7215 24.2759 15.7215C24.2706 15.7215 24.2652 15.7188 24.2626 15.7188C24.2546 15.7162 24.2492 15.7162 24.2412 15.7162C24.2385 15.7162 24.2359 15.7135 24.2305 15.7135L15.1518 14.4604V13.194C15.1518 13.1807 15.1518 13.1673 15.1492 13.1566C15.1492 13.1539 15.1492 13.1513 15.1465 13.1459C15.1465 13.1379 15.1438 13.1299 15.1438 13.1219C15.1412 13.1139 15.1412 13.1085 15.1385 13.1005C15.1385 13.0952 15.1358 13.0925 15.1358 13.0871C15.1331 13.0791 15.1305 13.0711 15.1278 13.0631C15.1278 13.0604 15.1251 13.0551 15.1251 13.0524C15.1225 13.0444 15.1198 13.039 15.1144 13.031C15.1118 13.0284 15.1118 13.023 15.1091 13.0203C15.1064 13.015 15.1038 13.0097 15.0984 13.0043C15.0957 12.999 15.0931 12.9963 15.0904 12.991C15.0877 12.9856 15.085 12.9829 15.0824 12.9776C15.0797 12.9723 15.0744 12.9669 15.0717 12.9616C15.069 12.9589 15.0663 12.9562 15.0637 12.9536C15.0583 12.9482 15.053 12.9429 15.0476 12.9375C15.045 12.9348 15.0423 12.9322 15.0396 12.9295C15.0343 12.9242 15.0289 12.9188 15.0209 12.9135C15.0183 12.9108 15.0129 12.9081 15.0102 12.9055C15.0049 12.9001 14.9996 12.8974 14.9942 12.8921C14.9862 12.8868 14.9782 12.8814 14.9728 12.8787C14.9702 12.8761 14.9675 12.8761 14.9648 12.8734C14.9541 12.8681 14.9408 12.8627 14.9301 12.8574L12.961 12.0291C12.7766 11.9516 12.5656 12.0371 12.4881 12.2215C12.4106 12.4058 12.4961 12.6169 12.6805 12.6944L14.4278 13.4318V15.0669V15.3261V17.3139V19.0906V21.3349C14.4278 22.083 14.9889 22.7028 15.7129 22.7964C15.582 23.0154 15.5045 23.2719 15.5045 23.5444C15.5045 24.3486 16.1591 25.0006 16.9606 25.0006C17.7622 25.0006 18.4167 24.346 18.4167 23.5444C18.4167 23.2773 18.3446 23.0235 18.2164 22.8097H21.4599C21.3316 23.0261 21.2595 23.2773 21.2595 23.5444C21.2595 24.3486 21.9141 25.0006 22.7156 25.0006C23.5172 25.0006 24.1717 24.346 24.1717 23.5444C24.1717 22.7429 23.5172 22.0883 22.7156 22.0883H15.9026C15.4858 22.0883 15.1492 21.749 15.1492 21.3349V20.357C15.3683 20.4853 15.6274 20.5601 15.9026 20.5601ZM17.698 23.5418C17.698 23.9479 17.3667 24.2765 16.9633 24.2765C16.5599 24.2765 16.2286 23.9452 16.2286 23.5418C16.2286 23.1383 16.5599 22.807 16.9633 22.807C17.3667 22.807 17.698 23.1357 17.698 23.5418ZM23.453 23.5418C23.453 23.9479 23.1217 24.2765 22.7183 24.2765C22.3149 24.2765 21.9836 23.9452 21.9836 23.5418C21.9836 23.1383 22.3149 22.807 22.7183 22.807C23.1217 22.807 23.453 23.1357 23.453 23.5418ZM23.0656 19.8387H15.9026C15.4858 19.8387 15.1492 19.4994 15.1492 19.0853V17.3085V15.3207V15.1872L23.8191 16.3814V19.0826C23.8191 19.5021 23.4797 19.8387 23.0656 19.8387Z" fill="white"/>
</g>
<defs>
<filter id="filter0_d" x="0" y="0.000549316" width="41" height="41" filterUnits="userSpaceOnUse" color-interpolation-filters="sRGB">
<feFlood flood-opacity="0" result="BackgroundImageFix"/>
<feColorMatrix in="SourceAlpha" type="matrix" values="0 0 0 0 0 0 0 0 0 0 0 0 0 0 0 0 0 0 127 0"/>
<feOffset dx="2" dy="2"/>
<feGaussianBlur stdDeviation="2.5"/>
<feColorMatrix type="matrix" values="0 0 0 0 0.921569 0 0 0 0 0.129412 0 0 0 0 0.180392 0 0 0 0.15 0"/>
<feBlend mode="normal" in2="BackgroundImageFix" result="effect1_dropShadow"/>
<feBlend mode="normal" in="SourceGraphic" in2="effect1_dropShadow" result="shape"/>
</filter>
<linearGradient id="paint0_linear" x1="3" y1="4.03387" x2="35.554" y2="5.08539" gradientUnits="userSpaceOnUse">
<stop stop-color="#FF5863"/>
<stop offset="1" stop-color="#EB212E"/>
<stop offset="1" stop-color="#EB212E"/>
</linearGradient>
<clipPath id="clip0">
<rect width="13" height="13" fill="white" transform="translate(12 12.0005)"/>
</clipPath>
</defs>
</svg>
